<svg width="764" height="550" viewBox="0 0 764 550" fill="none" xmlns="http://www.w3.org/2000/svg">
<g clip-path="url(#clip0_1352_664)">
<path d="M68.3297 350.88C67.8397 352 67.3997 353 66.9997 354C67.7577 354.605 68.3495 355.393 68.7197 356.29L68.9497 356.18C68.5414 354.429 68.3367 352.638 68.3397 350.84M73.8097 349.56C73.8097 349.91 73.8097 350.25 73.8697 350.56C73.8697 350.28 73.8697 350 73.9397 349.73C73.902 349.672 73.8585 349.619 73.8097 349.57M66.5097 341.57C66.221 342.89 65.6439 344.129 64.8197 345.2L64.4697 345.61C64.5752 346.421 64.7526 347.221 64.9997 348C65.6497 348.34 66.1497 349.06 65.9997 350.54C66.2297 351.01 66.4797 351.49 66.7497 351.96C67.6297 349.9 68.6497 347.71 69.8297 345.53C69.5297 344.88 68.0897 341.94 66.4697 341.68M84.6897 326C81.6897 326 80.2697 330.53 80.2697 330.53C80.2593 329.717 79.9629 328.934 79.4326 328.318C78.9024 327.701 78.172 327.292 77.3697 327.16H77.3197C75.0097 327.16 73.1197 332.16 73.4197 337.59C73.1997 336.02 72.5897 333.53 70.8197 333.53C70.3648 333.548 69.9215 333.678 69.5297 333.91C65.9397 335.81 69.3797 344.35 69.8597 345.5C72.4397 340.72 75.7597 335.95 79.8597 332.62L80.4897 333.39C76.3397 336.75 73.0197 341.62 70.4897 346.46C70.8094 346.336 71.1472 346.265 71.4897 346.25C71.9363 346.262 72.366 346.423 72.7103 346.708C73.0547 346.992 73.2938 347.384 73.3897 347.82L74.2797 347.4C74.6597 345.378 75.5092 343.474 76.7597 341.84C76.5175 341.727 76.2667 341.633 76.0097 341.56C80.4397 339.75 82.0097 338.14 82.0097 338.14C83.7197 335.97 80.6097 335.31 79.0997 335.14H79.7297C83.2397 335.14 84.6597 333.3 84.6597 333.3C88.0697 329.48 85.5997 326 84.6597 326" fill="#DFDFDF"/>
<path d="M66.0004 353.761C65.7907 353.782 65.587 353.843 65.4004 353.941C64.1604 354.571 63.7404 356.501 64.0904 359.021C64.5804 357.531 65.2204 355.731 66.0004 353.761ZM86.0304 340.391C83.2204 340.391 81.4704 344.391 81.4704 344.391C81.555 343.584 81.3542 342.773 80.9029 342.099C80.4517 341.425 79.7785 340.93 79.0004 340.701H78.7704C78.3742 340.738 77.9905 340.86 77.6455 341.058C77.3005 341.257 77.002 341.527 76.7704 341.851C75.5199 343.484 74.6704 345.389 74.2904 347.411C74.1153 348.192 73.9884 348.984 73.9104 349.781C73.9104 350.051 73.8504 350.331 73.8404 350.611C73.8404 350.311 73.8404 349.971 73.7804 349.611C73.7312 349 73.6034 348.398 73.4004 347.821C73.3045 347.384 73.0654 346.993 72.721 346.708C72.3767 346.424 71.947 346.263 71.5004 346.251C71.1579 346.266 70.8201 346.336 70.5004 346.461C69.7104 347.951 68.9904 349.461 68.3504 350.891C68.3474 352.688 68.5521 354.48 68.9604 356.231C69.2004 357.341 69.4304 358.111 69.4504 358.171C69.2533 357.545 69.0127 356.933 68.7304 356.341C68.3647 355.425 67.7688 354.619 67.0004 354.001C65.8804 356.811 65.0604 359.271 64.5404 361.001C64.5404 361.121 64.6004 361.241 64.6404 361.361H69.6404C70.4904 357.561 73.1204 349.411 80.4604 346.361L80.8404 347.281C74.1404 350.041 71.5604 357.621 70.6804 361.331H71.1804C71.0994 361.297 71.0158 361.27 70.9304 361.251L74.1004 360.201C81.4104 357.001 76.0004 354.841 76.0004 354.841C80.6204 353.571 82.3604 352.161 82.3604 352.161C84.3604 350.161 81.3604 349.161 79.8304 348.811C80.3981 348.913 80.9735 348.967 81.5504 348.971C83.0014 349.055 84.4306 348.587 85.5504 347.661C89.3904 344.271 87.3504 340.531 86.4104 340.421C86.294 340.411 86.1769 340.411 86.0604 340.421" fill="#DFDFDF"/>
<path d="M55.4296 343.719C55.161 343.708 54.8943 343.77 54.6582 343.898C54.4222 344.027 54.2256 344.217 54.0896 344.449C53.9197 344.735 53.8234 345.058 53.8096 345.389C54.045 344.984 54.3622 344.633 54.741 344.358C55.1197 344.082 55.5518 343.889 56.0096 343.789C55.819 343.747 55.6247 343.724 55.4296 343.719ZM65.1096 321.929C65.0237 321.929 64.9385 321.946 64.8596 321.979C62.0996 323.259 62.7596 327.979 62.7596 327.979C62.4936 327.378 62.0572 326.869 61.5044 326.513C60.9516 326.158 60.3067 325.972 59.6496 325.979C59.3323 325.977 59.0161 326.017 58.7096 326.099C56.5696 327.009 56.9496 332.419 59.5096 337.219C58.7796 336.079 57.5096 334.469 56.1696 334.469C55.8167 334.492 55.4745 334.6 55.1717 334.783C54.8689 334.965 54.6144 335.218 54.4296 335.519C54.0744 335.995 53.8879 336.576 53.8996 337.169C54.2275 337.84 54.405 338.573 54.4196 339.319C55.8196 342.509 59.5896 345.879 59.7096 345.989C58.8888 345.275 57.9817 344.667 57.0096 344.179C58.2996 345.179 58.2396 347.859 57.0096 350.999C57.8799 351.813 58.8091 352.562 59.7896 353.239C60.0696 347.499 60.5896 339.929 61.5496 332.419L62.5496 332.549C61.2796 342.439 60.7896 352.429 60.5496 358.189C61.0802 357.978 61.5706 357.677 61.9996 357.299C62.9625 356.443 63.7977 355.453 64.4796 354.359L65.0296 353.469C65.582 352.593 65.9243 351.6 66.0296 350.569V350.509C66.1496 349.029 65.6496 348.309 65.0296 347.969C64.6377 347.777 64.2058 347.681 63.7696 347.689C63.4051 347.69 63.0422 347.737 62.6896 347.829L64.4896 345.689L64.8396 345.279C65.6637 344.209 66.2408 342.969 66.5296 341.649C66.7496 339.899 65.2696 339.649 64.3296 339.649C64.0783 339.648 63.8275 339.669 63.5796 339.709C66.8496 336.209 67.5796 334.089 67.5796 334.089C67.9496 332.549 67.0896 332.089 66.0296 332.089C65.2265 332.127 64.4323 332.275 63.6696 332.529C67.3796 331.079 67.9496 328.529 67.9496 328.529C69.3196 324.009 66.2896 321.859 65.1296 321.859" fill="#DFDFDF"/>
<path d="M79.8796 332.612C75.7596 335.942 72.4396 340.712 69.8796 345.492C68.6996 347.672 67.6796 349.862 66.7996 351.922L65.9996 353.762C65.2196 355.762 64.5796 357.532 64.0896 359.022C63.7896 359.942 63.5396 360.742 63.3496 361.392H64.3496C64.3496 361.272 64.4196 361.152 64.4596 361.032C64.9796 359.312 65.7996 356.852 66.9196 354.032C67.3296 353.032 67.7696 351.962 68.2596 350.872C68.8996 349.422 69.6196 347.932 70.4096 346.442C72.9696 341.602 76.2896 336.732 80.4096 333.372L79.7796 332.602" fill="#C1C1C1"/>
<path d="M61.5803 332.379C60.5803 339.889 60.1003 347.459 59.8203 353.199C59.6403 356.799 59.5703 359.679 59.5303 361.389H60.5303C60.5303 360.569 60.5303 359.469 60.6203 358.149C60.8103 352.389 61.3003 342.399 62.6203 332.509L61.6203 332.379" fill="#C1C1C1"/>
<path d="M80.4802 346.422C73.1402 349.422 70.4802 357.592 69.6602 361.422H70.6602C71.5402 357.712 74.1202 350.132 80.8202 347.372L80.4402 346.452" fill="#C1C1C1"/>
<path d="M37.6501 328.148C36.7101 328.148 34.2401 331.618 37.6501 335.438C37.7882 335.6 37.9423 335.748 38.1101 335.878C38.3148 335.993 38.506 336.131 38.6801 336.288C39.8615 336.979 41.2123 337.325 42.5801 337.288H43.2101C42.2101 337.418 40.4501 337.758 39.9401 338.638C40.0942 339.175 40.2046 339.724 40.2701 340.278C41.1416 341.074 42.1172 341.746 43.1701 342.278C43.2721 342.292 43.3726 342.316 43.4701 342.348C43.7506 342.45 44.0062 342.611 44.2201 342.818C44.8201 343.108 45.5101 343.418 46.2201 343.728C45.7973 343.848 45.3934 344.027 45.0201 344.258C45.3758 345.444 45.5147 346.684 45.4301 347.918C46.0534 348.45 46.7227 348.925 47.4301 349.338L50.4301 350.748C50.4301 350.748 46.6101 351.348 48.5301 354.648C49.0609 355.542 49.7939 356.299 50.6701 356.858L51.5401 357.428C52.8898 358.32 54.3912 358.957 55.9701 359.308C49.0001 339.598 42.2101 333.748 42.1401 333.688L42.7801 332.918C43.0501 333.148 48.7801 338.088 55.3301 354.478C55.983 353.367 56.5416 352.203 57.0001 350.998C58.2001 347.858 58.2601 345.198 57.0001 344.178L56.8801 344.088C56.6388 343.922 56.3533 343.831 56.0601 343.828H56.0001C55.5424 343.928 55.1103 344.121 54.7315 344.397C54.3527 344.672 54.0355 345.024 53.8001 345.428C53.2565 346.176 52.7907 346.976 52.4101 347.818C52.4701 347.688 54.5701 342.818 54.4101 339.318C54.3955 338.572 54.2181 337.839 53.8901 337.168C53.6471 336.746 53.3017 336.392 52.8857 336.139C52.4698 335.885 51.9967 335.741 51.5101 335.718C49.7401 335.718 49.1301 338.198 48.9101 339.768C49.2101 334.378 47.3201 329.348 45.0101 329.348H45.0001C44.1979 329.48 43.4675 329.89 42.9372 330.506C42.4069 331.122 42.1106 331.906 42.1001 332.718C42.1001 332.718 40.7201 328.188 37.6801 328.188" fill="#DFDFDF"/>
<path d="M28.6305 331.109C28.4719 331.109 28.3139 331.129 28.1605 331.169C27.4219 331.505 26.8243 332.089 26.4717 332.82C26.1191 333.551 26.0337 334.382 26.2305 335.169C26.2305 335.169 24.1505 331.839 21.5705 331.839C21.3064 331.837 21.0435 331.874 20.7905 331.949C19.8805 332.189 18.4005 336.179 22.6805 338.949C23.5772 339.512 24.6228 339.791 25.6805 339.749C26.6374 339.739 27.5863 339.573 28.4905 339.259C27.0805 339.839 24.2505 341.259 26.4905 342.939C26.4905 342.939 28.4205 344.089 33.1705 344.679C32.538 345.049 32.0191 345.585 31.6705 346.229C32.9094 346.908 33.8691 348.002 34.3805 349.319C34.8005 349.469 35.2705 349.629 35.8005 349.779L39.0805 350.359C38.896 350.445 38.7188 350.545 38.5505 350.659C40.1405 350.989 41.4405 353.309 42.0705 356.589C43.3658 356.992 44.7141 357.197 46.0705 357.199H46.6705C41.2849 348.94 34.2471 341.885 26.0005 336.479L26.5205 335.619C33.5026 340.208 39.6479 345.958 44.6905 352.619C45.1297 351.071 45.3914 349.477 45.4705 347.869C45.555 346.635 45.4161 345.395 45.0605 344.209C44.898 343.668 44.6063 343.173 44.2105 342.769C43.9965 342.561 43.7409 342.401 43.4605 342.299C43.3629 342.267 43.2625 342.243 43.1605 342.229H42.9505C40.8505 342.229 40.1305 346.949 40.1105 347.079C40.4213 344.816 40.4616 342.523 40.2305 340.249C40.1649 339.695 40.0545 339.146 39.9005 338.609C39.7006 337.735 39.2648 336.933 38.6405 336.289C38.3067 335.97 37.8916 335.749 37.4405 335.649C37.1876 335.593 36.9296 335.562 36.6705 335.559C34.3805 335.559 34.4205 338.489 34.6705 340.219C33.6705 335.219 30.8005 331.109 28.6205 331.109" fill="#DFDFDF"/>
<path d="M38.1799 350.671C35.9199 350.671 36.2699 354.831 36.3999 355.941C38.9087 357.56 41.2801 359.383 43.4899 361.391H43.6299L42.4699 360.331C42.4436 359.093 42.3131 357.858 42.0799 356.641C41.4499 353.361 40.1499 351.041 38.5599 350.711H38.2299M21.3399 344.331C20.9848 344.324 20.6361 344.426 20.3399 344.621C19.7333 345.163 19.336 345.899 19.2172 346.704C19.0984 347.508 19.2657 348.328 19.6899 349.021C19.6899 349.021 17.3699 347.001 15.1599 347.001C14.5599 346.992 13.9698 347.155 13.4599 347.471C12.6699 347.971 12.4599 352.231 17.3599 353.641C17.7627 353.758 18.1808 353.811 18.5999 353.801C20.2093 353.753 21.7613 353.193 23.0299 352.201C21.8499 353.201 19.5799 355.391 22.1899 356.321C22.8691 356.446 23.5595 356.5 24.2499 356.481C25.8712 356.461 27.4875 356.297 29.0799 355.991C29.0799 355.991 25.2699 360.091 32.6499 360.091H33.1099L36.4199 359.671C35.9162 360.127 35.5404 360.706 35.3299 361.351H41.9999C35.9197 356.181 28.8928 352.241 21.3099 349.751L21.5799 348.751C26.8089 350.46 31.7914 352.847 36.3999 355.851C36.0118 353.589 35.3399 351.385 34.3999 349.291C33.8885 347.974 32.9288 346.88 31.6899 346.201C31.3736 346.068 31.0333 346 30.6899 346.001H30.4899C27.3499 346.241 28.3699 349.441 29.1699 351.191C26.9199 347.191 23.4599 344.191 21.2799 344.191" fill="#DFDFDF"/>
<path d="M42.7796 332.922L42.1396 333.692C42.2096 333.752 48.9697 339.602 56.0797 359.282C56.3297 359.962 56.5797 360.672 56.8297 361.392H57.8797C57.0297 358.892 56.1697 356.592 55.3297 354.482C48.7897 338.092 43.0496 333.152 42.7796 332.922Z" fill="#C1C1C1"/>
<path d="M26.56 335.621L26.04 336.481C34.2752 341.9 41.2993 348.965 46.67 357.231C47.5 358.561 48.29 359.951 49.02 361.391H50.14C48.6074 358.316 46.7965 355.387 44.73 352.641C39.6875 345.979 33.5421 340.23 26.56 335.641" fill="#C1C1C1"/>
<path d="M21.5698 348.828L21.2998 349.828C28.8832 352.305 35.9133 356.231 41.9998 361.388H43.4998C41.29 359.38 38.9187 357.557 36.4098 355.938C31.8013 352.934 26.8189 350.547 21.5898 348.838" fill="#C1C1C1"/>
<path d="M36.05 367.512H36V397.232H36.09V367.512M44.8 367.512H42.2V397.232H44.8V367.512ZM50.96 367.512H47.76V397.232H50.92V367.512M57.08 367.512H53.92V397.232H57.08V367.512ZM62.73 367.512H60.08V397.232H62.73V367.512ZM73.5 367.512H70.34V397.232H73.5V367.512Z" fill="#F5F5F5"/>
<path d="M70.3396 367.512H68.8496V397.232H70.3396V367.512Z" fill="#E2E2E2"/>
<path d="M36.0502 397.23H36.0002V398.73H33.7002V400.23H36.0502V397.23ZM62.7302 397.23H60.0802V398.73H57.0802V397.23H53.9202V398.73H50.9202V397.23H47.7602V398.73H44.7602V397.23H42.1602V400.23H62.7302V397.23ZM73.5002 397.23H68.8502V400.23H75.7502V398.73H73.5002V397.23Z" fill="#E2E2E2"/>
<path d="M20.6504 361.389V537.259C20.6504 538.113 20.9896 538.932 21.5935 539.536C22.1974 540.14 23.0164 540.479 23.8704 540.479H26.7704V367.479H20.6504V361.359" fill="#DCDCDC"/>
<path d="M68.8505 367.512H62.7305V397.232V400.232V540.482H68.8505V400.232V397.232V367.512Z" fill="#DCDCDC"/>
<path d="M42.1598 367.512H41.5998H38.5998H36.0498V397.232V400.232V540.482H42.1598V400.232V397.232V367.512Z" fill="#DCDCDC"/>
<path d="M83.7304 367.512H77.6104V540.512H80.5104C81.3644 540.512 82.1834 540.172 82.7872 539.569C83.3911 538.965 83.7304 538.146 83.7304 537.292V367.512Z" fill="#DCDCDC"/>
<path d="M83.7304 361.391H71.2004H70.7004H69.6604H64.6304H63.3804H60.5304H59.5304H57.8804H56.8304H50.1404H49.0204H43.6304H43.4904H41.9904H35.3304H20.6504V367.511H26.7704H32.9604H35.9604H44.7604H47.7604H50.9204H53.9204H57.0804H60.0804H62.7304H68.8504H73.5004H76.5004H77.6104H83.7304V361.391Z" fill="#DCDCDC"/>
<path d="M81.13 540.48H23.71L24.81 544.85C24.9348 545.35 25.2231 545.794 25.6289 546.111C26.0348 546.428 26.5349 546.6 27.05 546.6H77.79C78.2998 546.594 78.7931 546.418 79.1928 546.102C79.5926 545.785 79.8764 545.345 80 544.85L81.1 540.48" fill="#DCDCDC"/>
<path d="M47.7598 367.512H44.7598V397.232V398.732H47.7598V397.232V367.512Z" fill="#E2E2E2"/>
<path d="M53.9199 367.512H50.9199V397.232V398.732H53.9199V397.232V367.512Z" fill="#E2E2E2"/>
<path d="M60.0801 367.512H57.0801V397.232V398.732H60.0801V397.232V367.512Z" fill="#E2E2E2"/>
<path d="M76.5 367.512H73.5V397.232V398.732H75.75H76.5V367.512Z" fill="#E2E2E2"/>
<path d="M35.96 367.512H32.96V398.732H33.7H35.96V397.232V367.512Z" fill="#E2E2E2"/>
<path d="M695.58 447.642C695.58 447.642 681.17 432.172 686.78 420.112C686.814 420.032 686.87 419.964 686.942 419.917C687.014 419.869 687.099 419.844 687.185 419.844C687.271 419.844 687.356 419.869 687.428 419.917C687.5 419.964 687.556 420.032 687.59 420.112C688.73 423.232 692.73 432.922 698.59 433.842V448.612L695.58 447.642Z" fill="#449935"/>
<path d="M712 450.361C714.431 446.534 717.26 442.974 720.44 439.741C721.76 438.511 722.71 436.631 724.38 435.961C746.49 427.041 738.58 404.471 738.58 404.471C738.57 404.31 738.512 404.154 738.413 404.026C738.314 403.898 738.179 403.802 738.025 403.751C737.871 403.701 737.705 403.698 737.549 403.742C737.393 403.787 737.254 403.877 737.15 404.001L735.45 406.001L707.86 440.121L712 450.361Z" fill="#59AA48"/>
<path d="M702.87 392.472C702.87 392.472 708.51 382.272 712.73 382.472C716.95 382.672 723.09 395.152 722.51 399.212L722.18 405.262L709.5 421.882L702.87 392.472Z" fill="#6FCE5B"/>
<path d="M700.44 422.999C700.44 422.999 686 412.099 681.32 400.669C678.828 394.541 677.043 388.15 676 381.619C675.953 381.321 675.969 381.017 676.047 380.726C676.124 380.435 676.261 380.163 676.449 379.928C676.637 379.693 676.872 379.5 677.139 379.36C677.406 379.221 677.699 379.139 678 379.119C682.33 378.869 692.17 379.999 702.79 392.709C702.79 392.709 711.57 403.779 713.31 411.979C713.31 411.979 720.63 398.439 730.65 391.929C730.841 391.812 731.058 391.747 731.281 391.737C731.504 391.728 731.726 391.776 731.926 391.876C732.126 391.975 732.297 392.125 732.424 392.309C732.55 392.493 732.628 392.706 732.65 392.929C733.089 396.674 734.101 400.33 735.65 403.769C735.65 403.769 741.12 417.189 720.49 428.999C720.49 428.999 712.04 435.579 710.92 442.289L700.44 422.999Z" fill="#449935"/>
<path d="M697.76 488.702L698.76 481.622C698.76 481.622 680.62 474.782 673.04 459.752C673.04 459.752 679.19 462.672 683.79 462.752C688.39 462.832 695.72 466.982 698.79 470.752C701.86 474.522 693.09 458.992 685.52 454.012C673.24 445.932 671.95 430.012 671.95 430.012C671.95 430.012 685.37 432.422 688.69 437.062L692 441.702L695.81 447.702L704.81 459.362C704.81 459.362 719.22 437.002 731 430.082C731 430.082 733.81 444.172 718.48 460.822C718.48 460.822 712.48 468.692 710.86 469.772C710.86 469.772 720.86 465.632 735.39 473.772C735.39 473.772 729.39 480.772 717.32 478.912C712.44 478.172 709.47 478.462 707.67 479.072C706.846 479.354 706.136 479.897 705.649 480.619C705.162 481.341 704.923 482.202 704.97 483.072L705.23 488.702H697.76Z" fill="#6FCE5B"/>
<path d="M702.37 475.859C702.37 475.859 693.43 452.369 695.66 438.329C697.31 427.959 700.79 421.449 702.5 418.759C702.576 418.639 702.687 418.544 702.817 418.487C702.947 418.429 703.092 418.412 703.232 418.437C703.372 418.461 703.502 418.527 703.605 418.625C703.708 418.723 703.779 418.85 703.81 418.989C704.31 421.289 705.43 425.479 707.47 428.379C709.96 431.919 713.72 453.199 711.08 457.649C710.677 458.286 710.326 458.955 710.03 459.649C707.925 465.253 705.363 470.674 702.37 475.859Z" fill="#6FCE5B"/>
<path d="M718.64 545.049H683.94C683.335 545.049 682.752 544.824 682.304 544.417C681.857 544.01 681.577 543.451 681.52 542.849L676.52 490.289C676.488 489.952 676.526 489.612 676.633 489.291C676.74 488.969 676.913 488.674 677.141 488.424C677.369 488.173 677.647 487.973 677.957 487.836C678.266 487.699 678.601 487.629 678.94 487.629H722.37C722.859 487.63 723.344 487.732 723.791 487.931C724.239 488.129 724.64 488.419 724.97 488.781C725.299 489.143 725.549 489.571 725.704 490.035C725.859 490.5 725.916 490.991 725.87 491.479L721.02 542.849C720.965 543.445 720.692 544 720.252 544.406C719.813 544.813 719.238 545.041 718.64 545.049Z" fill="#395356"/>
<path d="M718.64 545.049C719.245 545.051 719.83 544.827 720.278 544.42C720.726 544.012 721.005 543.452 721.06 542.849L725.91 491.479C725.956 490.991 725.899 490.5 725.744 490.035C725.589 489.571 725.339 489.143 725.01 488.781C724.68 488.419 724.279 488.129 723.831 487.931C723.384 487.732 722.899 487.63 722.41 487.629H714.93C714.93 487.629 728.85 532.369 709.93 545.049H718.64Z" fill="#121E21"/>
<path d="M711.2 392.551C712.121 394.685 712.811 396.911 713.26 399.191C713.731 401.47 714.011 403.785 714.1 406.111C714.169 408.456 713.995 410.802 713.58 413.111C713.148 415.412 712.344 417.628 711.2 419.671C711.724 417.452 712.095 415.2 712.31 412.931C712.472 410.685 712.519 408.432 712.45 406.181C712.39 403.921 712.21 401.661 711.99 399.401C711.77 397.141 711.49 394.851 711.2 392.551Z" fill="#449935"/>
<path d="M716.05 395.91C716.566 396.681 716.907 397.554 717.05 398.47C717.185 399.392 717.155 400.329 716.96 401.24C716.745 402.181 716.306 403.055 715.68 403.79C715.057 404.513 714.214 405.012 713.28 405.21C713.785 404.537 714.23 403.821 714.61 403.07C714.925 402.362 715.173 401.625 715.35 400.87C715.66 399.33 715.79 397.72 716.05 395.91Z" fill="#449935"/>
<path d="M688.21 391.809C691.316 394.366 694.212 397.168 696.87 400.189C699.557 403.197 702.024 406.395 704.25 409.759C706.494 413.134 708.374 416.738 709.86 420.509C711.394 424.268 712.156 428.298 712.1 432.359C711.517 428.425 710.361 424.598 708.67 420.999C707.84 419.199 706.96 417.429 705.97 415.719C704.98 414.009 703.97 412.299 702.87 410.659C700.71 407.329 698.33 404.139 695.87 400.999C693.41 397.859 690.86 394.819 688.21 391.809Z" fill="#6FCE5B"/>
<path d="M695.65 392.191C696.27 392.797 696.786 393.5 697.18 394.271C697.58 395.029 697.889 395.831 698.1 396.661C698.322 397.502 698.413 398.373 698.37 399.241C698.378 400.147 698.079 401.028 697.52 401.741C697.448 400.933 697.3 400.133 697.08 399.351L696.5 397.061C696.058 395.47 695.774 393.839 695.65 392.191Z" fill="#6FCE5B"/>
<path d="M703.64 401C704.138 401.71 704.516 402.497 704.76 403.33C705.009 404.146 705.163 404.988 705.22 405.84C705.289 406.709 705.218 407.583 705.01 408.43C704.841 409.319 704.385 410.127 703.71 410.73C703.78 409.918 703.78 409.102 703.71 408.29L703.55 405.94C703.416 404.294 703.446 402.64 703.64 401Z" fill="#6FCE5B"/>
<path d="M690.63 403.741C691.513 403.459 692.433 403.31 693.36 403.301C694.276 403.277 695.191 403.355 696.09 403.531C697.005 403.707 697.891 404.014 698.72 404.441C699.604 404.839 700.331 405.517 700.79 406.371C699.977 406.043 699.133 405.802 698.27 405.651L695.76 405.151C694.92 404.981 694.08 404.791 693.22 404.581C692.338 404.362 691.473 404.081 690.63 403.741Z" fill="#6FCE5B"/>
<path d="M697 413.689C697.883 413.407 698.803 413.259 699.73 413.249C700.646 413.229 701.562 413.309 702.46 413.489C703.375 413.662 704.261 413.965 705.09 414.389C705.974 414.791 706.702 415.473 707.16 416.329C706.348 416.001 705.503 415.76 704.64 415.609L702.14 415.109C701.29 414.939 700.45 414.749 699.59 414.539C698.707 414.32 697.841 414.035 697 413.689Z" fill="#6FCE5B"/>
<path d="M725.37 408.691C724.251 409.699 723.245 410.825 722.37 412.051C721.468 413.254 720.634 414.506 719.87 415.801C718.328 418.386 716.99 421.088 715.87 423.881C714.67 426.641 713.75 429.521 712.77 432.391C712.35 433.851 711.89 435.291 711.45 436.751C711.01 438.211 710.64 439.681 710.16 441.151C710.27 439.621 710.47 438.151 710.66 436.571C710.85 434.991 711.22 433.571 711.53 432.051C711.84 430.531 712.3 429.051 712.76 427.601C713.22 426.151 713.76 424.671 714.34 423.251C714.92 421.831 715.62 420.431 716.34 419.051L717.51 417.051C717.89 416.381 718.36 415.751 718.79 415.111C719.22 414.471 719.72 413.861 720.19 413.251C720.66 412.641 721.19 412.081 721.76 411.531C722.81 410.404 724.027 409.446 725.37 408.691Z" fill="#6FCE5B"/>
<path d="M724.62 419.648C722.271 420.904 720.065 422.409 718.04 424.138C717.056 424.992 716.134 425.915 715.28 426.898C714.39 427.898 713.64 428.978 712.76 430.078C712.993 428.686 713.492 427.352 714.23 426.148C714.972 424.923 715.907 423.826 717 422.898C718.068 421.961 719.276 421.195 720.58 420.628C721.848 420.037 723.221 419.703 724.62 419.648Z" fill="#6FCE5B"/>
<path d="M715.68 414.051C716.16 414.584 716.524 415.21 716.75 415.891C716.977 416.535 717.108 417.209 717.14 417.891C717.168 418.6 717.08 419.31 716.88 419.991C716.686 420.69 716.314 421.328 715.8 421.841C715.68 421.101 715.65 420.471 715.6 419.841C715.55 419.211 715.52 418.591 715.49 417.971C715.46 417.351 715.49 416.711 715.49 416.061C715.499 415.387 715.563 414.715 715.68 414.051Z" fill="#6FCE5B"/>
<path d="M707.47 444.879C707.35 446.199 707.17 447.459 706.99 448.709L706.47 452.449C706.29 453.699 706.13 454.939 705.98 456.189C705.83 457.439 705.73 458.699 705.52 460.019C705.049 458.782 704.773 457.48 704.7 456.159C704.604 454.848 704.647 453.531 704.83 452.229C705.013 450.93 705.318 449.651 705.74 448.409C706.15 447.157 706.732 445.969 707.47 444.879Z" fill="#6FCE5B"/>
<path d="M681.34 441.148C684.642 442.835 687.6 445.124 690.06 447.898C692.563 450.648 694.71 453.702 696.45 456.988C697.23 458.678 698.1 460.318 698.71 462.078C699.02 462.948 699.38 463.808 699.64 464.698C699.9 465.588 700.15 466.478 700.4 467.368C700.654 468.256 700.857 469.158 701.01 470.068L701.51 472.788C701.75 474.608 701.89 476.448 702 478.278C701.52 476.498 701.17 474.708 700.72 472.948L699.96 470.328L699.6 468.998C699.48 468.558 699.31 468.138 699.16 467.708C698.86 466.858 698.56 465.998 698.28 465.148C698 464.298 697.59 463.478 697.28 462.638C696.65 460.948 695.79 459.358 695.01 457.738C693.331 454.559 691.355 451.546 689.11 448.738C686.852 445.889 684.241 443.339 681.34 441.148Z" fill="#449935"/>
<path d="M721.77 449.309C718.031 453.554 714.532 458.004 711.29 462.639L710.1 464.379L709 466.159C708.6 466.739 708.27 467.349 707.91 467.949C707.55 468.549 707.17 469.149 706.84 469.779C705.44 472.219 704.26 474.779 703.06 477.379C703.604 474.552 704.49 471.801 705.7 469.189C706.896 466.569 708.325 464.063 709.97 461.699C711.61 459.342 713.418 457.106 715.38 455.009C717.319 452.905 719.459 450.996 721.77 449.309Z" fill="#449935"/>
<path d="M700.79 434.238C702.429 437.577 703.655 441.103 704.44 444.738C704.63 445.648 704.85 446.558 705 447.478L705.44 450.238C705.65 452.088 705.84 453.948 705.9 455.808L705.95 457.208V458.608C705.95 459.538 705.95 460.468 705.88 461.398C705.7 463.258 705.61 465.128 705.25 466.958C704.683 470.633 703.703 474.233 702.33 477.688C703.077 474.09 703.635 470.455 704 466.798C704.355 463.166 704.455 459.514 704.3 455.868C704.166 452.224 703.792 448.593 703.18 444.998C702.61 441.365 701.812 437.771 700.79 434.238Z" fill="#449935"/>
<path d="M698.86 448.84C699.956 449.092 700.982 449.588 701.86 450.29C702.757 450.985 703.523 451.835 704.12 452.8C704.417 453.287 704.672 453.799 704.88 454.33C705.077 454.864 705.221 455.417 705.31 455.98C705.513 457.089 705.448 458.231 705.12 459.31C704.74 458.24 704.49 457.25 704.07 456.31C703.7 455.387 703.244 454.499 702.71 453.66C702.186 452.805 701.605 451.987 700.97 451.21C700.31 450.43 699.62 449.66 698.86 448.84Z" fill="#449935"/>
<path d="M698.86 457.512C699.919 457.798 700.895 458.329 701.71 459.062C702.551 459.779 703.25 460.647 703.77 461.622C704.305 462.59 704.644 463.653 704.77 464.752C704.928 465.834 704.843 466.937 704.52 467.982C704.15 466.982 703.9 465.982 703.52 465.052C703.173 464.146 702.765 463.264 702.3 462.412C701.327 460.663 700.174 459.021 698.86 457.512Z" fill="#449935"/>
<path d="M682.7 466.34C684.667 466.767 686.591 467.369 688.45 468.14C690.321 468.889 692.138 469.765 693.89 470.76C694.76 471.28 695.62 471.81 696.46 472.39C697.293 472.976 698.088 473.614 698.84 474.3C699.609 474.989 700.3 475.76 700.9 476.6C701.519 477.43 701.927 478.397 702.09 479.42C701.631 478.556 701.021 477.781 700.29 477.13C699.57 476.467 698.805 475.856 698 475.3C696.41 474.18 694.75 473.16 693 472.19C689.67 470.21 686.15 468.41 682.7 466.34Z" fill="#449935"/>
<path d="M724.13 474.211C722.152 473.795 720.147 473.517 718.13 473.381C716.173 473.25 714.207 473.34 712.27 473.651L710.84 473.921C710.38 474.071 709.92 474.221 709.45 474.351C708.987 474.492 708.535 474.669 708.1 474.881C707.645 475.05 707.206 475.261 706.79 475.511C705.04 476.489 703.429 477.696 702 479.101C702.26 478.661 702.53 478.211 702.82 477.781C703.081 477.328 703.397 476.908 703.76 476.531L704.85 475.381C705.25 475.041 705.69 474.741 706.11 474.381C707.869 473.155 709.883 472.342 712 472.001C714.09 471.68 716.22 471.711 718.3 472.091C720.353 472.449 722.327 473.167 724.13 474.211Z" fill="#449935"/>
<path d="M705.11 459.701C704.879 458.881 704.832 458.021 704.97 457.181C705.085 456.335 705.349 455.515 705.75 454.761C706.165 453.982 706.741 453.3 707.44 452.761C708.152 452.235 709.015 451.955 709.9 451.961C709.335 452.496 708.814 453.074 708.34 453.691C707.92 454.291 707.56 454.891 707.2 455.531C706.51 456.831 705.94 458.211 705.11 459.701Z" fill="#449935"/>
<path d="M420.49 90.7617H329.73V238.192H420.49V90.7617Z" fill="#EFEFEF"/>
<path d="M420.49 251.461H329.73V398.891H420.49V251.461Z" fill="#EFEFEF"/>
<path d="M523.14 90.7617H432.38V238.192H523.14V90.7617Z" fill="#EFEFEF"/>
<path d="M523.14 251.461H432.38V398.891H523.14V251.461Z" fill="#EFEFEF"/>
<path d="M317.85 90.7617H227.09V238.192H317.85V90.7617Z" fill="#EFEFEF"/>
<path d="M317.85 251.461H227.09V398.891H317.85V251.461Z" fill="#EFEFEF"/>
<path d="M311.29 422.449L301.65 541.519C301.664 542.035 301.485 542.538 301.149 542.93C300.813 543.322 300.342 543.575 299.83 543.639H297.44C296.9 543.564 296.409 543.285 296.068 542.859C295.728 542.433 295.564 541.893 295.61 541.349L293.25 468.099L311.29 422.449Z" fill="#BB5938"/>
<path d="M506.28 403.078H615.57C618.949 403.078 622.189 404.42 624.579 406.81C626.968 409.199 628.31 412.439 628.31 415.818V519.558H493.54V415.818C493.54 412.439 494.882 409.199 497.271 406.81C499.661 404.42 502.901 403.078 506.28 403.078Z" fill="#FFE6A6"/>
<path d="M506.28 403.078H554.19V459.878H493.54V415.818C493.54 412.439 494.882 409.199 497.271 406.81C499.661 404.42 502.901 403.078 506.28 403.078Z" fill="#FFC300"/>
<path d="M643.23 351.879H621.09C623.682 351.878 626.248 352.387 628.643 353.378C631.038 354.369 633.214 355.822 635.047 357.654C636.881 359.486 638.335 361.662 639.327 364.056C640.319 366.451 640.83 369.017 640.83 371.609V405.789H663V371.609C663 369.015 662.488 366.446 661.494 364.049C660.5 361.653 659.043 359.476 657.207 357.644C655.371 355.811 653.191 354.358 650.792 353.369C648.394 352.38 645.824 351.874 643.23 351.879Z" fill="#FFC300"/>
<path d="M643.23 351.879H621.09C623.682 351.878 626.248 352.387 628.643 353.378C631.038 354.369 633.214 355.822 635.047 357.654C636.881 359.486 638.335 361.662 639.327 364.056C640.319 366.451 640.83 369.017 640.83 371.609V405.789H663V371.609C663 369.015 662.488 366.446 661.494 364.049C660.5 361.653 659.043 359.476 657.207 357.644C655.371 355.811 653.191 354.358 650.792 353.369C648.394 352.38 645.824 351.874 643.23 351.879Z" fill="#EFB103"/>
<path d="M621.09 351.879H573.92C568.688 351.879 563.669 353.958 559.969 357.658C556.269 361.358 554.19 366.376 554.19 371.609V442.369H640.83V371.609C640.83 369.017 640.32 366.451 639.328 364.056C638.335 361.662 636.881 359.486 635.048 357.654C633.215 355.822 631.039 354.369 628.644 353.378C626.249 352.387 623.682 351.878 621.09 351.879Z" fill="#FFE6A6"/>
<path d="M505.09 403.078C508.153 403.078 511.091 404.295 513.257 406.461C515.423 408.627 516.64 411.565 516.64 414.628V519.558H493.54V414.628C493.54 411.565 494.757 408.627 496.923 406.461C499.089 404.295 502.027 403.078 505.09 403.078Z" fill="#FFE6A6"/>
<path d="M516.64 459.879H586.92" stroke="#FFC300" stroke-width="2" stroke-miterlimit="10"/>
<path d="M508.94 541.729C508.94 522.449 526.27 519.559 526.27 519.559H500.27V545.559H508.93L508.94 541.729Z" fill="#BC5B35"/>
<path d="M649.49 541.729C649.49 522.449 632.16 519.559 632.16 519.559H658.16V545.559H649.5L649.49 541.729Z" fill="#BC5B35"/>
<path d="M559.93 541.729C559.93 522.449 542.6 519.559 542.6 519.559H568.6V545.559H559.94L559.93 541.729Z" fill="#BC5B35"/>
<path d="M600.39 519.559H574.39C574.39 519.559 591.72 522.449 591.72 541.729V545.549H604.24V541.729C604.24 522.449 621.56 519.559 621.56 519.559H600.39Z" fill="#BC5B35"/>
<path d="M270.75 380C271.246 380.797 271.655 381.646 271.97 382.53C272.094 382.905 272.332 383.231 272.652 383.462C272.971 383.694 273.355 383.819 273.75 383.82H293.22C293.566 383.824 293.907 383.733 294.205 383.557C294.503 383.381 294.747 383.126 294.91 382.82C295.046 382.524 295.24 382.258 295.481 382.039C295.721 381.819 296.003 381.649 296.31 381.54C297.86 381 275.36 378.29 270.75 380Z" fill="#414042"/>
<path d="M270.82 375.251C270.82 375.251 268.68 375.401 268.32 377.001C267.96 378.601 264.5 382.331 268.32 382.251C272.14 382.171 274.22 380.111 282.15 381.641C290.08 383.171 292.83 383.871 297 382.411C301.17 380.951 303.31 380.411 303.31 380.411C303.31 380.411 303.46 376.101 297.21 374.901C290.96 373.701 270.82 375.251 270.82 375.251Z" fill="#B2563D"/>
<path d="M270.82 374.13C270.82 374.13 268.68 374.28 268.32 375.88C267.96 377.48 264.5 381.21 268.32 381.13C272.14 381.05 274.22 378.98 282.15 380.52C290.08 382.06 292.83 382.75 297 381.28C301.17 379.81 303.31 379.28 303.31 379.28C303.31 379.28 303.46 374.97 297.21 373.77C290.96 372.57 270.82 374.13 270.82 374.13Z" fill="#EE8460"/>
<path d="M281.46 361C281.46 361 280.88 365 286.91 367.73C292.94 370.46 289 361.76 281.46 361Z" fill="#A97C50"/>
<path d="M279 362.999C278.962 362.93 278.911 362.869 278.85 362.821C278.788 362.772 278.717 362.736 278.642 362.716C278.566 362.695 278.487 362.69 278.409 362.701C278.331 362.712 278.257 362.738 278.19 362.779C277.08 363.409 274.4 364.849 272.63 365.029C270.36 365.259 270.46 365.639 270.76 367.929C271.06 370.219 269.16 373.249 270.91 375.929C270.9 375.879 281.87 368.559 279 362.999Z" fill="#C49A6C"/>
<path d="M279.67 362.521C279.92 362.541 280.171 362.541 280.42 362.521C281.29 362.421 283.31 362.441 282.17 365.111C280.9 368.111 278.92 371.431 277.32 375.631C277.052 376.347 276.571 376.965 275.942 377.401C275.313 377.837 274.565 378.071 273.8 378.071C273.139 378.109 272.485 377.912 271.954 377.515C271.423 377.118 271.05 376.546 270.9 375.901C270.653 375.069 270.706 374.177 271.05 373.381C271.72 371.801 273.16 368.731 274.71 367.381C276.72 365.651 277.64 362.451 279.67 362.521Z" fill="#EAC9A9"/>
<path d="M280 362.57C280 362.57 276.51 368.72 274.67 370.26C272.83 371.8 272.75 373.79 273.97 374.48C275.19 375.17 281 363.39 280 362.57Z" fill="#A97C50"/>
<path d="M277.69 374C277.69 374 277.77 370.48 281.92 369.81C286.07 369.14 298.92 370.72 298.92 370.72C298.92 370.72 300.33 374.92 298.53 378.35C296.73 381.78 293.35 382.24 291.36 379.63C289.37 377.02 277.69 374 277.69 374Z" fill="#C49A6C"/>
<path d="M294.59 379.461C294.59 379.461 297.83 378.221 294.04 376.311C290.25 374.401 278.42 370.111 277.5 374.511C276.58 378.911 281.62 379.211 285.97 379.821C290.32 380.431 295.14 382.621 294.59 379.461Z" fill="#EAC9A9"/>
<path d="M281.8 360.492C281.8 360.492 282.61 358.762 289.02 360.492C295.43 362.222 301.84 364.582 301.66 367.142C301.48 369.702 278.44 363.292 281.8 360.492Z" fill="#EAC9A9"/>
<path d="M281.8 360.488C284.282 361.356 286.809 362.09 289.37 362.688C291.05 362.878 298.27 364.408 298.27 366.138C298.27 367.868 289.68 364.668 288.87 363.728C288.06 362.788 281.8 360.488 281.8 360.488Z" fill="#A97C50"/>
<path d="M281 369.748C281 369.748 279.31 369.628 281 367.648C282.69 365.668 281.79 364.708 290.13 364.788C298.47 364.868 301.8 363.788 302.79 367.138C303.78 370.488 299.7 371.808 297.41 370.968C295.12 370.128 281 369.748 281 369.748Z" fill="#C49A6C"/>
<path d="M294.59 379.458L288 377.218C288 377.218 288.31 374.988 283.84 374.508C279.37 374.028 277.37 375.648 281.31 376.858C283.399 377.546 285.573 377.947 287.77 378.048C287.77 378.048 294.16 379.668 294.59 379.458Z" fill="#A97C50"/>
<path d="M281 369.749C281 369.749 278.19 369.439 284.29 367.539C290.39 365.639 301.76 364.479 302.06 368.069C302.36 371.659 299.06 371.499 291.99 371.579C284.92 371.659 278.7 370.819 281 369.749Z" fill="#EAC9A9"/>
<path d="M281 369.749L290.86 368.539C290.86 368.539 298.63 365.859 299.24 367.919C299.85 369.979 290.86 369.279 290.86 369.279C290.86 369.279 282 369.999 281 369.749Z" fill="#A97C50"/>
<path d="M552.32 317.438C552.32 317.438 555.71 322.848 554.24 342.908L565.06 319.808L561.12 314.738L552.32 317.438Z" fill="#121E21"/>
<path d="M531.87 338.519C531.87 338.519 532.04 342.459 533.45 344.659C534.86 346.859 541.28 348.999 541.28 348.999L543.42 346.239C543.42 346.239 540.72 346.349 540.42 338.349C540.12 330.349 537.26 332.939 537.26 332.939L532.26 335.809L531.87 338.519Z" fill="#E0A4AB"/>
<path d="M522.47 333.181C523.31 331.641 525.91 325.961 529.47 309.311C529.52 309.089 529.65 308.894 529.834 308.761C530.018 308.629 530.244 308.568 530.47 308.591C531.83 308.811 546.68 314.961 546.68 314.961L547.41 315.411L536.4 340.221C536.329 340.378 536.205 340.505 536.05 340.582C535.895 340.658 535.719 340.679 535.55 340.641C533.42 340.131 526.17 338.151 522.55 334.161C522.438 334.025 522.371 333.858 522.356 333.683C522.342 333.508 522.382 333.333 522.47 333.181Z" fill="#FF6D55"/>
<path d="M544.32 320.429C544.209 320.431 544.1 320.407 544 320.359L530.2 313.639C530.11 313.597 530.03 313.538 529.964 313.465C529.898 313.391 529.847 313.306 529.814 313.213C529.781 313.119 529.768 313.021 529.774 312.922C529.78 312.823 529.806 312.727 529.85 312.639C529.936 312.46 530.09 312.323 530.277 312.257C530.465 312.191 530.671 312.203 530.85 312.289L544.65 319.009C544.804 319.081 544.928 319.203 545.002 319.356C545.076 319.509 545.095 319.682 545.057 319.848C545.018 320.013 544.924 320.16 544.789 320.264C544.655 320.368 544.489 320.422 544.32 320.419V320.429Z" fill="#FFB6B0"/>
<path d="M527 330.001C526.344 330.004 525.693 329.885 525.08 329.651C524.987 329.613 524.903 329.557 524.833 329.485C524.762 329.414 524.707 329.329 524.671 329.235C524.634 329.141 524.617 329.041 524.621 328.941C524.624 328.841 524.648 328.742 524.69 328.651C524.73 328.559 524.787 328.476 524.858 328.406C524.93 328.337 525.015 328.282 525.108 328.246C525.201 328.209 525.301 328.192 525.401 328.195C525.501 328.197 525.599 328.22 525.69 328.261C526.583 328.588 527.566 328.563 528.44 328.191C529.053 327.849 529.587 327.383 530.007 326.821C530.428 326.259 530.725 325.615 530.88 324.931C531.169 324.263 531.247 323.523 531.106 322.809C530.965 322.095 530.611 321.44 530.09 320.931C529.551 320.414 528.911 320.012 528.21 319.751C528.118 319.721 528.032 319.673 527.958 319.61C527.884 319.546 527.823 319.469 527.779 319.382C527.735 319.295 527.709 319.201 527.701 319.104C527.694 319.006 527.705 318.909 527.735 318.816C527.766 318.724 527.814 318.638 527.877 318.564C527.94 318.49 528.018 318.429 528.105 318.385C528.191 318.341 528.286 318.314 528.383 318.307C528.48 318.299 528.578 318.311 528.67 318.341C530.128 318.842 531.354 319.855 532.12 321.191C532.43 321.837 532.605 322.538 532.636 323.253C532.667 323.968 532.553 324.682 532.3 325.351C532.083 326.237 531.68 327.067 531.118 327.786C530.556 328.505 529.848 329.096 529.04 329.521C528.403 329.827 527.707 329.991 527 330.001Z" fill="#FFB6B0"/>
<path d="M542.67 328.058C542.593 327.879 542.481 327.718 542.34 327.584C542.199 327.45 542.032 327.346 541.85 327.278C533.64 324.078 533.5 323.078 533.5 323.078C532.09 320.268 538.41 322.538 538.41 322.538C540.44 323.185 542.393 324.057 544.23 325.138C544.264 325.155 544.303 325.159 544.34 325.149C544.377 325.139 544.409 325.117 544.431 325.085C544.453 325.054 544.463 325.016 544.459 324.978C544.455 324.94 544.437 324.905 544.41 324.878L541.53 322.488C537.67 319.218 536.87 317.288 536.97 316.188C536.993 316.006 537.063 315.833 537.174 315.687C537.284 315.54 537.432 315.425 537.601 315.353C537.77 315.281 537.954 315.255 538.137 315.277C538.319 315.299 538.492 315.368 538.64 315.478C542.4 318.044 545.976 320.871 549.34 323.938C549.844 324.425 550.222 325.027 550.441 325.693C550.661 326.358 550.715 327.067 550.6 327.758C549.821 332.266 549.794 336.872 550.52 341.388L542.32 347.718C538.65 343.558 539.15 338.518 539.08 336.718C539.08 336.288 538.84 334.598 538.3 334.328C536.697 333.559 535.022 332.95 533.3 332.508C533.1 332.484 532.909 332.417 532.739 332.31C532.57 332.203 532.426 332.059 532.319 331.89C532.211 331.72 532.143 331.529 532.119 331.33C532.095 331.13 532.116 330.928 532.18 330.738C533.48 329.068 538.24 331.668 540.11 331.998C540.54 332.078 541.03 331.608 540.79 331.238C540.381 330.812 539.892 330.472 539.35 330.238C538.967 330.038 538.569 329.867 538.16 329.728C536.102 329.106 534.008 328.612 531.89 328.248C531.36 328.118 531.41 327.008 532.04 326.788C536.04 325.388 540.12 327.528 541.28 328.018C541.55 328.128 541.99 328.488 542.28 328.508C542.31 328.498 542.9 328.648 542.67 328.058Z" fill="#FFCDC2"/>
<path d="M532.9 344.252C532.901 344.216 532.912 344.182 532.931 344.152C532.95 344.122 532.976 344.097 533.008 344.081C533.039 344.065 533.075 344.057 533.11 344.059C533.146 344.061 533.18 344.072 533.21 344.092C534.42 344.872 539.05 347.742 541.53 347.962C544.41 348.212 551.25 383.202 551.25 383.202L550.83 390.562C550.83 390.562 542.63 390.222 539.42 380.162C536.21 370.102 532.48 355.942 532.9 344.252Z" fill="#DF307E"/>
<path d="M524.42 502.249L530.1 510.689C530.47 511.239 535.51 515.819 534.78 537.749C534.64 541.679 537.78 546.489 541.66 546.019C548.66 545.179 547.66 526.109 552.52 511.419C553.2 509.369 552.3 507.079 550.92 505.419C550.551 504.947 550.083 504.562 549.55 504.289C546.87 503.069 539.55 496.679 538.19 494.739C536.83 492.799 524.42 502.249 524.42 502.249Z" fill="#8C858C"/>
<path d="M544.32 415.38L485.32 432.38C485.32 432.38 470.79 436.6 478.39 450.63L521.39 504.39C521.39 504.39 538.26 498.68 540.88 494.62L517.5 459.48L569.63 459.57L561.9 415.72L545.45 414.59L544.32 415.38Z" fill="#121E21"/>
<path d="M477.7 507.152C479.12 521.922 465.77 530.082 458.14 540.212C453.81 545.952 470.63 551.022 476.8 543.442C484.24 534.442 500.06 527.882 495.17 514.932C491.86 506.162 496.07 500.172 496.07 500.172L477.7 507.152Z" fill="#8C858C"/>
<path d="M525.56 428.849C525.56 428.849 548.56 425.969 561.74 414.309L594.87 426.309L598.87 431.059C598.87 431.059 600.31 464.379 558.5 459.059C550.18 458.012 541.823 457.345 533.43 457.059L503.58 456.059C503.506 456.056 503.432 456.068 503.363 456.095C503.294 456.121 503.231 456.161 503.178 456.212C503.125 456.264 503.082 456.325 503.053 456.393C503.025 456.461 503.01 456.535 503.01 456.609C503.01 461.239 501.71 475.669 496.39 508.609C496.39 508.609 489.29 511.999 475.26 507.259L477.42 501.979C477.42 501.979 475.92 460.459 480 444.259C480.401 442.666 481.199 441.2 482.32 439.999C483.677 438.53 485.455 437.517 487.41 437.099C496.3 435.219 522.3 429.589 525.56 428.849Z" fill="#22393D"/>
<path d="M560.21 328.521C560.21 328.521 539.59 341.521 549.84 386.891C551.28 393.291 550.02 400.021 548.15 406.301C547.217 409.461 545.932 412.507 544.32 415.381C544.32 415.381 583.84 417.901 598.83 431.061C598.939 431.162 599.07 431.234 599.213 431.273C599.356 431.311 599.506 431.314 599.65 431.281C599.858 431.238 600.044 431.125 600.179 430.962C600.313 430.798 600.388 430.593 600.39 430.381C600.39 428.041 600.18 420.381 596.14 408.771C594.892 405.247 594.461 401.486 594.88 397.771C596.18 386.511 598.39 362.181 599.26 352.361C601.9 322.601 588.53 317.711 588.53 317.711L584.98 317.281L560.21 328.521Z" fill="#F84D8A"/>
<path d="M559.71 316.678C559.71 316.678 562.9 319.448 562.52 322.778C562.459 323.249 562.328 323.707 562.13 324.138L560.21 328.518C560.21 328.518 573.79 335.518 586.08 317.778C581.444 315.361 577.479 311.833 574.54 307.508L567.88 307.238L563.76 312.148L559.71 316.678Z" fill="#E0A4AB"/>
<path d="M568.88 307.758C568.579 309.411 567.894 310.97 566.88 312.308C565.11 314.762 562.742 316.721 560 317.998C556.6 319.588 551.29 321.548 549.7 319.168C548.819 317.905 547.738 316.794 546.5 315.878C544.592 314.357 542.778 312.721 541.07 310.978C539.983 309.937 538.673 309.157 537.24 308.698C537.131 308.664 537.03 308.607 536.944 308.532C536.857 308.457 536.787 308.366 536.738 308.263C536.688 308.16 536.66 308.048 536.655 307.933C536.65 307.819 536.669 307.705 536.71 307.598C537.644 305.253 537.917 302.697 537.499 300.207C537.081 297.717 535.988 295.39 534.34 293.478L532.43 286.148L536.99 286.878L552.21 290.998L567.43 300.698L568.89 306.898L568.88 307.758Z" fill="#FFCDC2"/>
<path d="M534.29 293.439C534.29 293.439 517.39 270.559 551.65 261.769C551.65 261.769 578.36 255.009 588.05 282.959C597.74 310.909 608.05 329.279 600.79 353.109C600.79 353.109 599.26 354.299 599.26 350.579C599.26 346.859 599.2 326.929 588.42 318.849C586.16 317.169 576.79 313.789 575.85 309.239C575.85 309.239 578.47 331.239 563.85 340.349C563.85 340.349 574.66 321.599 566.74 305.349C564.323 300.535 560.317 296.702 555.4 294.499C550.79 292.389 543.86 289.749 537.65 289.549C537.65 289.549 534.94 289.469 534.35 287.349C533.964 289.359 533.943 291.422 534.29 293.439Z" fill="#414042"/>
<path d="M552.47 293.231L556.15 287.571C556.226 287.447 556.328 287.341 556.449 287.26C556.57 287.18 556.708 287.127 556.851 287.105C556.995 287.083 557.142 287.093 557.282 287.134C557.421 287.174 557.55 287.245 557.66 287.341L558.81 288.281C559.015 288.438 559.151 288.668 559.191 288.923C559.23 289.179 559.169 289.439 559.02 289.651L555.66 294.651L552.47 293.231Z" fill="#F84D8A"/>
<path d="M571.93 292.711C573.061 293.763 573.998 295.005 574.7 296.381C575.402 297.727 575.945 299.15 576.32 300.621C576.692 302.105 576.87 303.631 576.85 305.161C576.837 306.724 576.496 308.267 575.85 309.691C575.29 308.201 574.92 306.821 574.52 305.441C574.12 304.061 573.78 302.721 573.43 301.341C573.08 299.961 572.77 298.591 572.5 297.171C572.202 295.7 572.011 294.209 571.93 292.711Z" fill="#121E21"/>
<path d="M540.31 300.54C541.139 300.25 541.997 300.052 542.87 299.95L544.03 299.78C544.44 299.78 544.83 299.64 545.38 299.57C545.254 300.088 544.945 300.543 544.51 300.85C544.088 301.151 543.602 301.346 543.09 301.42C542.595 301.488 542.091 301.454 541.61 301.32C541.111 301.188 540.661 300.917 540.31 300.54Z" fill="#121E21"/>
<path d="M539.26 296.589C539.547 295.979 540.001 295.462 540.57 295.099C541.155 294.724 541.826 294.504 542.52 294.459C543.222 294.418 543.92 294.592 544.52 294.959C545.11 295.313 545.565 295.856 545.81 296.499C545.242 296.318 544.664 296.168 544.08 296.049C543.584 295.942 543.075 295.908 542.57 295.949C541.45 296.069 540.343 296.283 539.26 296.589Z" fill="#121E21"/>
<path d="M546.14 314.999C546.14 314.999 548.58 312.869 548.37 310.879Z" fill="#F75291"/>
<path d="M546.14 315.001C546.053 314.464 546.053 313.917 546.14 313.381C546.188 313.028 546.303 312.689 546.48 312.381C546.654 312.115 546.883 311.89 547.15 311.721C547.588 311.466 548.012 311.189 548.42 310.891C548.707 311.043 548.95 311.266 549.125 311.54C549.3 311.813 549.402 312.127 549.42 312.451C549.459 312.96 549.339 313.468 549.078 313.906C548.817 314.345 548.426 314.692 547.96 314.901C547.386 315.153 546.739 315.189 546.14 315.001Z" fill="#EF5EA0"/>
<path d="M539.59 348.999L550.83 340.719L560.37 367.879C560.444 368.093 560.583 368.279 560.768 368.41C560.952 368.541 561.173 368.612 561.4 368.612C561.626 368.612 561.847 368.541 562.032 368.41C562.217 368.279 562.356 368.093 562.43 367.879C565.72 358.719 575.91 331.049 579.99 328.799C579.99 328.799 582.27 326.179 586.99 327.189C591.71 328.199 594.43 340.289 591.81 346.379C591.81 346.379 580.23 381.039 566.87 389.379C557.15 395.469 553.79 391.129 552.68 388.319C552.02 386.649 551.33 384.999 550.54 383.389C548.24 378.599 543.77 367.869 539.59 348.999Z" fill="#F84D8A"/>
<path d="M552.66 346.07L557.48 357.21L559.9 362.76L562.38 368.27L560.54 368.4C561.54 364.63 562.75 360.94 564.05 357.27C564.68 355.43 565.4 353.63 566.11 351.82C566.82 350.01 567.59 348.22 568.42 346.45C570.018 342.882 571.911 339.453 574.08 336.2C575.174 334.558 576.434 333.034 577.84 331.65C578.545 330.954 579.326 330.34 580.17 329.82C581.002 329.289 581.941 328.947 582.92 328.82C581.122 329.473 579.559 330.646 578.43 332.19C577.241 333.678 576.174 335.26 575.24 336.92C573.379 340.27 571.71 343.722 570.24 347.26C569.51 349.03 568.8 350.82 568.1 352.6C567.4 354.38 566.76 356.2 566.1 358.01C565.44 359.82 564.81 361.63 564.2 363.45C563.59 365.27 562.95 367.1 562.39 368.92C562.319 369.099 562.197 369.253 562.04 369.364C561.884 369.475 561.698 369.539 561.506 369.547C561.314 369.555 561.124 369.508 560.958 369.411C560.792 369.314 560.657 369.172 560.57 369C559.78 367.13 559.05 365.24 558.33 363.34C557.61 361.44 556.93 359.54 556.27 357.62C555 353.84 553.73 350 552.66 346.07Z" fill="#DF307E"/>
<path d="M549.31 380.67C550.493 383.478 552.135 386.07 554.17 388.34C555.157 389.397 556.375 390.211 557.73 390.72C559.049 391.176 560.473 391.242 561.83 390.91C564.62 390.035 567.142 388.466 569.16 386.35L569.96 385.56L570.74 384.76C571.23 384.22 571.74 383.65 572.17 383.06C573.11 381.89 573.97 380.64 574.82 379.39C578.145 374.273 581.15 368.956 583.82 363.47C586.56 357.98 589.1 352.38 591.69 346.77C589.968 352.712 587.867 358.537 585.4 364.21L584.47 366.34L583.47 368.44C582.82 369.84 582.09 371.22 581.39 372.6C579.91 375.33 578.39 378.03 576.62 380.6C575.72 381.89 574.82 383.17 573.82 384.39C573.33 385.01 572.82 385.61 572.25 386.2L571.41 387.05L570.54 387.86C569.351 388.939 568.066 389.907 566.7 390.75C565.301 391.632 563.752 392.249 562.13 392.57C560.448 392.901 558.705 392.716 557.13 392.04C555.634 391.352 554.319 390.325 553.29 389.04C551.427 386.537 550.075 383.693 549.31 380.67Z" fill="#DF307E"/>
<path d="M249.19 518.012H114.42V414.262C114.423 410.885 115.766 407.647 118.155 405.26C120.544 402.873 123.783 401.532 127.16 401.532H236.45C239.829 401.532 243.07 402.874 245.459 405.263C247.848 407.652 249.19 410.893 249.19 414.272V518.012Z" fill="#FFE6A6"/>
<path d="M249.19 458.32H188.54V401.52H236.46C238.133 401.52 239.79 401.85 241.336 402.49C242.881 403.13 244.286 404.069 245.469 405.252C246.652 406.435 247.59 407.839 248.23 409.385C248.871 410.931 249.2 412.587 249.2 414.26V458.32H249.19Z" fill="#FFC300"/>
<path d="M99.4995 350.32H121.64C116.407 350.32 111.388 352.399 107.688 356.099C103.988 359.799 101.91 364.818 101.91 370.05V404.23H79.7695V370.05C79.7695 364.818 81.8482 359.799 85.5483 356.099C89.2484 352.399 94.2668 350.32 99.4995 350.32Z" fill="#FFC300"/>
<path d="M99.4995 350.32H121.64C116.407 350.32 111.388 352.399 107.688 356.099C103.988 359.799 101.91 364.818 101.91 370.05V404.23H79.7695V370.05C79.7695 364.818 81.8482 359.799 85.5483 356.099C89.2484 352.399 94.2668 350.32 99.4995 350.32Z" fill="#EFB103"/>
<path d="M121.64 350.32H168.81C171.402 350.319 173.969 350.828 176.364 351.819C178.758 352.81 180.935 354.263 182.768 356.096C184.601 357.928 186.055 360.103 187.047 362.498C188.039 364.892 188.55 367.458 188.55 370.05V440.81H101.91V370.05C101.91 364.818 103.989 359.799 107.689 356.099C111.389 352.399 116.407 350.32 121.64 350.32Z" fill="#FFE6A6"/>
<path d="M249.19 518.012H226.09V413.082C226.09 411.565 226.389 410.063 226.97 408.662C227.55 407.26 228.401 405.987 229.473 404.915C230.546 403.842 231.819 402.991 233.22 402.411C234.622 401.83 236.124 401.532 237.64 401.532C240.704 401.532 243.641 402.749 245.808 404.915C247.974 407.081 249.19 410.018 249.19 413.082V518.012Z" fill="#FFE6A6"/>
<path d="M226.09 458.32H155.82" stroke="#FFC300" stroke-width="2" stroke-miterlimit="10"/>
<path d="M270.17 493.439L267.75 520.819L251.26 520.399C251.26 520.399 249.86 487.809 250.26 487.199C250.66 486.589 270.17 493.439 270.17 493.439Z" fill="#FFCDC2"/>
<path d="M246.57 544.11C262.57 544.57 282.37 545.3 302.57 545.69C302.57 545.69 311.44 530.79 291.31 529.31C271.18 527.83 272 516.48 272 516.48C265.76 515.95 257.88 515.98 248.26 515.18L246.57 544.11Z" fill="#1B2D37"/>
<path d="M307.77 492.359L324.77 513.949L312.5 524.999C312.5 524.999 289.13 502.199 289 501.469C288.87 500.739 307.77 492.359 307.77 492.359Z" fill="#FFCDC2"/>
<path d="M322.4 543.642C334.6 533.212 349.72 520.482 364.95 507.222C364.95 507.222 361.52 490.222 345.61 502.642C329.7 515.062 322.72 506.062 322.72 506.062C317.72 509.862 311.91 515.182 304.25 521.062L322.4 543.642Z" fill="#1B2D37"/>
<path d="M212.85 359.719C212.85 359.719 216.61 363.799 225.78 363.899C234.95 363.999 251.84 364.609 255.91 363.079C259.98 361.549 242.47 371.019 232.09 371.639C221.71 372.259 210.51 374.229 211.93 368.349C213.35 362.469 212.85 359.719 212.85 359.719Z" fill="#E0A4AB"/>
<path d="M214.17 366.75C214.17 366.75 235.6 367.69 244.69 364.56C253.78 361.43 258.3 358.64 260.95 359.29C264.378 359.967 267.517 361.673 269.95 364.18C271.95 366.34 272.82 370.08 270.95 370.63C270.95 371.44 269.95 371.63 269.35 371.28C269.09 372.12 267.55 372.1 267.09 371.28C265.92 371.76 265.4 369.45 263.57 368.28C258.91 365.28 257.68 369.96 254.47 372.02C251.26 374.08 244.16 374.39 238.74 376.15C233.32 377.91 220.19 383.25 215.74 383.02L214.17 366.75Z" fill="#FFCDC2"/>
<path d="M195.15 414.499C195.15 414.499 239.71 412.649 253.55 415.549C265.73 418.099 269.75 420.179 272.12 445.079C274.31 468.129 276.36 482.079 274.69 497.939C274.69 497.939 260.33 501.699 245.69 495.939L244.27 448.999L195.15 414.499Z" fill="#22393D"/>
<path d="M192.13 399.859C192.13 399.859 193.61 410.369 198.65 411.139C203.69 411.909 243.44 420.649 256.27 430.829C269.1 441.009 298.73 470.949 317.88 493.689C317.88 493.689 304.13 507.739 291.88 509.569C291.88 509.569 245.04 460.569 239.23 459.959C233.42 459.349 149.33 466.829 137.78 436.959C128.54 412.999 192.13 399.859 192.13 399.859Z" fill="#121E21"/>
<path d="M162.58 311.25C162.58 311.25 147.25 317.78 145.35 319.36C142.4 321.8 133.35 381.85 134.22 398.65C135.09 415.45 132.42 438 142.8 443.8C142.8 443.8 151.01 410.1 195.15 408.42C195.15 408.42 189.02 398.23 192.23 382.81C195.44 367.39 169.66 340.38 170.34 333C171.02 325.62 162.58 311.25 162.58 311.25Z" fill="#A7C3EA"/>
<path d="M190.86 349.141C190.86 349.141 194.86 356.971 205.98 359.211L206.09 368.351C206.09 368.351 186.7 359.851 187.8 355.241C188.9 350.631 190.86 349.141 190.86 349.141Z" fill="#96B4E0"/>
<path d="M214.38 363.39L213.76 357.18H205.52V367.46H214.38V363.39Z" fill="#688EBA"/>
<path d="M179.21 315.82L188.37 323.4L185.21 329C185.21 329 177 322.65 175.95 322.89L179.21 315.82Z" fill="#96B4E0"/>
<path d="M185.21 312.479C185.21 312.479 178.94 319.389 179.21 326.569C179.21 326.569 165.4 320.039 164.1 310.469L179.68 286.469C179.68 286.469 199.99 291.209 194.68 301.469C189.37 311.729 185.21 312.479 185.21 312.479Z" fill="#E0A4AB"/>
<path d="M218.55 286.729C218.55 286.729 207.65 302.879 209.29 308.379C210.93 313.879 210.1 314.379 206.54 313.909C206.54 313.909 202.36 322.969 196.54 322.359C190.72 321.749 183.54 315.939 181.78 310.359C180.785 307.218 179.967 304.023 179.33 300.789C179.33 300.789 174.5 298.909 176.33 292.289C178.16 285.669 185.03 270.139 197.33 272.789C209.63 275.439 218.33 274.009 219.43 279.099C220.53 284.189 218.55 286.729 218.55 286.729Z" fill="#FFCDC2"/>
<path d="M158.84 309.07C158.84 309.07 144.18 309.7 136.84 328.96C126.64 355.57 130.19 436.56 140.84 442.42C140.84 442.42 149.84 407.5 193.96 405.82C193.96 405.82 189.37 395.41 192.58 379.98C195.79 364.55 168.48 337.17 169.16 329.79C169.84 322.41 158.84 309.07 158.84 309.07Z" fill="#12B89F"/>
<path d="M187.76 395.099L191.5 387.599C191.5 387.599 195.56 338.029 184.85 328.599C174.14 319.169 170.85 310.149 160.2 309.149C149.39 308.149 141.45 326.219 141.45 326.219L187.76 395.099Z" fill="#12B89F"/>
<path d="M176.4 297.819C176.4 297.819 171.72 301.689 172.53 305.049C172.53 305.049 162.93 298.129 164.25 283.229C165.36 270.749 171.41 263.109 181.69 262.899C181.69 262.899 197.98 252.899 211.93 263.719C225.88 274.539 226.39 294.459 211.93 297.209C211.93 297.209 217.53 287.439 217.02 282.859C217.02 282.859 216.51 298.029 199.1 295.479C199.1 295.479 207.96 288.149 208.57 284.379C208.57 284.379 204.73 290.179 195.44 289.979C190.86 289.889 182.61 294.359 184.54 299.039C184.54 299.039 182.2 294.159 183.12 290.799C184.04 287.439 173.55 288.249 176.4 297.819Z" fill="#414042"/>
<path d="M173.29 324.552C173.29 324.552 154.15 310.392 145.65 327.752C138.71 341.942 152.16 362.572 155.98 367.962C156.074 368.096 156.203 368.202 156.353 368.269C156.503 368.336 156.668 368.36 156.831 368.341C156.994 368.322 157.149 368.258 157.279 368.158C157.409 368.058 157.509 367.924 157.57 367.772L164.57 350.362L173.29 324.552Z" fill="#A7C3EA"/>
<path d="M210 364.248C210 364.248 195.49 359.668 187.39 348.678C179.29 337.688 170.29 316.448 155.17 321.038C141.27 325.248 149.96 354.108 155.17 362.538C155.265 362.695 155.405 362.819 155.572 362.895C155.738 362.971 155.924 362.995 156.104 362.963C156.285 362.932 156.451 362.847 156.583 362.719C156.714 362.592 156.804 362.428 156.84 362.248L158.72 353.108C158.72 353.108 179.03 379.368 187.13 383.648C195.23 387.928 212.02 384.868 212.02 384.868L210 364.248Z" fill="#CCE0FF"/>
<path d="M215.49 362.569C215.49 362.569 216.61 384.129 218.14 385.929C218.14 385.929 210.71 387.619 208.06 386.399C208.06 386.399 205.11 366.039 206.23 362.059L215.49 362.569Z" fill="#A7C3EA"/>
<path d="M209.64 298.13C209.613 297.777 209.509 297.434 209.337 297.125C209.164 296.816 208.926 296.548 208.64 296.34C208.045 295.885 207.307 295.658 206.56 295.7C205.847 295.747 205.166 296.012 204.61 296.46C204.355 296.676 204.127 296.921 203.93 297.19C203.755 297.486 203.617 297.801 203.52 298.13C203.856 298.125 204.19 298.089 204.52 298.02C204.82 298.02 205.09 297.93 205.34 297.89C205.85 297.81 206.34 297.75 206.7 297.72C207.696 297.685 208.691 297.824 209.64 298.13Z" fill="#414042"/>
<path d="M207.049 303.62C207.363 302.677 207.227 301.782 206.745 301.622C206.263 301.461 205.618 302.095 205.303 303.038C204.989 303.982 205.125 304.876 205.607 305.037C206.089 305.198 206.735 304.563 207.049 303.62Z" fill="#414042"/>
<path d="M204.1 315.669C203.53 315.069 200.31 313.909 198.95 313.199C198.77 314.009 199.09 316.699 201.11 317.339C201.729 317.484 202.379 317.394 202.934 317.085C203.488 316.776 203.908 316.271 204.11 315.669H204.1Z" fill="#DD6680"/>
<path d="M165.36 305.648L182.08 319.358L178.49 325.668C178.49 325.668 162.71 311.048 161.62 310.398L165.36 305.648Z" fill="#CCE0FF"/>
<path d="M271 370.14C270.974 369.008 270.712 367.894 270.23 366.87C269.752 365.814 269.033 364.886 268.13 364.16C267.229 363.479 266.257 362.899 265.23 362.43C264.211 361.968 263.14 361.633 262.04 361.43C263.04 361.89 264.04 362.43 264.99 362.93C265.94 363.463 266.852 364.061 267.72 364.72C268.553 365.387 269.249 366.208 269.77 367.14C270.305 368.084 270.718 369.092 271 370.14Z" fill="#E0A4AB"/>
<path d="M269.34 370.78C269.324 369.788 269.113 368.81 268.72 367.9C268.325 366.967 267.724 366.136 266.96 365.47C266.197 364.839 265.361 364.302 264.47 363.87C263.592 363.428 262.657 363.111 261.69 362.93C262.558 363.351 263.403 363.818 264.22 364.33C265.023 364.828 265.791 365.379 266.52 365.98C267.221 366.587 267.807 367.315 268.25 368.13C268.705 368.973 269.07 369.861 269.34 370.78Z" fill="#E0A4AB"/>
<path d="M267 370.839C267.031 370.098 266.905 369.358 266.63 368.669C266.372 367.959 265.967 367.311 265.44 366.769C264.904 366.257 264.294 365.829 263.63 365.499C262.992 365.122 262.271 364.909 261.53 364.879C262.182 365.159 262.797 365.518 263.36 365.949C263.927 366.339 264.462 366.774 264.96 367.249C265.9 368.278 266.597 369.505 267 370.839Z" fill="#E0A4AB"/>
<path d="M181.22 297.999C180.929 298.204 180.573 298.294 180.22 298.249C179.874 298.162 179.568 297.961 179.35 297.679C178.894 297.099 178.554 296.437 178.35 295.729C178.12 295.054 178.052 294.335 178.15 293.629C178.236 292.95 178.575 292.329 179.1 291.889C179.323 291.673 179.61 291.534 179.918 291.495C180.226 291.455 180.539 291.516 180.81 291.669C181.319 292.122 181.628 292.758 181.67 293.439C181.801 294.152 181.739 294.888 181.49 295.569C181.37 295.889 181.17 296.259 180.86 296.299C180.55 296.339 180.27 295.939 180.09 295.629C180.153 295.811 180.236 295.986 180.34 296.149C180.395 296.24 180.471 296.317 180.561 296.374C180.652 296.431 180.754 296.467 180.86 296.479C180.969 296.475 181.077 296.449 181.177 296.403C181.277 296.356 181.366 296.29 181.44 296.209C181.583 296.06 181.704 295.892 181.8 295.709C182.132 294.98 182.266 294.176 182.19 293.379C182.161 292.976 182.077 292.579 181.94 292.199C181.8 291.777 181.535 291.407 181.18 291.139C180.796 290.87 180.323 290.759 179.86 290.829C179.424 290.9 179.014 291.083 178.67 291.359C178.026 291.916 177.612 292.693 177.51 293.539C177.427 294.346 177.547 295.16 177.86 295.909C178.134 296.652 178.556 297.333 179.1 297.909C179.391 298.197 179.772 298.378 180.18 298.419C180.373 298.426 180.565 298.393 180.745 298.32C180.924 298.248 181.086 298.138 181.22 297.999Z" fill="#E0A4AB"/>
<path d="M181.81 295.261C181.88 294.992 181.88 294.71 181.81 294.441C181.768 294.293 181.689 294.159 181.58 294.051C181.455 293.942 181.303 293.869 181.14 293.841C180.825 293.813 180.511 293.898 180.254 294.082C179.998 294.265 179.815 294.535 179.74 294.841C179.625 295.42 179.735 296.021 180.05 296.521C180.167 296.778 180.345 297.004 180.567 297.178C180.79 297.352 181.052 297.47 181.33 297.521C180.903 297.254 180.582 296.848 180.42 296.371C180.216 295.942 180.15 295.46 180.23 294.991C180.277 294.787 180.387 294.602 180.545 294.464C180.703 294.326 180.901 294.241 181.11 294.221C181.5 294.171 181.74 294.751 181.81 295.261Z" fill="#E0A4AB"/>
<path d="M498.53 403.792L457.85 410.602L491.57 543.702C491.638 543.921 491.656 544.153 491.623 544.381C491.59 544.609 491.507 544.826 491.38 545.017C491.252 545.209 491.084 545.37 490.887 545.488C490.69 545.606 490.469 545.679 490.24 545.702H488.62C488.339 545.693 488.067 545.6 487.841 545.434C487.614 545.268 487.443 545.037 487.35 544.772L439 422.452H311.29L263 544.792C262.908 545.055 262.738 545.285 262.513 545.451C262.289 545.617 262.019 545.711 261.74 545.722H260.11C259.882 545.698 259.662 545.623 259.466 545.505C259.27 545.386 259.102 545.225 258.975 545.034C258.848 544.843 258.765 544.627 258.731 544.4C258.697 544.173 258.714 543.941 258.78 543.722L292.5 410.622L251.82 403.812C251.06 403.637 250.385 403.201 249.914 402.579C249.442 401.958 249.204 401.191 249.24 400.412V390.512H501.11V400.412C501.141 401.188 500.901 401.95 500.43 402.567C499.959 403.184 499.287 403.617 498.53 403.792Z" fill="#EE8560"/>
<path d="M0 549.77H763.75V544.77H0V549.77Z" fill="#DEDEDE"/>
<path d="M429.39 403.078H320.92C320.422 403.078 320.02 403.481 320.02 403.978V411.858C320.02 412.355 320.422 412.758 320.92 412.758H429.39C429.887 412.758 430.29 412.355 430.29 411.858V403.978C430.29 403.481 429.887 403.078 429.39 403.078Z" fill="#BB5938"/>
<path d="M439 422.449L448.64 541.519C448.628 542.035 448.808 542.537 449.144 542.928C449.48 543.319 449.948 543.573 450.46 543.639H452.85C453.39 543.564 453.881 543.285 454.222 542.859C454.562 542.433 454.726 541.893 454.68 541.349L456.46 466.649L439 422.449Z" fill="#BB5938"/>
<path d="M532.16 394.108H218.16C217.972 394.091 217.791 394.032 217.629 393.936C217.467 393.841 217.328 393.71 217.223 393.554C217.118 393.398 217.049 393.22 217.02 393.034C216.992 392.848 217.005 392.658 217.06 392.478L219.06 383.928C219.218 383.086 219.656 382.323 220.302 381.76C220.948 381.198 221.764 380.87 222.62 380.828H527.62C528.475 380.87 529.292 381.198 529.937 381.76C530.583 382.323 531.021 383.086 531.18 383.928L533.18 392.478C533.233 392.652 533.249 392.836 533.225 393.017C533.202 393.198 533.139 393.372 533.043 393.527C532.946 393.681 532.817 393.813 532.665 393.914C532.512 394.014 532.34 394.08 532.16 394.108Z" fill="#BB5938"/>
<path d="M368 376.159V377.879C368 378.121 368.096 378.354 368.266 378.526C368.436 378.698 368.668 378.796 368.91 378.799H374.91C375.152 378.799 375.385 378.894 375.557 379.065C375.729 379.235 375.828 379.467 375.83 379.709V380.289C375.83 380.408 375.854 380.527 375.899 380.637C375.945 380.748 376.012 380.848 376.097 380.932C376.181 381.017 376.282 381.084 376.392 381.13C376.502 381.175 376.621 381.199 376.74 381.199H400.62C400.862 381.199 401.095 381.103 401.267 380.933C401.439 380.763 401.538 380.531 401.54 380.289C401.54 380.047 401.636 379.814 401.806 379.642C401.976 379.47 402.208 379.371 402.45 379.369H407.36C407.602 379.369 407.835 379.273 408.007 379.103C408.179 378.933 408.278 378.701 408.28 378.459V376.219C408.28 375.98 408.187 375.75 408.021 375.579C407.855 375.407 407.629 375.307 407.39 375.299C402.39 375.159 377.14 374.509 368.8 375.239C368.577 375.266 368.371 375.375 368.223 375.545C368.076 375.715 367.996 375.934 368 376.159Z" fill="#B2563D"/>
<path d="M388.14 378.361C399.269 378.361 408.29 377.004 408.29 375.331C408.29 373.657 399.269 372.301 388.14 372.301C377.012 372.301 367.99 373.657 367.99 375.331C367.99 377.004 377.012 378.361 388.14 378.361Z" fill="#EE8460"/>
<path d="M372.67 368V372.76C372.724 373.588 373.103 374.361 373.726 374.91C374.348 375.459 375.162 375.739 375.99 375.69H400.83C401.658 375.739 402.472 375.459 403.094 374.91C403.716 374.361 404.096 373.588 404.15 372.76V368H372.67Z" fill="#FFB966"/>
<path d="M372 369.218C372 369.218 368 370.028 370.74 372.708C370.74 372.708 372.23 373.308 372.74 372.338C373.466 372.67 374.275 372.777 375.063 372.645C375.851 372.514 376.581 372.149 377.16 371.598C377.673 371.539 378.192 371.629 378.655 371.858C379.118 372.087 379.505 372.445 379.77 372.888C379.77 372.888 381.7 371.368 383.33 372.338C383.33 372.338 386.23 370.918 385.93 372.888C385.93 372.888 389.14 370.718 392.22 371.458C395.3 372.198 396.34 371.078 396.86 372.338C397.191 372.001 397.616 371.771 398.08 371.679C398.543 371.586 399.024 371.635 399.46 371.818C399.916 371.979 400.409 372.001 400.877 371.883C401.346 371.765 401.769 371.511 402.094 371.154C402.42 370.796 402.632 370.351 402.706 369.874C402.78 369.396 402.712 368.907 402.51 368.468C401.4 366.088 376.28 364.908 372 369.218Z" fill="#6FCE5B"/>
<path d="M371.59 364.609C370.881 364.892 370.253 365.344 369.762 365.927C369.27 366.509 368.929 367.204 368.77 367.949C368.77 367.949 371.82 367.509 371.96 369.219C372.318 369.118 372.695 369.105 373.059 369.182C373.423 369.259 373.763 369.423 374.05 369.659C374.794 369.745 375.48 370.101 375.98 370.659C376.8 371.659 378.36 370.219 379.4 370.219C380.44 370.219 383.26 372.299 383.26 372.299C383.26 372.299 383.71 369.579 382.37 368.669C383.729 368.927 384.976 369.597 385.94 370.589C387.87 372.369 388.38 371.929 389.13 370.139C390.13 370.983 391.391 371.456 392.7 371.479C395.23 371.699 395.7 369.029 397.31 369.249C398.92 369.469 399.31 371.329 399.31 371.329C399.912 371.296 400.496 371.107 401.004 370.781C401.512 370.455 401.928 370.003 402.21 369.469L403.84 370.739C403.84 370.739 406.84 370.509 407.93 372.299C407.963 371.593 407.818 370.89 407.506 370.255C407.195 369.621 406.728 369.075 406.15 368.669C404.15 367.239 401.69 365.089 401.69 365.089L371.59 364.609Z" fill="#5CC144"/>
<path d="M373.57 359.599C373.57 359.599 372.42 359.549 372.67 361.089C372.67 361.089 371.67 361.139 371.89 362.769C371.89 362.769 369.46 366.339 373.57 367.479C373.57 367.479 376.57 367.279 377.57 368.129C378.57 368.979 380.84 368.419 383.42 367.879C386 367.339 387.52 369.249 388.42 368.559C389.32 367.869 393.61 366.339 395.34 367.979C395.34 367.979 396.34 366.589 397.34 367.189C398.34 367.789 400.34 366.139 400.34 366.139C400.34 366.139 400.99 368.969 404.11 367.279C404.11 367.279 404.21 365.999 405.05 365.999C405.89 365.999 405.6 364.709 406.54 364.359C407.48 364.009 407.18 361.879 404.81 361.139C404.887 360.933 404.917 360.713 404.9 360.494C404.882 360.276 404.816 360.063 404.708 359.873C404.599 359.682 404.45 359.517 404.27 359.391C404.091 359.264 403.886 359.178 403.67 359.139C403.67 359.139 403.57 355.819 400.39 355.569C397.21 355.319 376.6 356.879 373.57 359.599Z" fill="#EF8560"/>
<path d="M373.57 358.558C373.57 358.558 396.07 358.358 403.51 357.318C403.51 357.318 406.88 352.468 398.2 350.188C398.2 350.188 395.2 345.778 388.39 349.638C387.221 349.611 386.053 349.746 384.92 350.038C384.92 350.038 380.92 346.968 375.71 351.618C370.5 356.268 373.57 358.558 373.57 358.558Z" fill="#F79A34"/>
<path d="M373.57 359.601C373.57 359.601 396.07 359.401 403.51 358.361C403.51 358.361 406.88 353.511 398.2 351.231C398.2 351.231 395.2 346.821 388.39 350.681C387.221 350.654 386.053 350.789 384.92 351.081C384.92 351.081 380.92 348.011 375.71 352.661C370.5 357.311 373.57 359.601 373.57 359.601Z" fill="#FFB966"/>
<path d="M384.92 351.078L383.06 352.078C382.44 352.428 381.82 352.758 381.22 353.078C380.62 353.398 380.01 353.798 379.43 354.188C378.843 354.583 378.279 355.01 377.74 355.468C378.619 354.328 379.726 353.385 380.99 352.698C382.228 351.997 383.548 351.452 384.92 351.078Z" fill="#A97C50"/>
<path d="M388.39 350.681C388.817 350.661 389.244 350.701 389.66 350.801C390.094 350.892 390.498 351.095 390.83 351.391C391.003 351.55 391.14 351.745 391.23 351.963C391.319 352.181 391.36 352.415 391.35 352.651C391.344 352.878 391.307 353.103 391.24 353.321C391.17 353.531 391.1 353.731 391.02 353.931C390.693 354.722 390.255 355.463 389.72 356.131C389.157 356.744 388.707 357.451 388.39 358.221C388.549 357.384 388.91 356.598 389.44 355.931C389.903 355.253 390.295 354.529 390.61 353.771C390.778 353.414 390.886 353.032 390.93 352.641C390.944 352.46 390.921 352.278 390.862 352.106C390.804 351.934 390.711 351.776 390.59 351.641C390.307 351.36 389.965 351.145 389.59 351.011C389.202 350.859 388.8 350.748 388.39 350.681Z" fill="#A97C50"/>
<path d="M398.2 351.229C396.96 351.369 395.73 351.449 394.51 351.609C393.908 351.685 393.31 351.792 392.72 351.929C392.424 352.002 392.136 352.103 391.86 352.229C391.578 352.346 391.33 352.531 391.14 352.769C391.271 352.474 391.482 352.221 391.75 352.039C392.02 351.863 392.308 351.716 392.61 351.599C393.209 351.391 393.83 351.247 394.46 351.169C395.703 351.009 396.962 351.029 398.2 351.229Z" fill="#A97C50"/>
<path d="M390.79 353.909C390.966 353.62 391.2 353.37 391.477 353.176C391.754 352.981 392.068 352.846 392.4 352.779C393.066 352.641 393.756 352.683 394.4 352.899C394.719 352.997 395.03 353.12 395.33 353.269C395.62 353.439 395.92 353.579 396.19 353.769C396.46 353.959 396.73 354.149 396.97 354.369C397.21 354.589 397.46 354.809 397.69 355.039C397.4 354.889 397.13 354.709 396.85 354.539C396.57 354.369 396.28 354.229 396.01 354.069C395.74 353.909 395.44 353.789 395.15 353.649C394.864 353.519 394.57 353.409 394.27 353.319C393.682 353.118 393.057 353.05 392.44 353.119C392.135 353.152 391.837 353.237 391.56 353.369C391.273 353.501 391.012 353.684 390.79 353.909Z" fill="#A97C50"/>
<path d="M377.74 353.22C377.95 353.22 378.12 353.019 378.12 352.77C378.12 352.522 377.95 352.32 377.74 352.32C377.53 352.32 377.36 352.522 377.36 352.77C377.36 353.019 377.53 353.22 377.74 353.22Z" fill="#A97C50"/>
<path d="M378.12 357.041C378.33 357.041 378.5 356.839 378.5 356.591C378.5 356.342 378.33 356.141 378.12 356.141C377.91 356.141 377.74 356.342 377.74 356.591C377.74 356.839 377.91 357.041 378.12 357.041Z" fill="#A97C50"/>
<path d="M382.2 355.252C382.41 355.252 382.58 355.05 382.58 354.802C382.58 354.553 382.41 354.352 382.2 354.352C381.99 354.352 381.82 354.553 381.82 354.802C381.82 355.05 381.99 355.252 382.2 355.252Z" fill="#A97C50"/>
<path d="M387.39 355.49C387.6 355.49 387.77 355.288 387.77 355.04C387.77 354.791 387.6 354.59 387.39 354.59C387.18 354.59 387.01 354.791 387.01 355.04C387.01 355.288 387.18 355.49 387.39 355.49Z" fill="#A97C50"/>
<path d="M394.85 355.048C395.06 355.048 395.23 354.847 395.23 354.598C395.23 354.35 395.06 354.148 394.85 354.148C394.64 354.148 394.47 354.35 394.47 354.598C394.47 354.847 394.64 355.048 394.85 355.048Z" fill="#A97C50"/>
<path d="M395.81 352.439C396.02 352.439 396.19 352.238 396.19 351.989C396.19 351.741 396.02 351.539 395.81 351.539C395.6 351.539 395.43 351.741 395.43 351.989C395.43 352.238 395.6 352.439 395.81 352.439Z" fill="#A97C50"/>
<path d="M393.87 350.24C394.08 350.24 394.25 350.038 394.25 349.79C394.25 349.541 394.08 349.34 393.87 349.34C393.66 349.34 393.49 349.541 393.49 349.79C393.49 350.038 393.66 350.24 393.87 350.24Z" fill="#A97C50"/>
<path d="M400.73 353.22C400.939 353.22 401.11 353.019 401.11 352.77C401.11 352.522 400.939 352.32 400.73 352.32C400.52 352.32 400.35 352.522 400.35 352.77C400.35 353.019 400.52 353.22 400.73 353.22Z" fill="#A97C50"/>
<path d="M389.99 352.592C390.283 352.592 390.52 352.314 390.52 351.972C390.52 351.629 390.283 351.352 389.99 351.352C389.697 351.352 389.46 351.629 389.46 351.972C389.46 352.314 389.697 352.592 389.99 352.592Z" fill="#A97C50"/>
<path d="M385.94 353.209C386.239 353.209 386.48 352.931 386.48 352.589C386.48 352.246 386.239 351.969 385.94 351.969C385.642 351.969 385.4 352.246 385.4 352.589C385.4 352.931 385.642 353.209 385.94 353.209Z" fill="#A97C50"/>
<path d="M382.58 351.13C382.873 351.13 383.11 350.929 383.11 350.68C383.11 350.432 382.873 350.23 382.58 350.23C382.287 350.23 382.05 350.432 382.05 350.68C382.05 350.929 382.287 351.13 382.58 351.13Z" fill="#A97C50"/>
<path d="M373.23 364C373.133 364.115 373.043 364.235 372.96 364.36C372.889 364.465 372.845 364.585 372.83 364.71C372.83 364.81 372.83 364.85 372.96 364.92C373.007 364.951 373.058 364.978 373.11 365L373.29 365.06L373.85 365.27L373.29 365.47C373.116 365.534 372.948 365.614 372.79 365.71C372.64 365.81 372.53 365.92 372.53 366.01C372.53 366.1 372.64 366.28 372.77 366.42C372.9 366.56 373.07 366.68 373.23 366.83C373.017 366.787 372.811 366.713 372.62 366.61C372.504 366.556 372.402 366.477 372.32 366.378C372.239 366.279 372.181 366.164 372.15 366.04C372.14 365.887 372.183 365.736 372.27 365.61C372.346 365.506 372.441 365.418 372.55 365.35C372.738 365.218 372.948 365.12 373.17 365.06V365.47C373.007 365.412 372.855 365.328 372.72 365.22C372.637 365.153 372.575 365.064 372.542 364.963C372.508 364.862 372.504 364.753 372.53 364.65C372.586 364.481 372.695 364.334 372.84 364.23C372.957 364.133 373.088 364.056 373.23 364Z" fill="#C65436"/>
<path d="M374.51 359.762C374.412 359.872 374.321 359.989 374.24 360.112C374.17 360.216 374.125 360.336 374.11 360.462C374.11 360.562 374.11 360.612 374.24 360.672C374.285 360.706 374.336 360.733 374.39 360.752L374.57 360.822L375.13 361.032L374.57 361.232C374.396 361.292 374.229 361.369 374.07 361.462C373.92 361.562 373.81 361.672 373.81 361.762C373.81 361.852 373.92 362.032 374.05 362.172C374.18 362.312 374.35 362.442 374.51 362.582C374.296 362.543 374.09 362.469 373.9 362.362C373.783 362.309 373.68 362.23 373.599 362.131C373.518 362.032 373.46 361.916 373.43 361.792C373.42 361.642 373.463 361.494 373.55 361.372C373.625 361.264 373.72 361.173 373.83 361.102C374.016 360.968 374.227 360.873 374.45 360.822V361.232C374.287 361.183 374.135 361.105 374 361.002C373.917 360.935 373.854 360.846 373.82 360.745C373.787 360.644 373.783 360.535 373.81 360.432C373.867 360.265 373.975 360.122 374.12 360.022C374.232 359.911 374.365 359.823 374.51 359.762Z" fill="#C65436"/>
<path d="M384.7 361.091C384.555 361.058 384.408 361.035 384.26 361.021C384.138 360.993 384.012 360.993 383.89 361.021C383.8 361.071 383.78 361.131 383.76 361.241C383.755 361.297 383.755 361.354 383.76 361.411C383.765 361.474 383.765 361.538 383.76 361.601L383.83 362.191L383.4 361.791C383.259 361.669 383.109 361.558 382.95 361.461C382.897 361.419 382.835 361.39 382.77 361.374C382.704 361.359 382.636 361.358 382.57 361.371C382.46 361.371 382.38 361.591 382.32 361.771C382.26 361.951 382.23 362.161 382.17 362.371C382.109 362.163 382.079 361.947 382.08 361.731C382.072 361.603 382.093 361.474 382.144 361.356C382.194 361.238 382.272 361.133 382.37 361.051C382.432 361.008 382.502 360.978 382.576 360.963C382.65 360.947 382.726 360.947 382.8 360.961C382.927 360.973 383.05 361.014 383.16 361.081C383.364 361.182 383.547 361.321 383.7 361.491L383.34 361.681C383.31 361.509 383.31 361.333 383.34 361.161C383.361 361.056 383.411 360.96 383.486 360.883C383.56 360.807 383.656 360.754 383.76 360.731C383.933 360.702 384.111 360.726 384.27 360.801C384.428 360.874 384.573 360.972 384.7 361.091Z" fill="#C65436"/>
<path d="M392.65 359.998L392.22 359.938C392.095 359.907 391.965 359.907 391.84 359.938C391.75 359.938 391.73 360.038 391.72 360.148C391.715 360.205 391.715 360.262 391.72 360.318V360.518L391.79 361.108L391.35 360.698C391.215 360.574 391.067 360.464 390.91 360.368C390.75 360.288 390.61 360.238 390.53 360.278C390.45 360.318 390.34 360.508 390.28 360.678C390.22 360.848 390.18 361.078 390.13 361.288C390.066 361.081 390.035 360.865 390.04 360.648C390.031 360.52 390.052 360.391 390.1 360.271C390.149 360.152 390.224 360.045 390.32 359.958C390.453 359.88 390.607 359.848 390.76 359.868C390.887 359.885 391.009 359.926 391.12 359.988C391.32 360.096 391.502 360.235 391.66 360.398L391.3 360.588C391.26 360.417 391.26 360.239 391.3 360.068C391.32 359.963 391.37 359.866 391.445 359.79C391.519 359.713 391.615 359.66 391.72 359.638C391.89 359.614 392.063 359.638 392.22 359.708C392.379 359.78 392.524 359.878 392.65 359.998Z" fill="#C65436"/>
<path d="M380.82 366.09L381.23 366.26C381.348 366.303 381.475 366.32 381.6 366.31C381.7 366.31 381.74 366.24 381.78 366.13C381.82 366.02 381.78 366.02 381.78 365.97C381.775 365.903 381.775 365.836 381.78 365.77C381.783 365.741 381.791 365.714 381.804 365.689C381.818 365.664 381.837 365.643 381.86 365.626C381.882 365.608 381.908 365.597 381.936 365.59C381.964 365.584 381.993 365.584 382.02 365.59C382.052 365.59 382.084 365.598 382.112 365.614C382.14 365.63 382.163 365.652 382.18 365.68C382.283 365.837 382.4 365.985 382.53 366.12C382.66 366.24 382.79 366.32 382.88 366.3C382.97 366.28 383.11 366.13 383.22 365.97C383.33 365.81 383.41 365.61 383.51 365.43C383.516 365.645 383.493 365.861 383.44 366.07C383.417 366.196 383.364 366.316 383.286 366.419C383.208 366.521 383.106 366.604 382.99 366.66C382.849 366.715 382.692 366.715 382.55 366.66C382.434 366.61 382.326 366.542 382.23 366.46C382.063 366.303 381.921 366.121 381.81 365.92L382.21 365.83C382.196 366.005 382.145 366.176 382.06 366.33C382.017 366.425 381.946 366.505 381.857 366.56C381.768 366.616 381.665 366.643 381.56 366.64C381.383 366.625 381.215 366.555 381.08 366.44C380.979 366.335 380.891 366.217 380.82 366.09Z" fill="#C65436"/>
<path d="M386.76 365L387.17 365.17C387.288 365.213 387.414 365.23 387.54 365.22C387.64 365.22 387.68 365.15 387.72 365.04C387.76 364.93 387.72 364.93 387.72 364.88C387.715 364.813 387.715 364.746 387.72 364.68L387.8 364.09L388.12 364.59C388.222 364.747 388.339 364.895 388.47 365.03C388.6 365.15 388.73 365.23 388.82 365.21C388.91 365.19 389.05 365.04 389.16 364.88C389.27 364.72 389.35 364.52 389.45 364.34C389.456 364.555 389.432 364.771 389.38 364.98C389.356 365.107 389.303 365.226 389.225 365.329C389.147 365.431 389.046 365.514 388.93 365.57C388.788 365.626 388.631 365.626 388.49 365.57C388.371 365.521 388.262 365.45 388.17 365.36C388.001 365.208 387.859 365.029 387.75 364.83L388.15 364.74C388.136 364.915 388.085 365.086 388 365.24C387.956 365.335 387.886 365.415 387.797 365.471C387.708 365.526 387.604 365.553 387.5 365.55C387.323 365.536 387.155 365.466 387.02 365.35C386.918 365.245 386.831 365.127 386.76 365Z" fill="#C65436"/>
<path d="M391.23 366C391.33 365.89 391.43 365.78 391.52 365.66C391.599 365.564 391.654 365.451 391.68 365.33C391.684 365.286 391.676 365.243 391.657 365.204C391.637 365.165 391.607 365.132 391.57 365.11C391.524 365.071 391.474 365.037 391.42 365.01L391.24 364.93L390.71 364.68L391.28 364.53C391.459 364.478 391.633 364.411 391.8 364.33C391.96 364.24 392.07 364.15 392.08 364.05C392.09 363.95 391.99 363.77 391.88 363.63C391.77 363.49 391.59 363.34 391.45 363.18C391.66 363.238 391.859 363.329 392.04 363.45C392.152 363.51 392.248 363.596 392.321 363.7C392.394 363.804 392.441 363.924 392.46 364.05C392.461 364.203 392.408 364.352 392.31 364.47C392.225 364.567 392.123 364.648 392.01 364.71C391.811 364.823 391.595 364.904 391.37 364.95V364.54C391.53 364.609 391.676 364.707 391.8 364.83C391.876 364.903 391.929 364.997 391.954 365.099C391.978 365.202 391.974 365.31 391.94 365.41C391.869 365.568 391.755 365.703 391.61 365.8C391.491 365.88 391.363 365.947 391.23 366Z" fill="#C65436"/>
<path d="M396.13 365.419C396.243 365.306 396.343 365.196 396.43 365.089C396.508 364.989 396.562 364.873 396.59 364.749C396.594 364.706 396.586 364.662 396.567 364.623C396.548 364.584 396.517 364.552 396.48 364.529L396.33 364.439L396.15 364.359L395.62 364.099L396.19 363.949C396.37 363.906 396.544 363.842 396.71 363.759C396.87 363.669 396.98 363.569 396.99 363.479C397 363.389 396.9 363.199 396.78 363.049C396.66 362.899 396.5 362.759 396.36 362.609C396.568 362.669 396.766 362.756 396.95 362.869C397.062 362.932 397.158 363.02 397.231 363.126C397.304 363.231 397.351 363.352 397.37 363.479C397.371 363.63 397.318 363.775 397.22 363.889C397.138 363.989 397.036 364.071 396.92 364.129C396.723 364.247 396.506 364.328 396.28 364.369V363.959C396.44 364.029 396.586 364.127 396.71 364.249C396.786 364.323 396.839 364.417 396.864 364.519C396.889 364.622 396.884 364.729 396.85 364.829C396.778 364.991 396.66 365.126 396.51 365.219C396.395 365.306 396.267 365.373 396.13 365.419Z" fill="#C65436"/>
<path d="M399.83 362.57C399.97 362.62 400.114 362.656 400.26 362.68C400.385 362.711 400.515 362.711 400.64 362.68C400.73 362.68 400.76 362.59 400.78 362.48C400.786 362.424 400.786 362.366 400.78 362.31C400.775 362.247 400.775 362.183 400.78 362.12V361.52L401.18 361.97C401.304 362.106 401.442 362.23 401.59 362.34C401.74 362.44 401.88 362.5 401.96 362.46C402.04 362.42 402.17 362.26 402.25 362.09C402.33 361.92 402.38 361.71 402.45 361.5C402.486 361.715 402.486 361.935 402.45 362.15C402.445 362.277 402.412 362.401 402.353 362.513C402.294 362.625 402.211 362.723 402.11 362.8C401.968 362.853 401.812 362.853 401.67 362.8C401.544 362.775 401.425 362.724 401.32 362.65C401.127 362.524 400.955 362.369 400.81 362.19L401.2 362.03C401.211 362.206 401.187 362.383 401.13 362.55C401.1 362.651 401.042 362.742 400.962 362.811C400.883 362.88 400.785 362.925 400.68 362.94C400.506 362.944 400.333 362.903 400.18 362.82C400.054 362.751 399.936 362.667 399.83 362.57Z" fill="#C65436"/>
<path d="M397.56 366.369C397.699 366.419 397.843 366.456 397.99 366.479C398.111 366.51 398.238 366.51 398.36 366.479C398.46 366.479 398.48 366.389 398.51 366.279C398.54 366.169 398.51 366.169 398.51 366.109C398.51 366.049 398.51 365.979 398.51 365.919V365.319L398.91 365.769C399.034 365.905 399.171 366.029 399.32 366.139C399.371 366.184 399.431 366.219 399.497 366.242C399.562 366.264 399.631 366.273 399.7 366.269C399.8 366.269 399.9 366.059 399.98 365.889C400.06 365.719 400.11 365.509 400.19 365.309C400.215 365.521 400.215 365.736 400.19 365.949C400.185 366.076 400.15 366.201 400.09 366.314C400.029 366.427 399.944 366.524 399.84 366.599C399.704 366.669 399.547 366.687 399.4 366.649C399.274 366.623 399.155 366.572 399.05 366.499C398.86 366.372 398.691 366.217 398.55 366.039L398.93 365.879C398.945 366.055 398.921 366.233 398.86 366.399C398.831 366.501 398.773 366.592 398.693 366.661C398.613 366.731 398.515 366.775 398.41 366.789C398.235 366.793 398.063 366.752 397.91 366.669C397.776 366.591 397.657 366.489 397.56 366.369Z" fill="#C65436"/>
<path d="M402.52 365.52L402.99 365.3C403.123 365.233 403.237 365.133 403.32 365.01C403.351 364.964 403.368 364.91 403.368 364.855C403.368 364.799 403.351 364.745 403.32 364.7L403.2 364.53C403.14 364.53 403.09 364.42 403.04 364.37L402.64 363.92L403.23 364C403.446 364.025 403.664 364.025 403.88 364C403.964 364.003 404.048 363.987 404.126 363.955C404.203 363.922 404.273 363.872 404.33 363.81C404.41 363.69 404.33 363.45 404.28 363.24C404.23 363.03 404.1 362.82 404.01 362.59C404.198 362.749 404.363 362.934 404.5 363.14C404.59 363.252 404.653 363.383 404.684 363.524C404.715 363.664 404.714 363.81 404.68 363.95C404.613 364.107 404.492 364.235 404.34 364.31C404.213 364.379 404.073 364.42 403.93 364.43C403.671 364.47 403.408 364.47 403.15 364.43L403.34 364.06C403.41 364.13 403.47 364.21 403.53 364.28C403.588 364.363 403.635 364.454 403.67 364.55C403.719 364.655 403.737 364.773 403.721 364.888C403.705 365.004 403.656 365.112 403.58 365.2C403.438 365.343 403.257 365.441 403.06 365.48C402.882 365.519 402.701 365.533 402.52 365.52Z" fill="#C65436"/>
<path d="M378.51 363.61L378.31 363.21C378.248 363.099 378.158 363.007 378.05 362.94C378.015 362.916 377.973 362.902 377.93 362.902C377.887 362.902 377.845 362.916 377.81 362.94C377.759 362.968 377.712 363.001 377.67 363.04L377.53 363.18L377.09 363.58L377.16 362.99C377.18 362.804 377.18 362.616 377.16 362.43C377.16 362.26 377.09 362.11 377.01 362.07C376.93 362.03 376.71 362.07 376.53 362.07C376.35 362.07 376.16 362.22 375.96 362.3C376.091 362.125 376.25 361.973 376.43 361.85C376.529 361.768 376.646 361.711 376.771 361.683C376.896 361.656 377.026 361.658 377.15 361.69C377.291 361.745 377.406 361.853 377.47 361.99C377.537 362.099 377.578 362.223 377.59 362.35C377.625 362.575 377.625 362.805 377.59 363.03L377.22 362.85C377.343 362.724 377.489 362.622 377.65 362.55C377.747 362.508 377.854 362.494 377.958 362.51C378.062 362.526 378.16 362.571 378.24 362.64C378.369 362.762 378.453 362.924 378.48 363.1C378.514 363.268 378.525 363.439 378.51 363.61Z" fill="#C65436"/>
<path d="M375.83 366.481C376.01 366.481 376.19 366.561 376.36 366.591C376.512 366.624 376.668 366.624 376.82 366.591C376.876 366.569 376.924 366.531 376.958 366.481C376.992 366.431 377.01 366.372 377.01 366.311C377.015 366.238 377.015 366.165 377.01 366.091C377.005 366.011 377.005 365.931 377.01 365.851L376.95 365.251L377.38 365.661C377.545 365.824 377.73 365.965 377.93 366.081C378.002 366.136 378.085 366.175 378.173 366.194C378.261 366.213 378.352 366.212 378.44 366.191C378.58 366.191 378.68 365.891 378.75 365.671C378.82 365.451 378.85 365.191 378.91 364.941C378.972 365.197 378.999 365.459 378.99 365.721C378.995 365.871 378.965 366.019 378.905 366.156C378.844 366.293 378.754 366.414 378.64 366.511C378.492 366.606 378.313 366.642 378.14 366.611C377.991 366.59 377.849 366.539 377.72 366.461C377.479 366.33 377.259 366.161 377.07 365.961L377.44 365.781C377.44 365.881 377.44 365.981 377.44 366.081C377.449 366.185 377.449 366.288 377.44 366.391C377.418 366.513 377.36 366.624 377.275 366.713C377.19 366.802 377.08 366.864 376.96 366.891C376.757 366.922 376.548 366.895 376.36 366.811C376.167 366.731 375.988 366.62 375.83 366.481Z" fill="#C65436"/>
<path d="M440.47 380.428V381.998C440.48 382.119 440.514 382.236 440.57 382.342C440.626 382.449 440.703 382.544 440.796 382.62C440.889 382.697 440.997 382.754 441.113 382.788C441.228 382.822 441.35 382.832 441.47 382.818H447.73C447.85 382.805 447.973 382.815 448.089 382.85C448.205 382.885 448.313 382.942 448.407 383.02C448.5 383.098 448.577 383.193 448.633 383.301C448.688 383.409 448.721 383.527 448.73 383.648V384.168C448.737 384.29 448.769 384.408 448.824 384.516C448.879 384.625 448.956 384.72 449.05 384.797C449.144 384.874 449.253 384.931 449.37 384.964C449.487 384.997 449.609 385.005 449.73 384.988H474.6C474.72 385.004 474.842 384.994 474.958 384.961C475.074 384.927 475.183 384.87 475.276 384.794C475.37 384.717 475.447 384.622 475.502 384.514C475.558 384.407 475.591 384.289 475.6 384.168C475.607 384.051 475.638 383.937 475.69 383.832C475.742 383.727 475.814 383.633 475.902 383.556C475.991 383.479 476.093 383.42 476.204 383.383C476.315 383.345 476.433 383.33 476.55 383.338H481.66C481.78 383.352 481.901 383.342 482.017 383.308C482.132 383.274 482.24 383.217 482.333 383.14C482.427 383.064 482.504 382.969 482.56 382.862C482.616 382.756 482.65 382.639 482.66 382.518V380.518C482.644 380.286 482.538 380.069 482.364 379.913C482.19 379.758 481.963 379.677 481.73 379.688C476.47 379.558 450.22 378.968 441.54 379.638C441.417 379.609 441.288 379.607 441.164 379.632C441.04 379.657 440.923 379.71 440.821 379.785C440.719 379.86 440.635 379.957 440.574 380.068C440.514 380.179 440.478 380.302 440.47 380.428Z" fill="#B2563D"/>
<path d="M461.46 380.97C473.052 380.97 482.45 380.477 482.45 379.87C482.45 379.262 473.052 378.77 461.46 378.77C449.867 378.77 440.47 379.262 440.47 379.87C440.47 380.477 449.867 380.97 461.46 380.97Z" fill="#EE8460"/>
<path d="M477.81 380.521C478.37 372.271 474.01 360.901 460.95 360.521C447.89 360.141 447.62 380.251 447.62 380.251L477.81 380.521Z" fill="#D3771C"/>
<path d="M475.44 371.66L464 360.75C463.777 360.538 463.645 360.247 463.632 359.939C463.619 359.632 463.726 359.331 463.93 359.1C464.034 358.982 464.16 358.885 464.301 358.816C464.443 358.747 464.597 358.707 464.754 358.697C464.911 358.688 465.069 358.71 465.217 358.762C465.366 358.814 465.503 358.895 465.62 359L477.43 369.56C477.557 369.673 477.66 369.811 477.73 369.967C477.8 370.122 477.836 370.29 477.836 370.46C477.836 370.631 477.8 370.799 477.73 370.954C477.66 371.109 477.557 371.248 477.43 371.36L477.03 371.7C476.806 371.891 476.521 371.992 476.227 371.985C475.934 371.978 475.653 371.862 475.44 371.66Z" fill="#FFB966"/>
<path d="M472.07 372.59L459.64 362.84C459.396 362.65 459.236 362.373 459.193 362.066C459.15 361.76 459.228 361.45 459.41 361.2C459.6 360.944 459.882 360.774 460.197 360.725C460.511 360.677 460.832 360.754 461.09 360.94L473.87 370.3C474.007 370.401 474.121 370.529 474.204 370.678C474.287 370.826 474.338 370.99 474.353 371.159C474.368 371.328 474.347 371.499 474.292 371.659C474.236 371.82 474.147 371.966 474.03 372.09L473.67 372.47C473.467 372.686 473.19 372.818 472.894 372.84C472.598 372.862 472.304 372.773 472.07 372.59Z" fill="#FFB966"/>
<path d="M476 379.319L463.75 369.319C463.509 369.127 463.353 368.848 463.313 368.542C463.274 368.236 463.355 367.927 463.54 367.679C463.633 367.552 463.751 367.445 463.887 367.364C464.023 367.283 464.173 367.23 464.329 367.207C464.486 367.185 464.645 367.194 464.798 367.234C464.951 367.274 465.094 367.344 465.22 367.439L477.84 377.019C477.976 377.121 478.088 377.252 478.17 377.401C478.251 377.55 478.3 377.715 478.312 377.885C478.324 378.054 478.3 378.225 478.241 378.384C478.182 378.544 478.09 378.689 477.97 378.809L477.61 379.189C477.406 379.408 477.128 379.542 476.83 379.566C476.532 379.59 476.236 379.502 476 379.319Z" fill="#FFB966"/>
<path d="M463.52 366.649C463.394 366.718 463.255 366.76 463.112 366.771C462.969 366.782 462.826 366.762 462.691 366.713C462.556 366.664 462.434 366.586 462.332 366.485C462.23 366.384 462.151 366.263 462.1 366.129L461.94 365.719C461.846 365.484 461.844 365.223 461.935 364.987C462.026 364.752 462.203 364.559 462.43 364.449L474.37 358.449C474.602 358.328 474.873 358.303 475.123 358.38C475.374 358.456 475.585 358.628 475.71 358.859C475.776 358.975 475.819 359.104 475.834 359.237C475.85 359.37 475.839 359.505 475.802 359.633C475.765 359.762 475.702 359.882 475.617 359.986C475.533 360.09 475.428 360.176 475.31 360.239" fill="#F29D40"/>
<path d="M450.67 368.109L462.61 362.109C462.842 361.988 463.113 361.963 463.364 362.04C463.614 362.117 463.825 362.289 463.95 362.519C464.016 362.636 464.058 362.765 464.073 362.898C464.088 363.032 464.076 363.167 464.038 363.296C464 363.425 463.936 363.544 463.85 363.648C463.765 363.752 463.659 363.837 463.54 363.899L451.76 370.279C451.635 370.348 451.496 370.39 451.353 370.401C451.21 370.412 451.066 370.393 450.931 370.343C450.796 370.294 450.674 370.216 450.572 370.115C450.47 370.015 450.391 369.893 450.34 369.759L450.18 369.349C450.095 369.118 450.098 368.864 450.188 368.635C450.279 368.406 450.45 368.219 450.67 368.109Z" fill="#F29D40"/>
<path d="M472.48 380.002L462.79 371.842C462.609 371.677 462.495 371.452 462.469 371.208C462.444 370.965 462.508 370.721 462.65 370.522C462.812 370.328 463.041 370.203 463.292 370.172C463.542 370.14 463.795 370.205 464 370.352L474 378.212C474.102 378.3 474.186 378.407 474.245 378.528C474.305 378.649 474.339 378.78 474.347 378.915C474.354 379.049 474.334 379.184 474.289 379.311C474.243 379.437 474.172 379.553 474.08 379.652L473.78 379.952C473.605 380.114 473.378 380.208 473.139 380.217C472.901 380.226 472.667 380.15 472.48 380.002Z" fill="#F29D40"/>
<path d="M466 371.671L462.19 359.591C462.126 359.355 462.151 359.103 462.259 358.884C462.368 358.665 462.554 358.493 462.78 358.401C463.022 358.329 463.282 358.351 463.508 358.462C463.734 358.573 463.91 358.766 464 359.001L468.22 371.001C468.258 371.129 468.27 371.264 468.255 371.396C468.241 371.529 468.199 371.657 468.134 371.774C468.069 371.89 467.981 371.993 467.876 372.075C467.77 372.157 467.649 372.217 467.52 372.251L467.11 372.341C466.876 372.38 466.636 372.333 466.432 372.211C466.229 372.088 466.076 371.897 466 371.671Z" fill="#F29D40"/>
<path d="M445.31 374.211L456.25 358.821C456.462 358.52 456.783 358.313 457.145 358.244C457.507 358.175 457.882 358.249 458.19 358.451C458.352 358.553 458.492 358.686 458.6 358.842C458.709 358.999 458.785 359.177 458.824 359.364C458.862 359.551 458.862 359.743 458.823 359.93C458.785 360.117 458.709 360.295 458.6 360.451L448.14 376.251C448.03 376.422 447.884 376.566 447.713 376.675C447.542 376.784 447.349 376.855 447.148 376.884C446.947 376.912 446.743 376.897 446.548 376.84C446.354 376.783 446.174 376.684 446.02 376.551L445.54 376.141C445.264 375.909 445.086 375.58 445.043 375.222C445 374.863 445.096 374.502 445.31 374.211Z" fill="#FFB966"/>
<path d="M465.25 370.998L456.04 362.298C455.879 362.122 455.787 361.894 455.78 361.656C455.772 361.417 455.851 361.184 456 360.998C456.173 360.814 456.41 360.702 456.662 360.686C456.915 360.669 457.164 360.749 457.36 360.908L466.89 369.328C466.987 369.422 467.064 369.534 467.116 369.657C467.169 369.781 467.196 369.914 467.196 370.048C467.196 370.183 467.169 370.316 467.116 370.44C467.064 370.563 466.987 370.675 466.89 370.768L466.58 371.048C466.391 371.205 466.151 371.286 465.905 371.277C465.66 371.268 465.427 371.168 465.25 370.998Z" fill="#FFB966"/>
<path d="M453.9 369.93L472.77 370.46C473.14 370.468 473.492 370.62 473.752 370.883C474.011 371.146 474.158 371.5 474.16 371.87C474.163 372.25 474.015 372.616 473.749 372.888C473.483 373.159 473.121 373.315 472.74 373.32L453.791 373.41C453.588 373.41 453.388 373.367 453.203 373.284C453.018 373.201 452.853 373.081 452.718 372.93C452.583 372.779 452.481 372.601 452.42 372.408C452.358 372.215 452.338 372.011 452.36 371.81L452.44 371.19C452.485 370.837 452.659 370.512 452.928 370.28C453.198 370.047 453.544 369.922 453.9 369.93Z" fill="#F29D40"/>
<path d="M446.9 376.372L465.78 376.892C466.149 376.907 466.499 377.062 466.757 377.326C467.015 377.59 467.163 377.942 467.17 378.312C467.172 378.5 467.136 378.687 467.064 378.862C466.993 379.037 466.888 379.195 466.755 379.329C466.622 379.463 466.464 379.569 466.29 379.642C466.116 379.714 465.929 379.752 465.74 379.752L446.8 379.852C446.597 379.852 446.396 379.809 446.21 379.725C446.025 379.642 445.859 379.52 445.724 379.368C445.589 379.216 445.487 379.037 445.426 378.843C445.365 378.649 445.346 378.444 445.37 378.242L445.45 377.622C445.493 377.27 445.665 376.947 445.933 376.716C446.201 376.484 446.546 376.362 446.9 376.372Z" fill="#FFB966"/>
<path d="M444.59 373.372L460.43 373.812C460.74 373.822 461.035 373.951 461.253 374.173C461.471 374.394 461.595 374.691 461.6 375.002C461.601 375.16 461.571 375.317 461.512 375.464C461.452 375.611 461.364 375.744 461.252 375.857C461.14 375.969 461.008 376.058 460.862 376.119C460.715 376.18 460.558 376.212 460.4 376.212L444.5 376.292C444.33 376.291 444.163 376.255 444.008 376.186C443.853 376.116 443.715 376.015 443.602 375.889C443.488 375.763 443.403 375.614 443.351 375.452C443.299 375.291 443.282 375.12 443.3 374.952L443.37 374.432C443.403 374.134 443.546 373.859 443.772 373.663C443.999 373.466 444.291 373.362 444.59 373.372Z" fill="#F29D40"/>
<path d="M464.55 374.372L480.39 374.812C480.699 374.822 480.992 374.95 481.21 375.169C481.427 375.389 481.553 375.683 481.56 375.992C481.561 376.151 481.531 376.308 481.472 376.456C481.412 376.603 481.324 376.737 481.213 376.85C481.101 376.964 480.969 377.054 480.822 377.116C480.676 377.178 480.519 377.21 480.36 377.212L464.46 377.292C464.29 377.291 464.121 377.255 463.965 377.185C463.81 377.115 463.671 377.013 463.558 376.886C463.444 376.758 463.359 376.608 463.308 376.445C463.257 376.283 463.24 376.111 463.26 375.942L463.33 375.422C463.365 375.126 463.51 374.854 463.736 374.659C463.962 374.465 464.252 374.362 464.55 374.372Z" fill="#FFB966"/>
<path d="M443.3 376.39L459.4 366.53C459.715 366.335 460.093 366.27 460.455 366.349C460.817 366.427 461.134 366.643 461.34 366.95C461.447 367.107 461.521 367.284 461.559 367.47C461.596 367.656 461.596 367.848 461.559 368.034C461.522 368.22 461.448 368.397 461.342 368.554C461.235 368.712 461.099 368.846 460.94 368.95L445.11 379.38C444.94 379.492 444.748 379.566 444.548 379.597C444.347 379.629 444.142 379.617 443.946 379.563C443.75 379.509 443.568 379.414 443.412 379.284C443.256 379.154 443.129 378.993 443.04 378.81L442.77 378.25C442.612 377.93 442.578 377.562 442.676 377.218C442.774 376.874 442.996 376.579 443.3 376.39Z" fill="#FFB966"/>
<path d="M348.22 355.211H345.74V376.371H348.22V355.211Z" fill="#FFB6B0"/>
<path d="M353.7 381H340.27C339.73 381 339.51 380.11 339.96 379.73L344.64 375.79C344.724 375.72 344.83 375.681 344.94 375.68H349C349.112 375.681 349.221 375.72 349.31 375.79L353.98 379.73C354.45 380.12 354.24 381 353.7 381Z" fill="#FF6D55"/>
<path d="M351.71 356.051C353.564 355.169 355.13 353.779 356.226 352.043C357.321 350.306 357.902 348.294 357.9 346.241V345.121H336.06V346.191C336.06 348.23 336.634 350.227 337.714 351.956C338.794 353.685 340.338 355.076 342.17 355.971H342.27C344.176 356.903 346.316 357.251 348.42 356.971C349.562 356.812 350.672 356.475 351.71 355.971V356.051Z" fill="#FFB6B0"/>
<path d="M355.24 345.121V346.241C355.24 348.294 354.658 350.305 353.563 352.041C352.467 353.777 350.903 355.167 349.05 356.051C348.012 356.555 346.902 356.892 345.76 357.051C347.841 357.317 349.954 356.969 351.84 356.051C353.693 355.167 355.257 353.777 356.353 352.041C357.448 350.305 358.03 348.294 358.03 346.241V345.121H355.24Z" fill="#FF6D55"/>
<path d="M599.66 403.078H668.52C671.899 403.078 675.139 404.42 677.529 406.81C679.918 409.199 681.26 412.439 681.26 415.818V519.558H586.92V415.818C586.92 412.439 588.262 409.199 590.651 406.81C593.041 404.42 596.281 403.078 599.66 403.078Z" fill="#FFC300"/>
<path d="M598.47 405C595.407 405 592.469 406.217 590.303 408.383C588.137 410.549 586.92 413.487 586.92 416.55V518.71H610V416.56C610.003 413.498 608.79 410.561 606.628 408.394C604.466 406.226 601.531 405.005 598.47 405Z" fill="#FFE6A6" stroke="#FFC300" stroke-width="2" stroke-miterlimit="10"/>
<path d="M233.79 540.18C233.79 520.89 216.46 518 216.46 518H242.46V544H233.8L233.79 540.18Z" fill="#BC5B35"/>
<path d="M93.2403 540.18C93.2403 520.89 110.57 518 110.57 518H84.5703V544H93.2303L93.2403 540.18Z" fill="#BC5B35"/>
<path d="M182.8 540.18C182.8 520.89 200.13 518 200.13 518H174.13V544H182.79L182.8 540.18Z" fill="#BC5B35"/>
<path d="M142.34 518H168.34C168.34 518 151 520.89 151 540.18V544H138.49V540.18C138.49 520.89 121.16 518 121.16 518H142.34Z" fill="#BC5B35"/>
<path d="M155.81 518.012H61.4703L61.4703 414.262C61.473 410.885 62.8164 407.647 65.2053 405.26C67.5942 402.873 70.8332 401.532 74.2103 401.532H143.08C146.459 401.532 149.7 402.874 152.089 405.263C154.478 407.652 155.82 410.893 155.82 414.272V518.012H155.81Z" fill="#FFC300"/>
<path d="M144.26 403.449C147.324 403.449 150.263 404.666 152.431 406.832C154.598 408.997 155.817 411.935 155.82 414.999V517.149H132.71V414.999C132.71 411.936 133.927 408.998 136.093 406.832C138.259 404.666 141.197 403.449 144.26 403.449Z" fill="#FFE6A6" stroke="#FFC300" stroke-width="2" stroke-miterlimit="10"/>
<path d="M375.5 172.329C384.762 172.329 392.27 164.821 392.27 155.559C392.27 146.297 384.762 138.789 375.5 138.789C366.239 138.789 358.73 146.297 358.73 155.559C358.73 164.821 366.239 172.329 375.5 172.329Z" fill="#FFE6A6"/>
<path d="M385.7 121.58V117.12C385.699 114.827 384.924 112.601 383.501 110.803C382.079 109.005 380.091 107.739 377.86 107.21V0H373.14V107.21C370.909 107.739 368.921 109.005 367.498 110.803C366.076 112.601 365.301 114.827 365.3 117.12V121.58C356.433 123.849 348.573 129.005 342.96 136.235C337.347 143.465 334.3 152.357 334.3 161.51H416.72C416.718 152.355 413.668 143.46 408.051 136.23C402.435 129 394.571 123.846 385.7 121.58Z" fill="#C6C6C6"/>
</g>
<defs>
<clipPath id="clip0_1352_664">
<rect width="763.75" height="549.77" fill="white"/>
</clipPath>
</defs>
</svg>
