<svg width="481" height="518" viewBox="0 0 481 518" fill="none" xmlns="http://www.w3.org/2000/svg">
<g clip-path="url(#clip0_1356_1938)">
<path d="M209.8 427.571L108.53 433.841L88.8295 494.051C87.9702 496.75 87.7602 499.615 88.2166 502.411C88.673 505.207 89.7829 507.856 91.4561 510.142C93.1293 512.428 95.3185 514.287 97.8457 515.567C100.373 516.848 103.166 517.514 106 517.511H222C224.745 517.507 227.454 516.875 229.918 515.663C232.382 514.451 234.536 512.692 236.215 510.519C237.894 508.347 239.054 505.819 239.606 503.129C240.158 500.439 240.088 497.659 239.4 495.001L218.79 428.551L209.79 427.551" fill="#6F8587"/>
<path d="M279.41 61.3808C272.863 61.774 266.375 62.8464 260.05 64.5808C281.486 67.7673 301.175 78.2244 315.818 94.2C330.461 110.176 339.169 130.699 340.482 152.33C341.794 173.962 335.632 195.387 323.028 213.016C310.423 230.645 292.143 243.406 271.25 249.161C284.343 251.106 297.698 250.279 310.451 246.733C323.204 243.187 335.07 237.001 345.279 228.576C355.488 220.152 363.814 209.676 369.716 197.828C375.618 185.979 378.964 173.023 379.539 159.799C380.114 146.575 377.903 133.378 373.051 121.062C368.2 108.747 360.814 97.5881 351.374 88.3094C341.934 79.0306 330.65 71.8387 318.253 67.1998C305.856 62.5609 292.622 60.5784 279.41 61.3808Z" fill="#FFC300"/>
<path d="M151.46 115H35.5303C35.5303 115 37.1703 98.0797 51.1103 102C65.0503 105.92 63.2503 77.3997 83.4903 86.9997C99.2703 94.4997 110.99 66.3997 122.86 88.7097C133.61 108.92 144.25 91.8197 151.46 115Z" fill="#D5ECF2"/>
<path d="M286.26 28.4395H192.26C192.26 28.4395 193.58 14.7295 204.88 17.8895C216.18 21.0495 214.74 -2.00054 231.15 5.74946C243.94 11.8195 253.44 -10.9605 263.07 7.12946C271.78 23.4895 280.41 9.61946 286.26 28.4395Z" fill="#D5ECF2"/>
<path d="M452.51 81.57H374.58C374.58 81.57 375.67 70.19 385.05 72.82C394.43 75.45 393.21 56.29 406.82 62.75C417.42 67.75 425.3 48.89 433.29 63.9C440.51 77.46 447.67 66 452.51 81.57Z" fill="#D5ECF2"/>
<path d="M458.749 272.348C460.622 272.348 462.418 271.604 463.742 270.28C465.066 268.956 465.809 267.16 465.809 265.288V260.188C465.809 258.314 465.066 256.517 463.742 255.192C462.418 253.866 460.623 253.12 458.749 253.118H454.459V225.378H454.769C455.83 225.378 456.848 224.956 457.598 224.206C458.348 223.456 458.769 222.438 458.769 221.378V218.518C458.769 217.457 458.348 216.439 457.598 215.689C456.848 214.939 455.83 214.518 454.769 214.518H454.459V190.168H454.679C456.554 190.165 458.35 189.419 459.676 188.094C461.001 186.769 461.747 184.972 461.749 183.098V177.998C461.749 176.123 461.005 174.324 459.679 172.998C458.353 171.672 456.555 170.928 454.679 170.928H454.459V165.528C454.459 162.13 453.37 158.822 451.353 156.089C449.336 153.355 446.496 151.34 443.249 150.338L438.739 132.158L434.049 150.308C430.77 151.283 427.892 153.291 425.845 156.034C423.799 158.776 422.692 162.106 422.689 165.528V170.928H422.479C421.551 170.926 420.631 171.108 419.772 171.463C418.914 171.818 418.134 172.339 417.477 172.995C416.82 173.652 416.3 174.432 415.945 175.29C415.59 176.149 415.408 177.069 415.409 177.998V183.088C415.409 184.963 416.154 186.761 417.48 188.087C418.806 189.413 420.604 190.158 422.479 190.158H422.689V214.598H422.379C421.319 214.598 420.301 215.019 419.551 215.769C418.801 216.519 418.379 217.537 418.379 218.598V221.458C418.379 222.518 418.801 223.536 419.551 224.286C420.301 225.036 421.319 225.458 422.379 225.458H422.689V253.198H418.409C416.535 253.2 414.738 253.946 413.413 255.271C412.088 256.597 411.342 258.393 411.339 260.268V265.368C411.342 267.241 412.088 269.037 413.414 270.36C414.739 271.684 416.536 272.428 418.409 272.428H422.689V295.948L384.999 275.998V261.408C386.429 261.061 387.7 260.244 388.609 259.088C389.518 257.931 390.013 256.503 390.013 255.033C390.013 253.562 389.518 252.134 388.609 250.978C387.7 249.821 386.429 249.004 384.999 248.658V244.738C385 242.409 384.255 240.142 382.873 238.269C381.491 236.395 379.544 235.014 377.319 234.328L374.219 221.858L370.999 234.298C368.75 234.967 366.777 236.345 365.373 238.226C363.97 240.107 363.211 242.391 363.209 244.738V248.658C361.787 249.012 360.524 249.832 359.621 250.987C358.719 252.143 358.228 253.567 358.228 255.033C358.228 256.499 358.719 257.923 359.621 259.078C360.524 260.233 361.787 261.053 363.209 261.408V264.408L343.789 254.148V223.558C345.442 223.437 346.988 222.695 348.118 221.482C349.247 220.27 349.876 218.675 349.879 217.018V214.128C349.876 212.47 349.247 210.876 348.118 209.663C346.988 208.45 345.442 207.709 343.789 207.588V200.588C343.787 197.944 342.823 195.391 341.077 193.405C339.33 191.42 336.922 190.138 334.299 189.798L330.649 175.078L326.849 189.778C324.2 190.089 321.758 191.361 319.984 193.354C318.211 195.346 317.231 197.92 317.229 200.588V207.588C315.577 207.709 314.031 208.45 312.901 209.663C311.772 210.876 311.143 212.47 311.139 214.128V216.998C311.143 218.655 311.772 220.25 312.901 221.462C314.031 222.675 315.577 223.417 317.229 223.538V240.128L310.409 236.528C308.475 223.464 302.796 211.242 294.058 201.34C285.321 191.439 273.9 184.282 261.179 180.738V179.398C261.177 175.465 259.782 171.659 257.241 168.657C254.7 165.655 251.178 163.65 247.299 162.998L242.539 144.588H242.939C243.975 144.56 245.001 144.389 245.989 144.078C247.9 143.435 249.551 142.194 250.699 140.538C249.313 141.712 247.632 142.485 245.839 142.776C244.045 143.067 242.206 142.863 240.519 142.188C238.962 141.538 237.62 140.459 236.651 139.078C235.681 137.696 235.124 136.067 235.043 134.381C234.963 132.695 235.362 131.021 236.195 129.553C237.028 128.085 238.261 126.883 239.749 126.088C241.361 125.246 243.172 124.863 244.987 124.979C246.801 125.095 248.549 125.707 250.039 126.748C249.402 125.991 248.649 125.34 247.809 124.818C246.937 124.3 245.994 123.913 245.009 123.668C243.994 123.458 242.955 123.384 241.919 123.448C240.869 123.554 239.84 123.806 238.859 124.198C236.869 125.044 235.182 126.474 234.019 128.298C232.853 130.151 232.284 132.318 232.39 134.505C232.496 136.693 233.27 138.795 234.609 140.528C235.942 142.23 237.758 143.488 239.819 144.138C240.424 144.301 241.038 144.421 241.659 144.498L236.999 163.338C233.446 164.272 230.301 166.356 228.056 169.264C225.811 172.173 224.592 175.743 224.589 179.418V181.738C212.604 185.727 201.959 192.962 193.839 202.638C185.718 212.314 180.439 224.052 178.589 236.548L171.759 240.148V223.558C173.413 223.439 174.96 222.698 176.09 221.485C177.22 220.272 177.849 218.676 177.849 217.018V214.128C177.849 212.47 177.22 210.874 176.09 209.66C174.96 208.447 173.413 207.706 171.759 207.588V200.588C171.76 197.92 170.781 195.344 169.007 193.351C167.233 191.358 164.789 190.087 162.139 189.778L158.349 175.078L154.699 189.798C152.076 190.135 149.664 191.417 147.916 193.402C146.168 195.388 145.202 197.942 145.199 200.588V207.588C143.547 207.709 142.001 208.45 140.871 209.663C139.742 210.876 139.113 212.47 139.109 214.128V216.998C139.113 218.655 139.742 220.25 140.871 221.462C142.001 222.675 143.547 223.417 145.199 223.538V254.158L125.779 264.418V261.418C127.209 261.071 128.48 260.254 129.389 259.098C130.298 257.941 130.793 256.513 130.793 255.043C130.793 253.572 130.298 252.144 129.389 250.988C128.48 249.832 127.209 249.014 125.779 248.668V244.748C125.782 242.4 125.026 240.114 123.624 238.231C122.222 236.348 120.249 234.968 117.999 234.298L114.779 221.858L111.689 234.328C109.464 235.014 107.516 236.394 106.132 238.268C104.748 240.141 104.001 242.409 103.999 244.738V248.658C102.577 249.012 101.314 249.832 100.411 250.987C99.5086 252.143 99.0182 253.567 99.0182 255.033C99.0182 256.499 99.5086 257.923 100.411 259.078C101.314 260.233 102.577 261.053 103.999 261.408V275.998L66.2995 295.918V272.348H70.5994C72.4719 272.348 74.2676 271.604 75.5916 270.28C76.9156 268.956 77.6595 267.16 77.6595 265.288V260.188C77.6595 258.314 76.916 256.517 75.5922 255.192C74.2685 253.866 72.4728 253.12 70.5994 253.118H66.3094V225.378H66.6195C67.6803 225.378 68.6977 224.956 69.4479 224.206C70.198 223.456 70.6195 222.438 70.6195 221.378V218.518C70.6195 217.457 70.198 216.439 69.4479 215.689C68.6977 214.939 67.6803 214.518 66.6195 214.518H66.3094V190.168H66.5294C68.4037 190.165 70.2005 189.419 71.5258 188.094C72.8511 186.769 73.5968 184.972 73.5994 183.098V177.998C73.5994 176.123 72.8546 174.324 71.5287 172.998C70.2028 171.672 68.4045 170.928 66.5294 170.928H66.3094V165.528C66.3098 162.113 65.2098 158.79 63.1726 156.05C61.1353 153.31 58.2692 151.3 54.9995 150.318L50.3095 132.168L45.7995 150.348C42.5533 151.35 39.7134 153.365 37.6961 156.099C35.6787 158.832 34.59 162.14 34.5895 165.538V170.938H34.3795C33.4473 170.93 32.5228 171.106 31.6593 171.458C30.7958 171.809 30.0104 172.328 29.3484 172.984C28.6865 173.64 28.1611 174.421 27.8025 175.282C27.444 176.142 27.2594 177.065 27.2595 177.998V183.088C27.2595 184.963 28.0043 186.761 29.3302 188.087C30.6561 189.413 32.4544 190.158 34.3295 190.158H34.5395V214.598H34.2295C33.1686 214.598 32.1512 215.019 31.401 215.769C30.6509 216.519 30.2295 217.537 30.2295 218.598V221.458C30.2295 222.518 30.6509 223.536 31.401 224.286C32.1512 225.036 33.1686 225.458 34.2295 225.458H34.5395V253.198H30.2595C28.3852 253.2 26.5884 253.946 25.2631 255.271C23.9378 256.597 23.1921 258.393 23.1895 260.268V265.368C23.1921 267.241 23.9381 269.037 25.2637 270.36C26.5893 271.684 28.3861 272.428 30.2595 272.428H34.5395V312.728V371.298H454.539V312.658V272.358L458.749 272.348Z" fill="#E5E5E5"/>
<path d="M149.94 291.328C149.94 291.328 135.75 295.588 128.3 301.008C119.88 307.138 110.3 328.008 113.08 352.418C115.86 376.828 122.91 384.418 122.91 384.418C122.91 384.418 120.1 402.118 113.41 416.798C106.72 431.478 104.17 461.698 111.27 468.608C118.37 475.518 144.71 475.948 157.27 471.848C169.83 467.748 181.66 470.188 188.57 474.798C195.48 479.408 220.09 475.948 223.11 460.408C226.13 444.868 216.42 422.408 212.97 410.968C209.52 399.528 208.22 381.828 208.22 381.828C208.22 381.828 221.39 367.148 217.72 339.518C214.05 311.888 207.98 302.138 196.87 298.698C185.76 295.258 180.57 292.578 180.57 292.578L149.94 291.328Z" fill="#121E21"/>
<path d="M153.57 286.82H157.83L157.02 290.53L153.57 286.82Z" fill="#414042"/>
<path d="M149.939 291.33L153.569 286.82L156.139 288.4L176.969 287.67L180.529 292.55L168.319 298.67H163.469L149.939 291.33Z" fill="#325154"/>
<path d="M154.09 275.93C154.09 275.93 156.09 283.85 156.09 288.4L163.43 292.8V299L166.29 303.11L168.29 298.71V292.8L176.94 287.67V275.93H154.09Z" fill="#E0A4AB"/>
<path d="M136.84 345.709C136.84 345.709 143.41 339.379 142.44 335.929C141.47 332.479 139.31 327.399 140.39 322.929C141.47 318.459 143.95 315.379 144.17 314.729C144.39 314.079 147.17 315.589 146 319.589L155.7 308.899C155.7 308.899 158.31 307.709 157.01 312.139C157.01 312.139 161.33 309.659 160.79 313.869C160.79 313.869 165.65 311.709 162.41 318.939C162.41 318.939 166.3 318.829 162.84 325.089C159.38 331.349 158.84 333.729 159.17 337.829C159.5 341.929 149.67 356.829 149.67 356.829C149.67 356.829 139.44 351.829 136.84 345.709Z" fill="#FFCDC2"/>
<path d="M135.409 345.781L132.889 349.561C132.759 349.754 132.709 349.99 132.753 350.219C132.796 350.447 132.928 350.65 133.119 350.781L150.579 363.001C150.69 363.079 150.817 363.13 150.95 363.151C151.084 363.172 151.22 363.162 151.349 363.123C151.478 363.083 151.597 363.015 151.696 362.923C151.794 362.831 151.871 362.717 151.919 362.591L153.539 358.401C153.582 358.288 153.601 358.167 153.596 358.046C153.59 357.925 153.561 357.806 153.508 357.697C153.456 357.588 153.382 357.49 153.291 357.41C153.2 357.33 153.094 357.269 152.979 357.231C146.652 354.925 141.072 350.939 136.839 345.701C136.75 345.594 136.638 345.509 136.51 345.453C136.382 345.398 136.243 345.373 136.104 345.38C135.965 345.388 135.83 345.428 135.709 345.498C135.588 345.568 135.486 345.665 135.409 345.781Z" fill="#325154"/>
<path d="M192.73 345.709C192.73 345.709 186.16 339.379 187.13 335.929C188.1 332.479 190.26 327.399 189.18 322.929C188.1 318.459 185.62 315.379 185.4 314.729C185.18 314.079 182.4 315.589 183.57 319.589L173.87 308.899C173.87 308.899 171.26 307.709 172.56 312.139C172.56 312.139 168.24 309.659 168.78 313.869C168.78 313.869 163.92 311.709 167.16 318.939C167.16 318.939 163.28 318.829 166.73 325.089C170.18 331.349 170.73 333.729 170.4 337.829C170.07 341.929 179.9 356.829 179.9 356.829C179.9 356.829 190.14 351.829 192.73 345.709Z" fill="#FFCDC2"/>
<path d="M194.17 345.78L196.68 349.56C196.811 349.752 196.86 349.989 196.817 350.217C196.774 350.446 196.642 350.648 196.45 350.78L179 363C178.888 363.077 178.761 363.128 178.627 363.149C178.493 363.17 178.356 363.161 178.226 363.121C178.096 363.082 177.977 363.014 177.877 362.922C177.777 362.83 177.7 362.716 177.65 362.59L176 358.41C175.956 358.297 175.935 358.177 175.939 358.056C175.943 357.935 175.972 357.816 176.023 357.707C176.075 357.597 176.148 357.499 176.238 357.419C176.329 357.339 176.435 357.278 176.55 357.24C182.879 354.937 188.46 350.951 192.69 345.71C192.778 345.594 192.893 345.501 193.025 345.44C193.158 345.378 193.303 345.35 193.448 345.356C193.594 345.363 193.736 345.406 193.861 345.479C193.987 345.553 194.093 345.656 194.17 345.78Z" fill="#325154"/>
<path d="M132.89 349.559C131.89 350.899 130.89 352.189 129.83 353.469C128.77 354.749 127.72 356.009 126.64 357.259C125.56 358.509 124.46 359.749 123.33 360.959L121.63 362.769C121.05 363.349 120.48 363.959 119.88 364.529C120.37 363.849 120.88 363.209 121.38 362.529L122.94 360.599C123.94 359.309 125.05 358.049 126.13 356.799C127.21 355.549 128.31 354.319 129.44 353.109C130.57 351.899 131.7 350.709 132.89 349.559Z" fill="#7A7B7C"/>
<path d="M151.92 362.598C150.987 366.044 149.725 369.393 148.15 372.598C147.367 374.213 146.485 375.78 145.51 377.288C144.549 378.809 143.462 380.248 142.26 381.588C141.041 382.929 139.66 384.115 138.15 385.118C136.638 386.142 134.917 386.818 133.111 387.096C131.306 387.375 129.461 387.249 127.71 386.728L126.44 386.288C126.02 386.108 125.62 385.908 125.22 385.718C125.02 385.618 124.81 385.528 124.61 385.418L124.04 385.068L122.91 384.358C124.438 385.262 126.084 385.952 127.8 386.408C129.504 386.837 131.28 386.898 133.01 386.588C134.729 386.251 136.361 385.571 137.81 384.588C139.266 383.604 140.593 382.442 141.76 381.128C144.102 378.469 146.095 375.522 147.69 372.358C148.523 370.784 149.283 369.178 149.97 367.538C150.69 365.998 151.33 364.288 151.92 362.598Z" fill="#7A7B7C"/>
<path d="M135.43 327L134.92 332C134.76 333.68 134.59 335.35 134.47 337C134.35 338.65 134.25 340.35 134.21 342C134.21 342.84 134.21 343.68 134.21 344.52L134.31 345.77L134.5 347.02C133.963 345.407 133.679 343.72 133.66 342.02C133.583 340.323 133.617 338.623 133.76 336.93C133.91 335.24 134.09 333.55 134.37 331.88C134.65 330.21 135 328.6 135.43 327Z" fill="#7A7B7C"/>
<path d="M196.79 348.688C197.98 349.847 199.11 351.047 200.24 352.267C201.37 353.487 202.46 354.707 203.55 355.957C204.64 357.207 205.7 358.457 206.74 359.747L208.3 361.688C208.8 362.348 209.3 362.988 209.8 363.688C209.2 363.108 208.63 362.508 208.05 361.918L206.35 360.107C205.22 358.907 204.13 357.658 203.04 356.418C201.95 355.178 200.88 353.908 199.85 352.628C198.82 351.348 197.77 349.997 196.79 348.688Z" fill="#7A7B7C"/>
<path d="M177.76 361.738C178.35 363.418 178.99 365.078 179.76 366.738C180.53 368.398 181.21 369.978 182.04 371.548C183.63 374.715 185.623 377.663 187.97 380.318C189.151 381.639 190.495 382.805 191.97 383.788C193.419 384.771 195.051 385.452 196.77 385.788C198.5 386.1 200.277 386.036 201.98 385.598C203.694 385.158 205.339 384.486 206.87 383.598L205.74 384.308L205.17 384.658L204.56 384.948C204.16 385.138 203.76 385.348 203.34 385.518L202.07 385.958C200.322 386.474 198.483 386.604 196.68 386.338C194.873 386.039 193.151 385.357 191.63 384.338C190.122 383.333 188.742 382.147 187.52 380.808C186.318 379.469 185.231 378.03 184.27 376.508C183.299 374.998 182.418 373.432 181.63 371.818C180.018 368.591 178.722 365.215 177.76 361.738Z" fill="#7A7B7C"/>
<path d="M194.25 326.098C194.69 327.738 195 329.408 195.25 331.098C195.5 332.788 195.72 334.448 195.86 336.098C196.003 337.79 196.037 339.491 195.96 341.188C195.941 342.888 195.657 344.575 195.12 346.188L195.31 344.938L195.41 343.678C195.41 342.838 195.47 342.008 195.41 341.168C195.41 339.488 195.3 337.808 195.15 336.168C195 334.528 194.86 332.818 194.7 331.168L194.25 326.098Z" fill="#7A7B7C"/>
<path d="M146.439 427.559C146.999 428.759 147.439 429.989 147.919 431.229C148.399 432.469 148.759 433.719 149.129 434.989C149.868 437.522 150.472 440.092 150.939 442.689C151.401 445.286 151.718 447.906 151.889 450.539C151.989 451.849 152.019 453.169 152.039 454.489C152.039 455.149 152.039 455.809 152.039 456.489C152.039 457.169 151.989 457.809 151.959 458.489C151.819 455.859 151.719 453.239 151.419 450.629C151.289 449.329 151.119 448.029 150.949 446.729C150.779 445.429 150.569 444.139 150.309 442.859C149.889 440.269 149.309 437.719 148.669 435.169C148.029 432.619 147.279 430.059 146.439 427.559Z" fill="#7A7B7C"/>
<path d="M181 423C180.333 424.513 179.76 426.047 179.28 427.6C178.8 429.153 178.346 430.72 177.92 432.3C177.12 435.455 176.631 438.68 176.46 441.93C176.257 445.176 176.513 448.435 177.22 451.61C177.947 454.791 179.226 457.821 181 460.56C180.001 459.255 179.133 457.855 178.41 456.38C177.703 454.886 177.138 453.329 176.72 451.73C175.918 448.518 175.601 445.205 175.78 441.9C176.204 435.308 177.981 428.875 181 423Z" fill="#7A7B7C"/>
<path d="M163.35 279.358H170.9C170.9 279.358 166.8 276.338 163.35 279.358Z" fill="#EFA39C"/>
<path d="M146 319.629C145.44 320.579 144.91 321.509 144.41 322.449C143.91 323.389 143.41 324.339 143.06 325.319C142.672 326.291 142.367 327.295 142.15 328.319C141.963 329.368 141.892 330.434 141.94 331.499C141.496 330.465 141.298 329.342 141.36 328.219C141.45 327.097 141.706 325.995 142.12 324.949C142.546 323.92 143.09 322.944 143.74 322.039C144.372 321.13 145.134 320.319 146 319.629Z" fill="#E0A4AB"/>
<path d="M157 312.18C156.566 313.171 156.068 314.133 155.51 315.06C154.97 315.99 154.39 316.88 153.79 317.77C153.19 318.66 152.55 319.52 151.88 320.36C151.221 321.216 150.506 322.028 149.74 322.79C150.173 321.801 150.67 320.842 151.23 319.92C151.77 318.99 152.35 318.09 152.95 317.2C153.55 316.31 154.19 315.45 154.86 314.61C155.525 313.758 156.24 312.947 157 312.18Z" fill="#E0A4AB"/>
<path d="M160.65 314.32C160.211 315.309 159.714 316.271 159.16 317.2C158.62 318.13 158.03 319.02 157.43 319.91C156.83 320.8 156.2 321.66 155.52 322.5C154.864 323.359 154.148 324.171 153.38 324.93C153.816 323.944 154.314 322.985 154.87 322.06C155.41 321.13 156 320.23 156.6 319.34C157.2 318.45 157.83 317.59 158.51 316.75C159.171 315.896 159.886 315.084 160.65 314.32Z" fill="#E0A4AB"/>
<path d="M162.21 319.629C162.01 320.396 161.746 321.146 161.42 321.869C161.123 322.585 160.789 323.286 160.42 323.969C160.047 324.658 159.636 325.325 159.19 325.969C158.748 326.631 158.25 327.253 157.7 327.829C157.903 327.062 158.167 326.313 158.49 325.589C158.8 324.859 159.16 324.169 159.49 323.479C159.82 322.789 160.28 322.129 160.73 321.479C161.172 320.823 161.667 320.204 162.21 319.629Z" fill="#E0A4AB"/>
<path d="M184.08 319.629C184.927 320.242 185.673 320.985 186.29 321.829C186.918 322.678 187.439 323.602 187.84 324.579C188.228 325.573 188.451 326.623 188.5 327.689C188.537 328.752 188.328 329.809 187.89 330.779C187.932 329.775 187.871 328.77 187.71 327.779C187.527 326.815 187.252 325.871 186.89 324.959C186.115 323.102 185.175 321.318 184.08 319.629Z" fill="#E0A4AB"/>
<path d="M173.07 312.18C173.834 312.944 174.549 313.756 175.21 314.61C175.88 315.45 176.51 316.32 177.12 317.2C177.73 318.08 178.31 318.99 178.85 319.92C179.406 320.844 179.904 321.803 180.34 322.79C179.571 322.028 178.853 321.216 178.19 320.36C177.52 319.52 176.9 318.65 176.28 317.77C175.66 316.89 175.1 315.99 174.56 315.06C174.006 314.13 173.509 313.169 173.07 312.18Z" fill="#E0A4AB"/>
<path d="M169.439 314.32C170.198 315.09 170.912 315.901 171.579 316.75C172.249 317.59 172.869 318.46 173.489 319.34C174.109 320.22 174.669 321.13 175.209 322.06C175.769 322.983 176.267 323.942 176.699 324.93C175.934 324.168 175.219 323.356 174.559 322.5C173.889 321.66 173.259 320.79 172.649 319.91C172.039 319.03 171.469 318.13 170.929 317.2C170.372 316.273 169.874 315.311 169.439 314.32Z" fill="#E0A4AB"/>
<path d="M167.87 319.629C168.416 320.205 168.912 320.827 169.35 321.489C170.244 322.777 171.008 324.15 171.63 325.589C171.957 326.311 172.222 327.061 172.42 327.829C171.874 327.253 171.379 326.631 170.94 325.969C170.491 325.325 170.077 324.658 169.7 323.969C169.331 323.286 168.997 322.585 168.7 321.869C168.365 321.145 168.088 320.396 167.87 319.629Z" fill="#E0A4AB"/>
<path d="M148.76 261.081C148.76 261.081 143.51 255.901 143.08 262.521C142.65 269.141 154.45 272.311 154.45 272.311L148.76 261.081Z" fill="#E0A4AB"/>
<path d="M184.849 260.889C184.849 260.889 190.089 255.709 190.519 262.329C190.949 268.949 179.149 272.119 179.149 272.119L184.849 260.889Z" fill="#E0A4AB"/>
<path d="M148.689 265.538C148.689 265.538 149.589 275.258 151.959 278.698C154.449 282.328 159.509 289.318 166.579 289.858C171.299 290.228 178.499 282.968 180.829 279.358C183.829 274.648 184.269 266.278 184.269 266.278L185.599 244.098L147.399 250.098L148.689 265.538Z" fill="#FFCDC2"/>
<path d="M146.08 252.359L148.69 265.539L149.38 249.379L146.08 252.359Z" fill="#414042"/>
<path d="M186.839 252.318L184.35 266.288L182.729 249.008L186.839 252.318Z" fill="#414042"/>
<path d="M147.5 254.46H185.43C185.719 254.461 186.004 254.402 186.27 254.287C186.535 254.172 186.773 254.004 186.97 253.793C187.167 253.582 187.319 253.332 187.415 253.06C187.511 252.787 187.55 252.498 187.53 252.21C187 246 184.1 229 166.47 229C148.84 229 145.89 246 145.41 252.22C145.389 252.507 145.428 252.795 145.524 253.066C145.619 253.337 145.77 253.586 145.966 253.796C146.162 254.006 146.4 254.174 146.664 254.288C146.928 254.402 147.212 254.461 147.5 254.46Z" fill="#979A9B"/>
<path d="M153.649 262.811C153.955 262.027 154.462 261.337 155.119 260.811C155.799 260.258 156.607 259.887 157.469 259.731C158.341 259.573 159.239 259.666 160.059 260.001C160.454 260.16 160.827 260.368 161.169 260.621C161.495 260.885 161.79 261.183 162.049 261.511C161.629 261.441 161.259 261.301 160.879 261.221C160.516 261.139 160.149 261.076 159.779 261.031C159.091 260.916 158.388 260.916 157.699 261.031C156.248 261.361 154.874 261.966 153.649 262.811Z" fill="#414042"/>
<path d="M172 261.548C172.437 260.89 173.046 260.365 173.76 260.028C174.488 259.665 175.297 259.493 176.11 259.528C176.931 259.544 177.732 259.79 178.42 260.238C179.095 260.654 179.636 261.254 179.98 261.968C179.327 261.68 178.659 261.427 177.98 261.208C177.366 261.006 176.726 260.895 176.08 260.878C174.693 260.879 173.315 261.106 172 261.548Z" fill="#414042"/>
<path d="M154.06 266.551C155.314 266.85 156.6 267.005 157.89 267.011C158.499 267.005 159.105 266.935 159.7 266.801C160.32 266.691 160.92 266.461 161.7 266.281C161.323 266.918 160.78 267.44 160.13 267.791C159.469 268.159 158.726 268.355 157.97 268.361C157.219 268.384 156.473 268.233 155.79 267.921C155.098 267.632 154.499 267.158 154.06 266.551Z" fill="#414042"/>
<path d="M172 266.551C173.27 266.797 174.557 266.94 175.85 266.981C176.458 266.986 177.065 266.925 177.66 266.801C178.312 266.662 178.956 266.489 179.59 266.281C179.229 266.929 178.687 267.457 178.03 267.801C177.362 268.155 176.616 268.338 175.86 268.331C175.119 268.332 174.386 268.175 173.71 267.871C173.038 267.582 172.45 267.128 172 266.551Z" fill="#414042"/>
<path d="M162.08 281.69H169.63C169.63 281.69 165.53 278.66 162.08 281.69Z" fill="#EA7185"/>
<path d="M165.069 268.461C165.282 269.619 165.389 270.794 165.389 271.971C165.396 272.192 165.42 272.413 165.459 272.631C165.484 272.726 165.514 272.819 165.549 272.911L165.649 273.221C165.71 273.431 165.79 273.636 165.889 273.831L166.359 274.631C166.041 274.757 165.692 274.781 165.359 274.701C164.995 274.602 164.672 274.388 164.439 274.091C164.327 273.952 164.229 273.801 164.149 273.641C164.054 273.473 163.987 273.29 163.949 273.101C163.872 272.743 163.852 272.375 163.889 272.011C163.939 271.381 164.066 270.759 164.269 270.161C164.458 269.561 164.728 268.989 165.069 268.461Z" fill="#E0A4AB"/>
<path d="M184.57 266.441C184.584 266.624 184.637 266.803 184.725 266.965C184.813 267.127 184.934 267.269 185.08 267.381C185.229 267.47 185.396 267.527 185.568 267.545C185.741 267.564 185.916 267.546 186.08 267.491C186.714 267.25 187.29 266.879 187.77 266.401C188.303 265.909 188.714 265.299 188.97 264.621C189.251 263.887 189.314 263.089 189.15 262.321C189.069 261.918 188.887 261.543 188.62 261.231C188.494 261.065 188.328 260.935 188.137 260.853C187.946 260.77 187.737 260.739 187.53 260.761C187.142 260.82 186.788 261.015 186.53 261.311C186.279 261.563 186.063 261.849 185.89 262.161C185.515 262.792 185.274 263.493 185.18 264.221C185.107 264.61 185.19 265.012 185.41 265.341C185.479 265.403 185.565 265.441 185.657 265.45C185.749 265.459 185.841 265.438 185.92 265.391C186.068 265.308 186.203 265.203 186.32 265.081C186.189 265.172 186.044 265.243 185.89 265.291C185.827 265.319 185.756 265.327 185.687 265.312C185.619 265.298 185.557 265.262 185.51 265.211C185.398 264.911 185.398 264.581 185.51 264.281C185.642 263.628 185.912 263.011 186.3 262.471C186.67 261.971 187.14 261.471 187.61 261.391C188.08 261.311 188.47 261.861 188.61 262.471C188.714 263.106 188.667 263.756 188.473 264.37C188.278 264.983 187.942 265.542 187.49 266.001C187.079 266.481 186.576 266.876 186.01 267.161C185.879 267.222 185.735 267.253 185.59 267.253C185.445 267.253 185.302 267.222 185.17 267.161C184.885 267.007 184.67 266.749 184.57 266.441Z" fill="#FFCDC2"/>
<path d="M185.37 263.88C185.63 263.53 186.06 263.13 186.3 263.4C186.422 263.551 186.505 263.729 186.54 263.92C186.575 264.11 186.561 264.307 186.5 264.49C186.357 264.874 186.124 265.217 185.82 265.49C185.68 265.647 185.509 265.772 185.318 265.858C185.127 265.944 184.92 265.989 184.71 265.99C184.809 266.056 184.92 266.101 185.037 266.122C185.154 266.142 185.274 266.139 185.39 266.11C185.62 266.056 185.837 265.957 186.03 265.82C186.46 265.535 186.775 265.106 186.92 264.61C187.009 264.333 187.012 264.035 186.931 263.755C186.849 263.475 186.685 263.226 186.46 263.04C186.391 263.001 186.314 262.978 186.234 262.971C186.155 262.964 186.075 262.974 186 263C185.872 263.038 185.76 263.115 185.68 263.22C185.529 263.415 185.423 263.64 185.37 263.88Z" fill="#FFCDC2"/>
<path d="M148.42 266.441C148.406 266.624 148.353 266.803 148.265 266.965C148.178 267.127 148.057 267.269 147.91 267.381C147.761 267.47 147.595 267.527 147.422 267.545C147.25 267.564 147.075 267.546 146.91 267.491C146.278 267.248 145.702 266.877 145.22 266.401C144.687 265.909 144.277 265.299 144.02 264.621C143.739 263.887 143.676 263.089 143.84 262.321C143.922 261.918 144.104 261.543 144.37 261.231C144.496 261.065 144.663 260.935 144.854 260.853C145.044 260.77 145.253 260.739 145.46 260.761C145.848 260.82 146.202 261.015 146.46 261.311C146.712 261.563 146.927 261.849 147.1 262.161C147.484 262.788 147.726 263.491 147.81 264.221C147.883 264.61 147.801 265.012 147.58 265.341C147.512 265.403 147.425 265.441 147.333 265.45C147.242 265.459 147.149 265.438 147.07 265.391C146.924 265.31 146.792 265.205 146.68 265.081C146.807 265.174 146.949 265.245 147.1 265.291C147.164 265.319 147.235 265.327 147.303 265.312C147.371 265.298 147.433 265.262 147.48 265.211C147.597 264.912 147.597 264.58 147.48 264.281C147.348 263.628 147.079 263.011 146.69 262.471C146.32 261.971 145.85 261.471 145.38 261.391C144.91 261.311 144.52 261.861 144.38 262.471C144.275 263.106 144.322 263.758 144.519 264.372C144.715 264.986 145.055 265.544 145.51 266.001C145.916 266.483 146.416 266.878 146.98 267.161C147.112 267.222 147.255 267.253 147.4 267.253C147.545 267.253 147.689 267.222 147.82 267.161C148.107 267.009 148.323 266.75 148.42 266.441Z" fill="#FFCDC2"/>
<path d="M147.619 263.879C147.359 263.529 146.929 263.129 146.699 263.399C146.573 263.546 146.487 263.725 146.452 263.917C146.417 264.108 146.433 264.306 146.499 264.489C146.635 264.873 146.866 265.217 147.169 265.489C147.31 265.645 147.481 265.769 147.672 265.856C147.863 265.942 148.07 265.987 148.279 265.989C148.182 266.054 148.073 266.099 147.957 266.12C147.842 266.14 147.723 266.137 147.609 266.109C147.376 266.056 147.155 265.957 146.959 265.819C146.529 265.533 146.214 265.104 146.069 264.609C145.981 264.331 145.977 264.033 146.059 263.753C146.141 263.473 146.305 263.225 146.529 263.039C146.6 262.998 146.679 262.974 146.76 262.967C146.841 262.96 146.923 262.971 146.999 262.999C147.129 263.038 147.243 263.115 147.329 263.219C147.471 263.416 147.569 263.641 147.619 263.879Z" fill="#FFCDC2"/>
<path d="M376 403.848H364L275.89 404.928L260.5 460.738C259.765 463.046 259.585 465.496 259.975 467.887C260.365 470.278 261.314 472.544 262.745 474.499C264.175 476.455 266.047 478.045 268.207 479.141C270.368 480.238 272.757 480.808 275.18 480.808H374.4C376.747 480.806 379.062 480.268 381.17 479.235C383.278 478.202 385.121 476.701 386.561 474.847C388 472.993 388.997 470.835 389.475 468.537C389.953 466.239 389.9 463.862 389.32 461.588L376 403.848Z" fill="#6F8587"/>
<path d="M286.39 368.098C286.39 368.098 277.97 364.098 279.89 342.098C281.81 320.098 282.78 312.308 292.65 303.158C302.52 294.008 306.65 289.648 305.76 278.258C304.57 263.638 308.17 248.258 326.59 248.258C345.96 248.258 348.48 262.258 347.76 273.258C347.04 284.258 345.84 289.798 353.76 296.568C361.68 303.338 370.61 308.638 370.85 331.978C371.09 355.318 368.92 361.338 365.31 368.078C365.31 368.078 366.31 378.908 373.49 397.198C380.67 415.488 383.36 430.198 368.92 434.988C354.48 439.778 343.65 433.058 327.53 433.058C311.41 433.058 301.29 442.688 283.48 434.988C265.67 427.288 269.48 416.938 278.19 400.328C283.392 390.368 286.199 379.333 286.39 368.098Z" fill="#325154"/>
<path d="M306 268.84C306.373 269.08 306.782 269.263 307.21 269.38C307.62 269.511 308.037 269.618 308.46 269.7C308.88 269.79 309.32 269.85 309.74 269.92L311.02 270.09C312.74 270.27 314.47 270.34 316.19 270.42C319.65 270.52 323.12 270.53 326.61 270.54H337.08C338.82 270.54 340.56 270.54 342.29 270.42C343.16 270.42 344.01 270.3 344.88 270.2C345.314 270.151 345.744 270.077 346.17 269.98C346.602 269.903 347.017 269.754 347.4 269.54C346.822 270.277 346.074 270.864 345.22 271.25C344.398 271.673 343.546 272.034 342.67 272.33C340.938 272.908 339.162 273.346 337.36 273.64C333.803 274.223 330.204 274.504 326.6 274.48C322.983 274.485 319.374 274.15 315.82 273.48C314.02 273.114 312.254 272.599 310.54 271.94C310.11 271.75 309.69 271.57 309.27 271.37C308.851 271.167 308.443 270.94 308.05 270.69C307.229 270.246 306.526 269.611 306 268.84Z" fill="#284344"/>
<path d="M305.76 270.539C306.135 270.783 306.542 270.975 306.97 271.109C307.381 271.256 307.802 271.373 308.23 271.459C309.08 271.659 309.94 271.789 310.8 271.909C312.52 272.119 314.26 272.229 315.99 272.319C319.47 272.479 322.99 272.499 326.48 272.509H337.02C338.78 272.509 340.53 272.509 342.28 272.389C343.15 272.389 344.02 272.269 344.89 272.179C345.32 272.119 345.76 272.049 346.19 271.949C346.625 271.867 347.043 271.715 347.43 271.499C346.847 272.243 346.092 272.833 345.23 273.219C344.4 273.641 343.542 274.002 342.66 274.299C340.911 274.88 339.118 275.321 337.3 275.619C333.716 276.196 330.09 276.47 326.46 276.439C322.806 276.45 319.161 276.092 315.58 275.369C313.767 274.987 311.993 274.442 310.28 273.739C309.413 273.376 308.58 272.938 307.79 272.429C306.977 271.963 306.283 271.316 305.76 270.539Z" fill="#284344"/>
<path d="M309.45 292.469C310.37 294.009 311.06 295.469 311.76 296.809C312.46 298.149 313.11 299.459 313.83 300.659C314.519 301.841 315.326 302.95 316.24 303.969C317.314 305.096 318.507 306.102 319.8 306.969C318.018 307.517 316.092 307.341 314.44 306.479C312.769 305.614 311.381 304.288 310.44 302.659C309.531 301.114 308.965 299.392 308.78 297.609C308.564 295.866 308.794 294.098 309.45 292.469Z" fill="#284344"/>
<path d="M340.489 292.469C341.154 294.106 341.388 295.886 341.169 297.639C340.985 299.422 340.418 301.144 339.509 302.689C338.568 304.318 337.18 305.644 335.509 306.509C333.857 307.371 331.931 307.547 330.149 306.999C331.438 306.127 332.631 305.121 333.709 303.999C334.623 302.98 335.43 301.871 336.119 300.689C336.839 299.489 337.499 298.199 338.189 296.839C338.879 295.479 339.569 293.999 340.489 292.469Z" fill="#284344"/>
<path d="M289.76 351.141C291.135 349.837 292.431 348.451 293.64 346.991C294.838 345.555 295.962 344.06 297.01 342.511C298.057 340.978 299.016 339.385 299.88 337.741C300.11 337.341 300.3 336.921 300.5 336.511L301.12 335.271C301.48 334.411 301.86 333.621 302.22 332.721C302.95 330.951 303.72 329.181 304.59 327.441C305.466 325.658 306.468 323.941 307.59 322.301C308.764 320.532 310.231 318.976 311.93 317.701C312.884 317.031 313.941 316.52 315.06 316.191C316.206 315.863 317.403 315.751 318.59 315.861C319.719 315.976 320.826 316.248 321.88 316.671C322.967 317.098 323.98 317.696 324.88 318.441C325.8 319.231 326.549 320.201 327.08 321.291C327.595 322.328 327.933 323.443 328.08 324.591C328.307 326.682 328.175 328.795 327.69 330.841C327.261 332.771 326.679 334.664 325.95 336.501C325.26 338.311 324.48 340.111 323.69 341.811C322.916 343.495 322.248 345.225 321.69 346.991C320.495 350.565 319.668 354.25 319.22 357.991C318.857 354.153 319.056 350.282 319.81 346.501C320.179 344.591 320.674 342.707 321.29 340.861C321.9 339.031 322.54 337.311 323.04 335.521C323.56 333.774 323.974 331.998 324.28 330.201C324.579 328.527 324.616 326.817 324.39 325.131C324.213 323.69 323.499 322.368 322.39 321.431C321.82 320.967 321.178 320.599 320.49 320.341C319.778 320.062 319.031 319.88 318.27 319.801C316.819 319.667 315.369 320.065 314.19 320.921C312.832 321.91 311.646 323.116 310.68 324.491C308.541 327.508 306.642 330.688 305 334.001C301.618 341.024 296.339 346.961 289.76 351.141Z" fill="#284344"/>
<path d="M363.14 351.858C356.555 347.684 351.269 341.75 347.88 334.728C346.267 331.416 344.401 328.233 342.3 325.208C341.334 323.833 340.148 322.627 338.79 321.638C337.611 320.781 336.161 320.383 334.71 320.518C333.948 320.595 333.2 320.781 332.49 321.068C331.803 321.324 331.162 321.689 330.59 322.148C329.481 323.089 328.767 324.414 328.59 325.858C328.363 327.54 328.401 329.247 328.7 330.918C329.006 332.714 329.42 334.491 329.94 336.238C330.44 338.028 331.08 339.748 331.69 341.578C332.306 343.423 332.8 345.308 333.17 347.218C333.924 351.002 334.123 354.876 333.76 358.718C333.312 354.977 332.485 351.291 331.29 347.718C330.732 345.951 330.064 344.221 329.29 342.538C328.5 340.838 327.72 339.048 327.03 337.238C326.302 335.396 325.72 333.501 325.29 331.568C324.806 329.522 324.671 327.409 324.89 325.318C325.042 324.171 325.379 323.056 325.89 322.018C326.421 320.927 327.17 319.957 328.09 319.168C328.987 318.421 330.001 317.827 331.09 317.408C332.141 316.977 333.249 316.701 334.38 316.588C335.567 316.478 336.764 316.59 337.91 316.918C339.031 317.246 340.089 317.76 341.04 318.438C342.738 319.709 344.206 321.261 345.38 323.028C346.502 324.667 347.504 326.385 348.38 328.168C349.25 329.908 350.02 331.678 350.75 333.448C351.11 334.348 351.48 335.148 351.85 335.998L352.47 337.238C352.67 337.648 352.86 338.068 353.09 338.468C353.954 340.112 354.912 341.704 355.96 343.238C356.999 344.793 358.124 346.289 359.33 347.718C360.514 349.174 361.787 350.557 363.14 351.858Z" fill="#284344"/>
<path d="M312.5 393.848C312.82 396.258 313.16 398.628 313.61 400.948C314.024 403.232 314.609 405.481 315.36 407.678C315.976 409.696 317.047 411.547 318.49 413.088C319.119 413.698 319.894 414.138 320.74 414.368C321.61 414.585 322.518 414.612 323.4 414.448C325.329 413.988 327.058 412.918 328.33 411.398C329.861 409.702 331.259 407.89 332.51 405.978C333.84 403.978 335.15 401.978 336.62 400.048C337.35 399.065 338.135 398.123 338.97 397.228C339.793 396.312 340.727 395.502 341.75 394.818C340.398 396.781 339.239 398.871 338.29 401.058C337.29 403.208 336.29 405.398 335.18 407.568C334.073 409.827 332.714 411.954 331.13 413.908C330.253 414.95 329.244 415.874 328.13 416.658C326.928 417.492 325.566 418.067 324.13 418.348C323.397 418.474 322.653 418.521 321.91 418.488C321.155 418.454 320.407 418.333 319.68 418.128C318.216 417.674 316.896 416.847 315.85 415.728C314.905 414.7 314.141 413.52 313.59 412.238C313.066 411.045 312.664 409.802 312.39 408.528C311.874 406.093 311.643 403.606 311.7 401.118C311.7 399.888 311.79 398.668 311.93 397.458C312.05 396.244 312.24 395.039 312.5 393.848Z" fill="#284344"/>
<path d="M313.66 266.739C313.66 266.739 327.25 257.839 339.39 266.459C339.39 266.459 347 294.269 326 293.459C309.07 292.869 313.66 266.739 313.66 266.739Z" fill="#FFCDC2"/>
<path d="M316.32 271.819C316.569 271.157 316.995 270.576 317.55 270.139C318.127 269.668 318.816 269.355 319.55 269.229C320.281 269.092 321.035 269.172 321.72 269.459C322.052 269.59 322.365 269.765 322.65 269.979C322.921 270.2 323.169 270.448 323.39 270.719C323.03 270.659 322.73 270.539 322.39 270.479C322.088 270.403 321.78 270.35 321.47 270.319C320.895 270.219 320.306 270.219 319.73 270.319C318.506 270.591 317.348 271.1 316.32 271.819Z" fill="#414042"/>
<path d="M330.82 270.76C331.185 270.211 331.694 269.772 332.29 269.49C332.911 269.185 333.599 269.04 334.29 269.07C334.981 269.084 335.653 269.292 336.23 269.67C336.508 269.85 336.763 270.061 336.99 270.3C337.204 270.548 337.388 270.82 337.54 271.11C336.92 270.88 336.4 270.61 335.85 270.47C335.333 270.302 334.794 270.211 334.25 270.2C333.084 270.2 331.926 270.389 330.82 270.76Z" fill="#414042"/>
<path d="M316.66 274.939C317.708 275.192 318.782 275.322 319.86 275.329C320.372 275.323 320.881 275.263 321.38 275.149C321.9 275.059 322.38 274.859 323.01 274.719C322.7 275.258 322.246 275.701 321.7 275.999C321.146 276.306 320.524 276.471 319.89 276.479C319.263 276.49 318.641 276.36 318.07 276.099C317.502 275.851 317.013 275.449 316.66 274.939Z" fill="#414042"/>
<path d="M330.89 274.939C331.951 275.148 333.028 275.268 334.11 275.299C334.617 275.298 335.122 275.248 335.62 275.149C336.14 275.069 336.62 274.869 337.24 274.719C336.935 275.257 336.48 275.695 335.93 275.979C335.374 276.28 334.751 276.435 334.12 276.429C333.5 276.427 332.887 276.297 332.32 276.049C331.757 275.805 331.265 275.424 330.89 274.939Z" fill="#414042"/>
<path d="M323.37 287.601H329.69C329.69 287.601 326.26 285.071 323.37 287.601Z" fill="#EA7185"/>
<path d="M325.87 276.539C326.048 277.506 326.138 278.486 326.14 279.469C326.145 279.657 326.165 279.844 326.2 280.029C326.217 280.108 326.241 280.184 326.27 280.259L326.35 280.519C326.406 280.695 326.476 280.865 326.56 281.029L326.95 281.699C326.677 281.81 326.375 281.827 326.09 281.749C325.786 281.671 325.515 281.495 325.32 281.249C325.224 281.131 325.141 281.004 325.07 280.869C324.999 280.725 324.942 280.574 324.9 280.419C324.863 280.117 324.863 279.811 324.9 279.509C324.944 278.981 325.052 278.461 325.22 277.959C325.373 277.459 325.591 276.981 325.87 276.539Z" fill="#E0A4AB"/>
<path d="M63.1699 382C63.1699 382 69.2799 370.65 64.8799 365.38C60.4799 360.11 68.1999 356.7 64.1799 351.38C60.1599 346.06 68.1199 342.55 62.9099 337.25C62.9099 337.25 53.7599 338.82 57.6699 345.91C61.5799 353 50.1699 351.64 57.0699 360.76C64.6499 370.74 51.1499 372.32 63.1699 382Z" fill="#4C9B2F"/>
<path d="M63.2096 381.789C63.3796 382.859 73.3695 383.239 74.1295 375.459C74.8895 367.679 82.7896 374.789 82.7196 365.609C82.6496 356.429 89.0296 362.489 88.5996 354.669C88.5996 354.669 82.0396 349.879 80.5996 357.109C79.1596 364.339 70.9195 357.989 70.7395 367.209C70.5595 376.429 61.2996 370.049 63.2096 381.789Z" fill="#4C9B2F"/>
<path d="M63.1701 381.998C63.1701 381.998 72.1701 379.158 70.8901 372.168C69.6101 365.178 78.6801 365.338 76.2601 358.888C73.8401 352.438 81.7501 349.028 80.0501 343.368C78.3501 337.708 86.3701 339.368 83.9801 328.578C83.9801 328.578 75.5001 329.088 75.3701 336.168C75.2401 343.248 68.7701 339.278 69.5701 348.498C70.3701 357.718 60.3501 357.368 62.8601 362.428C65.3701 367.488 56.4801 373.088 63.1701 381.998Z" fill="#5DBA3E"/>
<path d="M81.8502 331.809C80.9002 333.659 79.9702 335.519 79.0902 337.399C78.2102 339.279 77.3102 341.159 76.4602 343.049C74.7602 346.839 73.1202 350.659 71.6302 354.529C70.1402 358.399 68.7502 362.329 67.5002 366.289C66.9202 368.289 66.3002 370.289 65.8302 372.289C65.3602 374.289 64.9102 376.289 64.4502 378.379C64.7902 376.319 65.0902 374.259 65.5702 372.229C66.0502 370.199 66.5702 368.179 67.1002 366.169C67.3902 365.169 67.7002 364.169 68.0202 363.169C68.1702 362.669 68.3202 362.169 68.4902 361.679L69.0002 360.199L69.5102 358.719C69.6702 358.229 69.8502 357.719 70.0302 357.249L71.1302 354.319C72.6702 350.449 74.3002 346.619 76.1302 342.859C77.0202 340.989 77.9402 339.119 78.8902 337.269C79.3702 336.349 79.8902 335.429 80.3602 334.519C80.8302 333.609 81.3202 332.709 81.8502 331.809Z" fill="#449935"/>
<path d="M39.5798 384.27C26.2498 387.17 3.91982 375 5.32982 368.84C7.61982 358.95 20.5098 369.64 23.0798 364.84C25.8598 359.61 -2.71018 353.29 0.209817 337.48C0.979817 333.3 7.35982 330.4 11.0598 333.97C14.7598 337.54 18.2898 343.97 21.2398 341.58C26.3998 337.42 2.73982 312.17 16.5798 307.26C24.4198 304.47 28.6598 311.17 30.7898 319.59C32.2498 325.4 32.4898 336.02 35.2698 336.29C39.5498 336.71 42.0098 312.74 50.2698 320.29C60.4198 329.6 38.3598 353.97 42.8198 358.73C45.5898 361.73 58.8898 340.96 62.8698 347.11C68.0698 355.16 53.4298 381.25 39.5798 384.27Z" fill="#5DBA3E"/>
<path d="M52.1196 360.999C50.4396 362.589 48.7896 364.209 47.1196 365.839C45.4496 367.469 43.8496 369.099 42.2496 370.769C40.8996 372.169 39.5496 373.569 38.2496 374.989C37.7396 371.909 37.1796 368.829 36.5796 365.769C35.9796 362.709 35.3196 359.649 34.6596 356.599C34.5796 356.239 34.4896 355.889 34.4096 355.529C35.7096 353.379 36.9196 351.179 38.1196 348.989C39.3196 346.799 40.4996 344.449 41.5996 342.129C42.6996 339.809 43.7196 337.469 44.5996 335.059C45.573 332.672 46.2449 330.173 46.5996 327.619C45.9082 330.067 44.9875 332.444 43.8496 334.719C43.3196 335.869 42.7496 337.009 42.1696 338.139C41.5896 339.269 41.0096 340.399 40.4096 341.519C39.2096 343.759 37.9829 345.986 36.7296 348.199C35.8096 349.869 34.8396 351.519 33.8796 353.199C33.4262 351.312 32.9629 349.422 32.4896 347.529C32.1096 346.009 31.6996 344.529 31.2796 342.999C30.8596 341.469 30.4696 339.999 30.0096 338.489L28.5996 333.999C28.1396 332.509 27.5996 330.999 27.1196 329.549C25.1555 323.61 22.7177 317.838 19.8296 312.289C22.1596 318.089 24.0596 324.009 25.8296 329.959L27.1396 334.429L28.3896 338.929C28.8196 340.419 29.1996 341.929 29.6096 343.429C30.0196 344.929 30.4096 346.429 30.7796 347.949C31.3329 350.062 31.8662 352.172 32.3796 354.279L32.0796 354.199C31.5196 354.039 30.9596 353.859 30.3996 353.679C29.2896 353.299 28.1696 352.909 27.0596 352.499C24.8296 351.669 22.6396 350.769 20.4596 349.809C18.2796 348.849 16.1496 347.809 14.0996 346.629C13.0613 346.051 12.0594 345.41 11.0996 344.709C10.1275 344.025 9.27021 343.192 8.55957 342.239C9.15929 343.292 9.9454 344.227 10.8796 344.999C11.7724 345.812 12.7214 346.56 13.7196 347.239C15.7254 348.612 17.8237 349.845 19.9996 350.929C22.1396 352.029 24.3396 353.019 26.5696 353.929C27.6896 354.389 28.8096 354.819 29.9596 355.209C30.5262 355.409 31.1062 355.599 31.6996 355.779L32.5996 356.029L32.9096 356.089C33.7296 359.422 34.5329 362.756 35.3196 366.089L37.5296 375.459C36.1096 375.209 34.6896 374.969 33.2596 374.739C31.5896 374.459 29.9096 374.219 28.2596 373.969C26.6096 373.719 24.8996 373.499 23.2596 373.289C21.6196 373.079 19.8796 372.889 18.1896 372.749C19.8296 373.209 21.4696 373.629 23.1196 374.029C24.7696 374.429 26.4296 374.819 28.1196 375.179C29.8096 375.539 31.4396 375.899 33.1196 376.229C34.7996 376.559 36.4196 376.899 38.0696 377.229L39.7496 384.319C39.4496 381.909 39.1096 379.519 38.7496 377.119L38.8796 376.989C40.4896 375.339 42.0796 373.659 43.6596 371.989C45.2396 370.319 46.7896 368.599 48.3596 366.899C49.9296 365.199 51.4396 363.459 52.9496 361.709C54.4596 359.959 55.9496 358.199 57.4096 356.379C55.4796 357.839 53.7996 359.429 52.1196 360.999Z" fill="#4C9B2F"/>
<path d="M434.75 384.911C434.75 384.911 445.69 364.911 437.64 355.611C429.59 346.311 443.55 340.351 436.19 330.831C428.83 321.311 443.19 315.301 433.71 305.891C433.71 305.891 417.14 308.551 424.32 321.091C431.5 333.631 410.79 331.091 423.42 347.271C437.29 365.001 412.84 367.651 434.75 384.911Z" fill="#4C9B2F"/>
<path d="M434.83 384.5C435.15 386.38 453.28 387.18 454.56 373.5C455.84 359.82 470.25 372.43 470 356.24C469.75 340.05 481.41 350.82 480.53 337.02C480.53 337.02 468.53 328.49 466.06 341.22C463.59 353.95 448.51 342.65 448.3 358.91C448.09 375.17 431.21 363.77 434.83 384.5Z" fill="#4C9B2F"/>
<path d="M434.76 384.828C434.76 384.828 451.05 379.938 448.64 367.598C446.23 355.258 462.64 355.658 458.2 344.238C453.76 332.818 468.04 326.928 464.88 316.918C461.72 306.908 476.29 309.918 471.81 290.918C471.81 290.918 456.44 291.708 456.3 304.188C456.16 316.668 444.37 309.588 445.93 325.868C447.49 342.148 429.33 341.378 433.93 350.338C438.53 359.298 422.5 369.068 434.76 384.828Z" fill="#5DBA3E"/>
<path d="M468 296.59C466.31 299.85 464.65 303.11 463.07 306.42C461.49 309.73 459.89 313.01 458.37 316.35C455.37 323.01 452.42 329.72 449.75 336.54C447.08 343.36 444.64 350.24 442.42 357.21C441.42 360.72 440.29 364.21 439.42 367.78C438.42 371.31 437.79 374.92 437 378.5C437.58 374.88 438.11 371.24 438.95 367.67C439.79 364.1 440.71 360.55 441.64 357C442.16 355.24 442.71 353.49 443.26 351.74C443.54 350.86 443.8 349.98 444.1 349.11L445.01 346.51L445.91 343.91C446.21 343.05 446.52 342.18 446.85 341.33L448.79 336.18C451.55 329.37 454.46 322.63 457.65 316.03C459.25 312.73 460.897 309.453 462.59 306.2C463.45 304.58 464.33 302.97 465.21 301.37C466.09 299.77 467.05 298.17 468 296.59Z" fill="#449935"/>
<path d="M428.17 383.45C420.87 386.29 407.11 381.36 407.36 377.76C407.77 371.95 416.05 376.86 417.07 373.89C418.18 370.68 401.41 369.64 401.65 360.42C401.71 357.97 405.07 355.76 407.49 357.42C409.91 359.08 412.49 362.42 413.95 360.83C416.5 358.01 400.82 345.83 408.23 341.78C412.43 339.5 415.44 342.92 417.4 347.5C418.75 350.67 419.83 356.67 421.4 356.57C423.87 356.43 423.12 342.57 428.46 346.16C435.05 350.53 424.72 366.33 427.68 368.63C429.51 370.06 435.2 357.11 438.01 360.25C441.73 364.39 435.76 380.5 428.17 383.45Z" fill="#5DBA3E"/>
<path d="M433.2 369.139C432.4 370.199 431.61 371.259 430.82 372.329C430.03 373.399 429.26 374.479 428.5 375.569L426.58 378.319C426.02 376.619 425.42 374.919 424.81 373.239C424.2 371.559 423.55 369.879 422.9 368.239L422.66 367.649C423.21 366.319 423.66 364.969 424.19 363.649C424.72 362.329 425.13 360.859 425.54 359.449C425.95 358.039 426.33 356.609 426.63 355.169C426.955 353.729 427.103 352.255 427.07 350.779C426.896 352.229 426.585 353.658 426.14 355.049C425.94 355.749 425.72 356.449 425.49 357.139C425.26 357.829 425.04 358.519 424.8 359.209C424.32 360.589 423.8 361.969 423.31 363.329C422.93 364.329 422.54 365.379 422.14 366.399C421.71 365.399 421.28 364.339 420.84 363.309C420.49 362.479 420.12 361.659 419.75 360.849C419.38 360.039 419.02 359.209 418.63 358.399L417.45 355.979C417.05 355.169 416.63 354.379 416.21 353.589C414.568 350.393 412.669 347.336 410.53 344.449C412.37 347.529 413.98 350.709 415.53 353.929L416.68 356.349L417.79 358.789C418.17 359.599 418.52 360.419 418.88 361.229C419.24 362.039 419.61 362.869 419.95 363.689C420.45 364.839 420.95 365.989 421.43 367.139H421.25L420.25 366.999C419.58 366.879 418.91 366.759 418.25 366.619C416.91 366.349 415.58 366.039 414.25 365.689C412.92 365.339 411.62 364.939 410.35 364.459C409.715 364.218 409.094 363.94 408.49 363.629C407.876 363.333 407.316 362.937 406.83 362.459C407.253 363.01 407.771 363.481 408.36 363.849C408.941 364.221 409.546 364.555 410.17 364.849C411.426 365.439 412.719 365.947 414.04 366.369C415.35 366.799 416.69 367.159 418.04 367.479C418.71 367.629 419.39 367.779 420.04 367.899C420.39 367.959 420.73 368.019 421.04 368.059C421.219 368.09 421.399 368.11 421.58 368.119H421.76C422.52 369.939 423.27 371.749 424.02 373.569L426.11 378.689H423.62C422.62 378.689 421.67 378.689 420.7 378.689C419.73 378.689 418.7 378.689 417.78 378.759C416.86 378.829 415.83 378.839 414.85 378.899C415.85 379.019 416.79 379.109 417.77 379.189L420.68 379.399L423.6 379.549C424.6 379.549 425.53 379.629 426.5 379.659L428.08 383.529C427.7 382.199 427.29 380.869 426.86 379.529L426.92 379.449C427.69 378.359 428.44 377.269 429.18 376.169C429.92 375.069 430.66 373.969 431.39 372.859C432.12 371.749 432.84 370.629 433.54 369.499C434.24 368.369 434.93 367.239 435.59 366.089C434.83 366.999 434 368.089 433.2 369.139Z" fill="#4C9B2F"/>
<path d="M118.639 49.0289L120.759 44.6289L122.969 48.9889L127.809 49.6489L124.339 53.0889L125.219 57.8989L120.869 55.6689L116.569 57.9789L117.349 53.1589L113.819 49.7889L118.639 49.0289Z" fill="#E5E5E5"/>
<path d="M6.45012 124.828L8.57012 120.418L10.7701 124.778L15.6101 125.438L12.1501 128.878L13.0201 133.688L8.68012 131.458L4.38012 133.768L5.15012 128.948L1.62012 125.578L6.45012 124.828Z" fill="#E5E5E5"/>
<path d="M277.1 105.869L279.21 101.469L281.42 105.829L286.26 106.479L282.8 109.919L283.67 114.729L279.32 112.499L275.02 114.819L275.8 109.989L272.27 106.619L277.1 105.869Z" fill="#E5E5E5"/>
<path d="M462.28 92.5211L464.39 88.1211L466.6 92.4711L471.44 93.1311L467.98 96.5711L468.85 101.381L464.5 99.1511L460.2 101.471L460.98 96.6411L457.45 93.2711L462.28 92.5211Z" fill="#E5E5E5"/>
<path d="M365.41 32.8514L367.53 28.4414L369.74 32.8014L374.58 33.4614L371.11 36.9014L371.99 41.7114L367.64 39.4814L363.34 41.7914L364.12 36.9714L360.58 33.6014L365.41 32.8514Z" fill="#E5E5E5"/>
<path d="M164.33 138.18L166.45 133.77L168.65 138.13L173.49 138.79L170.03 142.23L170.91 147.04L166.56 144.81L162.26 147.12L163.03 142.3L159.5 138.93L164.33 138.18Z" fill="#E5E5E5"/>
</g>
<defs>
<clipPath id="clip0_1356_1938">
<rect width="480.58" height="517.51" fill="white"/>
</clipPath>
</defs>
</svg>
