<svg width="365" height="692" viewBox="0 0 365 692" fill="none" xmlns="http://www.w3.org/2000/svg">
<g clip-path="url(#clip0_1352_573)">
<path d="M155.11 37.0898C155.11 37.0898 171.35 45.6498 156.79 61.6998C142.23 77.7498 146.78 40.9098 155.11 37.0898Z" fill="#343A4C"/>
<path d="M143.03 103.43C143.03 103.43 143.49 105.04 132.71 99.31C132.71 99.31 129.76 99.51 127.04 106.76C125.68 110.39 124.38 115.8 123.54 123.84C123.54 123.84 123.66 131.67 116.14 135.27C113.36 136.59 109.54 137.34 104.28 136.91C84.7899 135.31 87.7699 111.69 87.7699 111.69L93.7299 97.7C93.7299 97.7 94.8199 95.87 96.7499 92.85C97.7199 91.34 98.8999 89.53 100.26 87.51C111.88 70.17 136.6 36.96 154.27 39C154.27 39 156.11 41.21 157.45 44.93C158.49 47.76 159.22 51.47 158.63 55.74C157.25 65.6 157.02 69.27 160.46 74.77C160.46 74.77 159.54 95.64 143.03 103.43Z" fill="#F9B4A2"/>
<g style="mix-blend-mode:multiply" opacity="0.3">
<path d="M116.14 135.272C113.36 136.592 109.54 137.342 104.28 136.912C84.7899 135.312 87.7699 111.692 87.7699 111.692L93.7299 97.7016C93.7299 97.7016 94.8199 95.8716 96.7499 92.8516C103.18 96.5516 114.6 105.272 114.6 105.272C114.6 105.272 95.3399 113.832 112.46 130.032C114.68 132.132 115.82 133.872 116.14 135.272Z" fill="#F9B4A2"/>
</g>
<g style="mix-blend-mode:multiply" opacity="0.3">
<path d="M157.45 44.93C156.29 49.93 152.36 59.09 139.06 63.37C120.26 69.43 110.93 87.38 114.6 105.27C114.6 105.27 102.46 101.26 100.26 87.51C111.88 70.17 136.6 36.96 154.27 39C154.27 39 156.11 41.21 157.45 44.93Z" fill="#F9B4A2"/>
</g>
<path d="M43.8202 596.583L34.3502 617.063C30.8002 617.673 26.7702 616.933 22.9802 615.683C15.3502 613.143 8.66016 608.503 8.66016 608.503L17.4102 588.283L17.9802 586.963L18.4502 585.883L19.0502 586.133L43.8202 596.583Z" fill="#F9CABE"/>
<g style="mix-blend-mode:multiply" opacity="0.3">
<path d="M43.8199 596.583L34.3499 617.063C30.7999 617.673 26.7699 616.933 22.9799 615.683C32.1099 597.793 20.0399 589.763 17.4099 588.283C17.0999 588.103 16.9199 588.023 16.9199 588.023C17.2499 587.643 17.6099 587.293 17.9799 586.963C18.3199 586.663 18.6799 586.383 19.0499 586.133L43.8199 596.583Z" fill="#F9B4A2"/>
</g>
<path d="M124.99 595.82L124.39 606.38L123.31 625.17C123.31 625.17 115.36 631.13 109.1 631.13C108.1 631.13 107 630.94 105.85 630.61C99.8198 628.88 92.5898 623.48 92.5898 623.48V595.82H124.99Z" fill="#F9CABE"/>
<g style="mix-blend-mode:multiply" opacity="0.3">
<path d="M124.99 595.82L124.39 606.38C120.67 606.55 104.71 608.49 105.84 628.73C105.88 629.38 105.88 630 105.84 630.61C99.8101 628.88 92.5801 623.48 92.5801 623.48V595.82H124.98H124.99Z" fill="#F9B4A2"/>
</g>
<path d="M83.8199 654.983C83.8199 654.983 77.7599 675.923 108.79 675.923C139.82 675.923 133.01 651.133 133.01 651.133L83.8199 654.983Z" fill="#562A3B"/>
<path d="M132.7 657.2C132.09 660.19 130.7 662.78 128.21 664.61C127.27 665.3 126.25 665.92 125.16 666.46C110.95 673.58 85.8799 668.04 84.0399 656.96C82.0499 645.04 92.5999 622.41 92.5999 622.41C92.5999 622.41 98.6499 625.11 107.07 625.69C109.73 625.88 112.63 625.86 115.65 625.47C118.18 625.15 120.79 624.57 123.41 623.64C123.41 623.64 135.36 644.23 132.71 657.2H132.7Z" fill="#F9A822"/>
<path d="M224.51 611.082L222.83 640.432C222.83 640.432 217.07 644.752 211.48 646.032C210.51 646.262 209.54 646.392 208.61 646.392C202.35 646.392 192.1 638.752 192.1 638.752V611.082H224.51Z" fill="#F9CABE"/>
<g style="mix-blend-mode:multiply" opacity="0.3">
<path d="M224.51 611.082L222.83 640.432C222.83 640.432 217.07 644.752 211.48 646.032C211.57 630.702 198.05 625.662 192.1 624.192V611.082H224.51Z" fill="#F9B4A2"/>
</g>
<path d="M183.339 670.241C183.339 670.241 177.279 691.181 208.309 691.181C239.339 691.181 232.529 666.391 232.529 666.391L183.339 670.241Z" fill="#562A3B"/>
<path d="M227.72 679.87C214.48 689.61 185.78 684.2 183.57 672.37L183.54 672.22C181.56 660.3 192.1 637.68 192.1 637.68C192.1 637.68 207.26 644.41 222.92 638.9V638.92C223.42 639.79 240.82 670.22 227.71 679.87H227.72Z" fill="#F9A822"/>
<path d="M140.51 394.411C138.45 417.801 128.13 603.421 128.13 603.421C110.93 607.431 88.9201 602.471 88.9201 602.471V465.151C88.9201 465.151 88.9001 465.211 88.8601 465.341C88.8601 465.341 88.8601 465.361 88.8501 465.391L47.6401 603.421C20.8201 601.931 11.8701 583.151 11.8701 583.151C19.4401 563.461 52.4601 428.721 52.4601 428.721C45.4901 390.801 42.8401 332.821 41.9101 303.721C41.5601 292.631 41.4501 285.731 41.4501 285.731C43.7801 281.841 58.4001 280.881 75.7201 281.191C76.0301 281.201 76.3401 281.211 76.6501 281.211H76.6801C105.2 281.801 140.51 285.731 140.51 285.731C140.51 285.731 141.07 308.901 141.32 334.401C141.54 357.821 141.5 383.221 140.51 394.411Z" fill="#562A3B"/>
<g style="mix-blend-mode:multiply" opacity="0.2">
<path d="M141.32 334.401C135.95 327.601 124.15 316.641 104.28 317.601C78.1502 318.851 47.1802 306.001 41.9102 303.721C41.5602 292.631 41.4502 285.731 41.4502 285.731C43.7802 281.841 58.4002 280.881 75.7202 281.191C76.0302 281.201 76.3402 281.211 76.6502 281.211H76.6802C105.2 281.801 140.51 285.731 140.51 285.731C140.51 285.731 141.07 308.901 141.32 334.401Z" fill="#562A3B"/>
</g>
<path d="M172.23 209.831C169.02 210.571 153.18 212.121 147.26 212.681C145.86 212.811 145.02 212.891 145.02 212.891C144.69 216.211 144.59 227.441 144.62 240.421C144.62 247.021 144.66 254.071 144.71 260.771C144.74 265.161 144.78 269.401 144.81 273.261C144.92 283.971 145.02 291.761 145.02 291.761C145.02 291.761 123.31 299.411 89.6799 299.411C75.5099 299.411 63.4199 297.131 54.1699 294.491C41.4699 290.871 34.1299 286.571 34.1299 286.571C37.9399 277.291 40.9699 266.021 43.3299 254.881C43.6499 253.371 43.9599 251.871 44.2499 250.381C46.0999 241.021 47.4899 231.961 48.4799 224.481C49.9399 213.441 50.5499 205.851 50.5499 205.851C46.6999 205.851 43.0099 204.801 41.1299 204.181C40.3199 203.911 39.8499 203.711 39.8499 203.711C39.8499 203.711 35.7499 177.191 34.4999 156.051C33.8699 145.581 33.9499 136.431 35.5699 132.481C40.4599 120.551 87.6099 108.941 87.6099 108.941C87.6099 108.941 88.2599 110.281 89.3599 112.271C92.4199 117.801 98.9899 128.301 104.97 128.811C117.58 129.881 123.77 121.811 123.77 121.811C123.77 121.811 162.75 139.891 168.71 146.311C170.27 147.981 171.52 153.051 172.46 159.631C175.1 178.281 175.16 209.151 172.23 209.831Z" fill="#F9A822"/>
<g style="mix-blend-mode:multiply" opacity="0.54">
<path d="M72.3398 166.061C72.3398 166.061 80.2098 179.931 90.5998 177.601C100.99 175.271 117.38 151.051 117.38 151.051C117.38 151.051 113.18 216.421 94.8598 211.591C76.5398 206.761 72.3398 166.051 72.3398 166.051V166.061Z" fill="#FFC84E"/>
</g>
<g style="mix-blend-mode:multiply" opacity="0.54">
<path d="M145.02 212.889C144.69 216.209 144.59 227.439 144.62 240.419C142.26 244.219 139.54 247.449 138.91 248.319C137.76 249.899 114.37 244.909 106.8 248.319C99.2399 251.729 75.6199 253.399 66.2199 253.619C56.8199 253.849 52.4599 252.939 47.8699 251.809C46.2899 251.419 45.1399 250.939 44.2499 250.379C48.8299 227.199 50.5499 205.849 50.5499 205.849C46.6999 205.849 43.0099 204.799 41.1299 204.179C42.8699 199.209 53.8399 200.039 53.8399 200.039C53.8399 200.039 94.1899 216.019 112.08 211.659C129.96 207.309 137.32 182.359 137.32 182.359C137.32 182.359 144.41 201.339 146.01 206.389C146.49 207.899 146.91 210.129 147.26 212.679C145.86 212.809 145.02 212.889 145.02 212.889Z" fill="#FFC84E"/>
</g>
<g style="mix-blend-mode:multiply" opacity="0.54">
<path d="M144.81 273.261C132 275.851 97.9899 282.181 76.6499 281.211C61.8499 280.531 56.2299 287.841 54.1699 294.491C41.4699 290.871 34.1299 286.571 34.1299 286.571C37.9399 277.291 40.9699 266.021 43.3299 254.881C48.2299 253.301 54.6799 252.421 63.2399 252.351C93.4699 252.081 131.12 249.071 144.71 260.771C144.74 265.161 144.78 269.401 144.81 273.261Z" fill="#FFC84E"/>
</g>
<path d="M169.17 208.152C168.99 215.282 165.74 230.852 161.1 244.002C157.98 252.822 154.23 260.572 150.37 263.942C140.74 272.352 84.6402 269.902 72.7102 268.992C60.7902 268.072 48.1002 272.352 43.6702 275.712C39.2402 279.082 34.1302 273.882 34.1302 273.882C31.9002 273.682 30.5802 272.692 29.8002 271.612C28.7502 270.152 28.6902 268.532 28.6902 268.532C23.9502 268.832 23.0302 265.012 23.0302 265.012C18.1402 266.692 16.6102 263.642 16.1502 261.192C15.7002 258.752 31.2902 247.112 31.2902 247.112C31.2902 247.112 51.1602 245.292 61.8602 246.822C72.5602 248.352 125.45 243.462 128.82 241.322C132.18 239.182 139.21 209.222 139.21 209.222C139.21 209.222 169.48 196.222 169.17 208.152Z" fill="#F9CABE"/>
<path d="M172.23 209.833C168.26 210.753 145.02 212.893 145.02 212.893C132.79 211.363 132.49 209.143 132.49 209.143L138.45 176.123C140.72 163.503 161.92 160.393 172.46 159.633C175.1 178.283 175.16 209.153 172.23 209.833Z" fill="#F9A822"/>
<path d="M160 116.271C154.88 121.551 153.35 124.911 149.53 135.461C148.82 137.421 147.15 141.821 144.81 147.721C144.81 147.721 144.81 147.721 144.79 147.761C134.55 173.581 111.49 227.861 99.9201 230.471C85.7101 233.681 60.4901 220.381 51.3101 200.431C50.5001 198.671 50.0501 197.121 49.9101 195.761C48.4001 181.681 79.2901 187.591 79.2901 187.591L92.6601 197.221C92.6601 197.221 128.11 131.871 128.82 128.201C129.52 124.531 126.75 116.961 128.82 111.231C130.78 105.771 137.36 96.2709 136.91 88.6909C136.88 88.1709 137.42 87.8109 137.89 88.0409C139.66 88.9309 142.97 91.0409 143.26 94.5509C143.26 94.5509 157.78 78.7509 160.46 79.5109C162.79 80.1709 161.8 83.6509 160.14 85.9909C161.32 84.6409 163.67 82.3909 165.43 83.4809C167.64 84.8709 166.09 89.3909 163.96 91.9409C164.6 91.4609 165.69 91.1309 167.11 92.5009C169.37 94.6909 165.87 98.9409 165.53 99.3509C165.74 99.2109 167.11 98.3809 168.79 99.9209C170.63 101.601 165.12 111.001 160 116.271Z" fill="#F9CABE"/>
<g style="mix-blend-mode:multiply" opacity="0.3">
<path d="M144.79 147.762C134.55 173.582 111.49 227.862 99.9202 230.472C85.7102 233.682 60.4902 220.382 51.3102 200.432C50.5002 198.672 50.0502 197.122 49.9102 195.762C52.3102 193.632 55.6102 191.982 59.9902 191.032C59.9902 191.032 78.1302 224.042 95.4502 216.252C112.5 208.572 143.81 149.602 144.79 147.762Z" fill="#F9B4A2"/>
</g>
<path d="M85.48 188.733C85.48 188.733 80.51 194.633 70.74 199.603C65.42 202.333 58.68 204.773 50.55 205.853C50.27 205.853 50 205.843 49.72 205.833C49.52 205.833 49.32 205.823 49.11 205.803C48.88 205.803 48.65 205.773 48.41 205.753C48.11 205.723 47.81 205.693 47.52 205.653C46.9 205.573 46.3 205.483 45.73 205.373C45.69 205.373 45.66 205.363 45.63 205.353C45.33 205.293 45.03 205.233 44.75 205.173C44.51 205.123 44.29 205.073 44.07 205.023C43.47 204.873 42.92 204.723 42.43 204.583C42.31 204.553 42.2 204.523 42.1 204.483C41.74 204.383 41.41 204.273 41.13 204.183C40.52 203.973 40.11 203.813 39.94 203.753C39.9 203.733 39.88 203.723 39.87 203.723C39.87 203.713 39.85 203.713 39.85 203.713C39.85 203.713 35.75 177.193 34.5 156.053C36.76 155.023 40.53 153.413 44.76 152.033C50.99 149.993 58.2 148.453 63.01 149.983L85.48 188.733Z" fill="#F9A822"/>
<path d="M155.11 37.0896C155.11 37.0896 155.11 37.1996 155.09 37.3996V37.4196C154.89 39.4496 153.14 50.2996 138.22 57.3396C121.71 65.1396 102.68 80.2696 114.6 105.27L101.15 104.07L95.7999 103.59L93.0399 99.3296L93.6599 104.04C93.6599 104.04 76.0799 102.75 74.0099 73.1696C71.9499 43.5896 95.2599 20.8096 120.71 21.4996C146.15 22.1896 152.12 31.7196 155.1 37.0796H155.11V37.0896Z" fill="#343A4C"/>
<g style="mix-blend-mode:multiply" opacity="0.39">
<path d="M155.1 37.082C155.1 37.192 155.1 37.302 155.1 37.402V37.422C154.9 39.452 153.15 50.302 138.23 57.342C121.72 65.142 102.69 80.272 114.61 105.272L101.16 104.072C91.5496 86.992 98.5496 55.032 117.39 54.242C136.67 53.432 155.11 37.082 155.11 37.082H155.1Z" fill="#343A4C"/>
</g>
<path d="M150.49 39.1094C150.49 39.1094 157.6 52.4794 143.04 61.1194C128.48 69.7594 111.97 74.0394 110.02 96.2994" stroke="#343A4C" stroke-miterlimit="10"/>
<path d="M70.73 666.592L68.28 671.182C68.28 671.182 20.84 667.352 0 648.552L0.1 642.742L70.72 666.592H70.73Z" fill="#562A3B"/>
<path d="M70.7298 666.592C70.7298 666.592 57.1698 666.062 39.6698 661.142C33.6698 659.452 27.1898 657.232 20.6398 654.342C13.7198 651.292 6.72976 647.492 0.0997647 642.752C0.0997647 642.752 -1.75024 618.902 10.1798 604.992H10.1898C10.1898 604.992 10.2298 605.032 10.2698 605.072C11.2698 605.832 20.8598 612.932 35.8798 613.752C35.8798 613.752 39.5498 623.192 47.1798 633.082C50.7798 637.742 55.2498 642.502 60.6398 646.412C77.4498 658.642 70.7298 666.592 70.7298 666.592Z" fill="#F9A822"/>
<path d="M260.409 58.1312C260.309 62.1712 258.829 66.2612 254.739 70.1912C251.239 73.5612 246.329 70.8912 240.959 65.0812C234.349 57.9112 227.049 45.9612 220.859 34.6412C220.169 33.3812 219.499 32.1412 218.849 30.9112C216.479 26.4612 214.319 22.2212 212.489 18.5112C208.709 10.8612 206.319 5.5212 206.319 5.5212C206.319 5.5212 217.779 -4.5688 234.749 2.5412C251.429 9.5312 255.739 23.0412 254.559 32.4812C254.539 32.6512 254.509 32.8112 254.489 32.9812C253.519 39.5912 260.659 48.7512 260.409 58.1312Z" fill="#343A4C"/>
<g style="mix-blend-mode:multiply" opacity="0.39">
<path d="M260.41 58.1311C256.62 61.2111 250.06 62.7411 240.96 65.0811C234.35 57.9111 227.05 45.9611 220.86 34.6411C215.86 34.8411 214.46 41.6411 214.46 41.6411C214.46 41.6411 210.33 37.0511 205.4 40.0311C200.47 43.0111 206.32 52.4111 207.92 59.7511C209.53 67.0911 200.01 69.1511 200.01 69.1511C201.39 65.7111 199.44 64.4511 199.44 64.4511C198.33 75.7811 186.24 77.6411 185.49 77.7411C186.04 77.5211 192.39 74.7911 183.16 64.6811C182.93 64.4311 182.71 64.1811 182.5 63.9211C197.37 62.0511 200.05 47.5911 200.08 38.6511C200.11 30.0111 210.79 32.0011 218.85 30.9111C220.02 30.7511 221.13 30.5211 222.15 30.1911C230.18 27.5811 235.98 40.6111 240.87 33.4211C241.42 32.6111 242.02 31.9711 242.65 31.4711C247.57 27.5411 254.26 32.3211 254.26 32.3211C254.26 32.3211 254.37 32.3711 254.56 32.4811C254.54 32.6511 254.51 32.8111 254.49 32.9811C253.52 39.5911 260.66 48.7511 260.41 58.1311Z" fill="#343A4C"/>
</g>
<path d="M245.19 37.6218C245.19 37.6218 244.39 31.8118 252.41 32.3518C260.44 32.8918 260.28 51.7618 255.24 55.4318C250.2 59.1018 242.63 43.8118 245.19 37.6218Z" fill="#F9B4A2"/>
<path d="M252.87 124.759C236.13 127.739 229.02 115.589 229.02 115.589C228.53 113.849 227.76 111.899 226.83 109.879C225.47 106.929 223.77 103.829 222.15 101.059C219.16 95.9694 216.41 91.9694 216.41 91.9694C216.41 91.9694 246.45 52.2994 252.87 69.4994C253.26 70.5594 253.67 71.5794 254.07 72.5794C254.69 74.1194 255.33 75.5894 255.96 76.9894C261.6 89.4594 267.31 96.3094 267.31 96.3094C267.31 96.3094 269.61 121.779 252.87 124.759Z" fill="#F9B4A2"/>
<g style="mix-blend-mode:multiply" opacity="0.3">
<path d="M255.959 76.992C253.879 86.312 247.829 104.992 232.149 109.282C230.049 109.862 228.279 110.042 226.829 109.882C225.469 106.932 223.769 103.832 222.149 101.062C224.409 92.152 235.779 78.862 254.069 72.582C254.689 74.122 255.329 75.592 255.959 76.992Z" fill="#F9B4A2"/>
</g>
<path d="M319.9 621.191L318.06 642.901C318.06 642.901 317.91 648.861 307.82 651.001C304.94 651.611 301.67 651.611 298.47 651.301C290.47 650.521 282.91 647.791 282.91 647.791V626.851L310.93 622.561L319.9 621.191Z" fill="#F9CABE"/>
<g style="mix-blend-mode:multiply" opacity="0.3">
<path d="M298.47 651.302C290.47 650.522 282.91 647.792 282.91 647.792V626.852L310.93 622.562C304.64 628.093 297.5 637.512 298.47 651.302Z" fill="#F9B4A2"/>
</g>
<path d="M326.01 622.411C314.55 638.771 276.94 628.731 276.94 628.731C276.94 628.731 277.86 557.901 276.94 540.481C276.86 538.931 276.7 536.781 276.47 534.151C276 528.691 275.25 521.141 274.36 512.581C274.35 512.551 274.35 512.521 274.35 512.491C270.82 478.801 265.02 429.501 265.02 429.501C265.24 442.171 258.14 484.811 250.53 526.581C241.89 573.991 232.6 620.271 232.6 620.271C204.77 630.821 183.29 609.271 183.29 609.271C183.29 609.271 199.44 472.611 199.44 465.271C199.44 461.461 200.06 421.011 200.64 382.951C201.2 347.631 201.73 314.391 201.73 314.391H322.12C322.12 314.391 322 327.171 322.18 346.321C322.43 374.051 323.3 415.141 326.01 450.131C330.6 509.291 326.01 622.411 326.01 622.411Z" fill="#562A3B"/>
<g style="mix-blend-mode:multiply" opacity="0.2">
<path d="M322.18 346.321C309.04 350.371 285.12 356.291 261.55 354.751C238.52 353.241 214.35 363.811 200.64 382.951C201.2 347.631 201.73 314.391 201.73 314.391H322.12C322.12 314.391 322 327.171 322.18 346.321Z" fill="#562A3B"/>
</g>
<path d="M314.34 184.091C313.84 194.841 315.01 213.501 316.8 233.671C316.97 235.551 317.14 237.451 317.32 239.351C318.08 247.521 318.92 255.831 319.78 263.881C323.09 294.741 326.63 321.731 326.63 321.731C270.68 339.461 189.66 318.671 189.66 318.671C192.53 306.361 193.68 290.021 193.99 274.421C194.4 253.981 193.38 234.831 192.94 227.721C192.82 225.851 192.74 224.811 192.74 224.811C189.66 225.331 186.97 225.471 184.65 225.351C174.75 224.821 171.31 219.611 171.31 219.611C171.05 212.471 170.33 169.201 170.93 150.721C171.02 147.831 171.14 145.551 171.31 144.101C172.54 133.401 213.86 95.2006 213.86 95.2006H224.25C224.25 95.2006 234.91 122.081 250.23 119.941C265.56 117.801 264.56 89.2206 264.56 89.2206H280.61C294.18 86.3706 322.04 95.7906 324.49 105.271C326.93 114.751 353.84 170.081 353.84 170.081C349.19 172.281 344.76 173.971 340.67 175.261C325.36 180.131 314.7 179.561 314.7 179.561C314.53 180.851 314.41 182.371 314.34 184.091Z" fill="#F9A822"/>
<g style="mix-blend-mode:multiply" opacity="0.54">
<path d="M316.8 233.672C299.85 245.552 276.68 253.602 262.27 248.322C243.16 241.322 232.54 240.562 224.25 233.452C215.95 226.342 206.78 223.122 206.32 212.502C205.86 201.882 219.69 175.762 219.69 175.762C219.69 175.762 239.91 210.132 255.75 210.132C271.59 210.132 295.59 211.662 297.5 187.822C298.27 178.302 306.12 178.862 314.34 184.092C313.84 194.842 315.01 213.502 316.8 233.672Z" fill="#FFC84E"/>
</g>
<g style="mix-blend-mode:multiply" opacity="0.54">
<path d="M319.779 263.883C306.009 269.913 280.959 279.403 249.079 284.993C221.189 289.883 203.819 282.113 193.989 274.423C194.509 248.593 192.739 224.813 192.739 224.813C189.659 225.333 186.969 225.473 184.649 225.353C186.289 216.713 187.979 210.133 187.979 210.133C187.979 210.133 220.539 235.053 269.009 240.883C289.969 243.403 305.939 241.883 317.319 239.353C318.079 247.523 318.919 255.833 319.779 263.883Z" fill="#FFC84E"/>
</g>
<path d="M349.579 231.073C349.419 231.783 349.209 232.503 348.939 233.223C348.939 233.223 337.129 244.113 319.709 244.113C319.709 244.113 273.589 266.543 233.839 266.853C203.349 267.093 192.65 233.603 189.32 217.983C188.31 213.233 187.979 210.133 187.979 210.133L212.85 202.773L222.059 200.043C222.059 200.043 233.38 216.183 235.82 225.393C235.82 225.393 253.86 223.283 272.2 226.953C290.55 230.623 314.089 220.533 314.089 220.533C314.089 220.533 314.929 220.033 316.519 219.263C320.859 217.173 330.799 213.103 344.239 212.013C344.239 212.013 351.959 220.833 349.579 231.073Z" fill="#F9CABE"/>
<g style="mix-blend-mode:screen" opacity="0.2">
<path d="M321.73 220.833C321.73 220.833 308.58 237.503 277.4 233.453C246.22 229.403 235.52 232.153 233.07 231.843C230.63 231.543 214.42 204.173 214.42 204.173C214.42 204.173 213.7 203.643 212.85 202.773L222.06 200.043C222.06 200.043 233.38 216.183 235.82 225.393C235.82 225.393 253.86 223.283 272.2 226.953C290.55 230.623 314.09 220.533 314.09 220.533C314.09 220.533 314.93 220.033 316.52 219.263C319.69 220.213 321.73 220.833 321.73 220.833Z" fill="#F9CABE"/>
</g>
<g style="mix-blend-mode:multiply" opacity="0.3">
<path d="M349.579 231.07C349.419 231.78 349.209 232.5 348.939 233.22C348.939 233.22 337.129 244.11 319.709 244.11C319.709 244.11 273.589 266.54 233.839 266.85C203.349 267.09 192.649 233.6 189.319 217.98C194.009 219.51 198.669 223.06 198.669 223.06C198.669 223.06 211.359 253.92 238.879 253.66C266.399 253.4 324.639 238.41 331.979 237.19C336.169 236.49 343.799 233.5 349.579 231.07Z" fill="#F9B4A2"/>
</g>
<path d="M226.65 198.212C226.65 198.212 211.42 221.452 192.74 224.812C176.56 227.562 171.31 219.612 171.31 219.612C171.05 212.472 170.33 169.202 170.93 150.722C180.19 141.502 206.31 143.292 216.41 165.192L226.65 198.212Z" fill="#F9A822"/>
<g style="mix-blend-mode:screen" opacity="0.28">
<path d="M219.45 95.2031L219.24 96.3131C219.24 96.3131 182.74 129.573 183.29 165.343C183.85 201.113 195.31 224.843 195.31 224.843C195.31 224.843 194.43 226.103 192.94 227.723C192.82 225.853 192.74 224.813 192.74 224.813C189.66 225.333 186.97 225.473 184.65 225.353C174.75 224.823 171.31 219.613 171.31 219.613C171.05 212.473 170.33 169.203 170.93 150.723C171.02 147.833 171.14 145.553 171.31 144.103C172.54 133.403 213.86 95.2031 213.86 95.2031H219.45Z" fill="#FFC84E"/>
</g>
<g style="mix-blend-mode:screen" opacity="0.28">
<path d="M353.839 170.081C349.189 172.281 344.759 173.971 340.669 175.261C339.709 164.841 335.999 144.321 321.889 123.151C301.709 92.8906 281.989 95.2006 281.989 95.2006L277.399 89.6806C277.399 89.6806 277.499 89.5106 277.729 89.2206H280.609C294.179 86.3706 322.039 95.7906 324.489 105.271C326.929 114.751 353.839 170.081 353.839 170.081Z" fill="#FFC84E"/>
</g>
<path d="M192.79 65.7324C192.79 65.7324 203.11 100.002 231.08 100.462C259.05 100.922 255.62 55.0624 255.62 55.0624L245.19 37.6324C245.19 37.6324 214.81 16.0824 203.11 28.9224C191.42 41.7624 192.79 65.7424 192.79 65.7424V65.7324Z" fill="#F9B4A2"/>
<g style="mix-blend-mode:multiply" opacity="0.3">
<path d="M206.32 57.4195C206.32 57.4195 213.05 55.7395 212.13 46.5695C212.13 46.5695 213.81 48.4095 216.41 47.7195C219.01 47.0295 219.47 41.7995 220.69 41.5095C221.91 41.2195 230.32 53.2795 237.05 49.4695C243.78 45.6595 217.79 25.3295 210.91 31.2895C204.03 37.2495 188.74 38.3195 206.32 57.4295V57.4195Z" fill="#F9B4A2"/>
</g>
<path d="M240.709 47.8312C240.829 49.3212 244.379 50.9212 244.379 50.9212C230.279 54.4812 226.729 34.8712 221.339 34.6412C221.179 34.6312 221.019 34.6312 220.859 34.6412C215.859 34.8412 214.459 41.6412 214.459 41.6412C214.459 41.6412 210.329 37.0512 205.399 40.0312C200.469 43.0112 206.319 52.4112 207.919 59.7512C209.529 67.0912 200.009 69.1512 200.009 69.1512C201.389 65.7112 199.439 64.4512 199.439 64.4512C198.329 75.7812 186.239 77.6412 185.489 77.7412C186.039 77.5212 192.389 74.7912 183.159 64.6812C182.929 64.4312 182.709 64.1812 182.499 63.9212C177.459 57.8712 176.379 49.9612 176.369 44.3012C176.369 40.3312 176.899 37.4712 176.959 37.1212C174.199 42.0512 169.149 39.1112 169.149 39.1112C169.149 39.1112 172.609 37.6212 178.349 22.4912C184.079 7.36121 206.319 5.52121 206.319 5.52121C212.569 4.18121 220.209 8.11121 227.059 13.7412C233.629 19.1312 239.459 26.0912 242.649 31.4712C244.129 33.9612 245.039 36.1212 245.189 37.6212C245.989 45.7612 250.229 50.0112 250.229 50.0112C244.609 51.6112 240.709 47.8312 240.709 47.8312Z" fill="#343A4C"/>
<g style="mix-blend-mode:multiply" opacity="0.39">
<path d="M240.71 47.8311C240.83 49.3211 244.38 50.9211 244.38 50.9211C230.28 54.4811 226.73 34.8711 221.34 34.6411C221.18 34.6311 221.02 34.6311 220.86 34.6411C215.86 34.8411 214.46 41.6411 214.46 41.6411C214.46 41.6411 210.33 37.0511 205.4 40.0311C200.47 43.0111 206.32 52.4111 207.92 59.7511C209.53 67.0911 200.01 69.1511 200.01 69.1511C201.39 65.7111 199.44 64.4511 199.44 64.4511C198.33 75.7811 186.24 77.6411 185.49 77.7411C186.04 77.5211 192.39 74.7911 183.16 64.6811C182.93 64.4311 182.71 64.1811 182.5 63.9211C197.37 62.0511 200.05 47.5911 200.08 38.6511C200.11 30.0111 210.79 32.0011 218.85 30.9111C220.02 30.7511 221.13 30.5211 222.15 30.1911C230.18 27.5811 235.98 40.6111 240.87 33.4211C241.42 32.6111 242.02 31.9711 242.65 31.4711C244.13 33.9611 245.04 36.1211 245.19 37.6211C245.99 45.7611 250.23 50.0111 250.23 50.0111C244.61 51.6111 240.71 47.8311 240.71 47.8311Z" fill="#343A4C"/>
</g>
<path d="M333.12 225.393C317.26 228.443 304.14 212.353 292.18 186.263C285.13 170.883 278.48 152.023 271.9 131.563C271.9 131.563 263.49 121.473 263.95 112.453C264.41 103.433 265.17 100.463 265.17 100.463C265.17 100.463 262.04 97.8531 260.74 94.7231C260.74 94.7231 255.01 99.9231 250.23 91.7431L255.75 89.9031C255.75 89.9031 250.12 90.4231 249.08 84.7531L258.78 82.7931C258.78 82.7931 249.89 82.4131 250.23 75.9931L268.47 75.5831C266.08 75.5631 261.63 75.2431 259.67 73.1731C259.67 73.1731 255.01 74.2431 253.4 68.2031C253.4 68.2031 273.58 69.2731 275.57 70.3431C277.56 71.4131 283.13 88.3031 283.75 91.2831C284.36 94.2631 284.51 96.4031 284.51 96.4031C284.51 96.4031 287.49 114.133 289.02 118.113C290.55 122.083 296.05 138.903 304.15 147.613C312.26 156.333 320.05 172.533 321.73 179.103C321.73 179.103 321.82 179.103 321.98 179.053L329.47 177.643L338.5 175.933C338.5 175.933 358.35 220.543 333.12 225.393Z" fill="#F9CABE"/>
<g style="mix-blend-mode:multiply" opacity="0.3">
<path d="M333.12 225.39C317.26 228.44 304.14 212.35 292.18 186.26C310.64 201.67 322.35 208.45 332.43 203.11C340.5 198.84 332.85 183.57 329.47 177.64L338.5 175.93C338.5 175.93 358.35 220.54 333.12 225.39Z" fill="#F9B4A2"/>
</g>
<path d="M364.13 672.7C364.13 672.7 365.3 689.37 338.55 688.15C311.8 686.93 303.39 690.6 294.52 688.91C285.65 687.23 282.02 682.56 281.93 676.41C281.84 670.26 364.13 672.7 364.13 672.7Z" fill="#562A3B"/>
<path d="M335.79 681.772C334.37 681.742 332.9 681.672 331.36 681.572C305.38 679.892 288.1 688.152 281.38 675.462C281.38 675.462 278.93 659.562 282.91 647.792C282.91 647.792 289.81 648.222 298.42 647.232C304.75 646.502 312.01 645.012 318.14 642.012C318.14 642.012 322.5 652.532 337.48 655.282C352.46 658.032 363.47 664.612 364.54 669.652C365.55 674.392 358.3 682.262 335.79 681.772Z" fill="#F9A822"/>
<g style="mix-blend-mode:screen" opacity="0.28">
<path d="M70.7395 199.601C65.4195 202.331 58.6795 204.771 50.5495 205.851C50.2695 205.851 49.9995 205.841 49.7195 205.831C49.5195 205.831 49.3195 205.821 49.1095 205.801C48.8795 205.801 48.6495 205.771 48.4095 205.751C48.1095 205.721 47.8095 205.691 47.5195 205.651C46.8995 205.571 46.2995 205.481 45.7295 205.371C45.6895 205.371 45.6595 205.361 45.6295 205.351C45.3295 205.291 45.0295 205.231 44.7495 205.171C44.5095 205.121 44.2895 205.071 44.0695 205.021C43.4695 204.871 42.9195 204.721 42.4295 204.581C42.3095 204.551 42.1995 204.521 42.0995 204.481C41.7395 204.381 41.4095 204.271 41.1295 204.181C40.5195 203.971 40.1095 203.811 39.9395 203.751C39.9095 203.731 39.8895 203.731 39.8695 203.721C39.8695 203.711 39.8495 203.711 39.8495 203.711C39.8495 203.711 35.7495 177.191 34.4995 156.051C33.8695 145.581 33.9495 136.431 35.5695 132.481C40.4595 120.551 87.6095 108.941 87.6095 108.941C87.6095 108.941 88.2595 110.281 89.3595 112.271C77.9895 116.011 41.2595 129.501 43.9795 146.981C44.2295 148.631 44.4895 150.311 44.7595 152.031C47.7795 171.291 52.1795 193.981 70.7395 199.601Z" fill="#FFC84E"/>
</g>
<g style="mix-blend-mode:multiply" opacity="0.58">
<path d="M99.4695 332.73L89.3595 343.74L94.8595 350.62C94.8595 350.62 97.5895 414.43 94.8595 434.8C92.1295 455.18 88.2295 467.49 88.2295 467.49C88.2295 467.49 101.309 441.45 102.229 427.45C103.149 413.45 95.2295 343.28 95.2295 343.28L99.4795 332.73H99.4695Z" fill="#562A3B"/>
</g>
<g style="mix-blend-mode:multiply" opacity="0.2">
<path d="M88.8601 465.34L47.6401 603.42C20.8201 601.93 11.8701 583.15 11.8701 583.15C48.6001 584.08 87.0801 470.64 88.8601 465.34Z" fill="#562A3B"/>
</g>
<g style="mix-blend-mode:multiply" opacity="0.2">
<path d="M128.13 603.422C110.93 607.432 88.9199 602.472 88.9199 602.472V466.492C89.5599 477.782 95.6699 569.142 128.13 603.422Z" fill="#562A3B"/>
</g>
<g style="mix-blend-mode:multiply" opacity="0.3">
<path d="M161.1 244C157.98 252.82 154.23 260.57 150.37 263.94C140.74 272.35 84.6398 269.9 72.7098 268.99C60.7898 268.07 48.0998 272.35 43.6698 275.71C39.2398 279.08 34.1298 273.88 34.1298 273.88C31.8998 273.68 30.5798 272.69 29.7998 271.61C35.2098 267.28 46.1398 261.38 64.1498 263.48C89.9998 266.5 138.92 259.57 161.1 244Z" fill="#F9B4A2"/>
</g>
<g style="mix-blend-mode:multiply" opacity="0.3">
<path d="M249.55 42.7824C249.21 39.8024 248.52 37.6224 251.73 36.9324C254.94 36.2424 257.92 47.6524 254.59 47.7124C251.26 47.7724 249.55 42.7824 249.55 42.7824Z" fill="#F9B4A2"/>
</g>
<g style="mix-blend-mode:multiply" opacity="0.3">
<path d="M132.709 99.3117C132.709 99.3117 129.759 99.5117 127.039 106.762C121.519 100.552 123.009 91.2617 123.009 91.2617C126.219 97.4317 132.709 99.3117 132.709 99.3117Z" fill="#F9B4A2"/>
</g>
<g style="mix-blend-mode:screen" opacity="0.2">
<path d="M321.729 179.103C314.239 163.053 290.239 148.383 283.589 125.233C276.939 102.083 278.319 84.6331 275.799 77.7531C273.279 70.8731 253.399 68.2031 253.399 68.2031C253.399 68.2031 273.579 69.2731 275.569 70.3431C277.559 71.4131 283.129 88.3031 283.749 91.2831C284.359 94.2631 284.509 96.4031 284.509 96.4031C284.509 96.4031 287.489 114.133 289.019 118.113C290.549 122.083 296.049 138.903 304.149 147.613C312.259 156.333 320.049 172.533 321.729 179.103Z" fill="#F9CABE"/>
</g>
<g style="mix-blend-mode:multiply" opacity="0.54">
<path d="M125.15 666.46C110.94 673.58 85.8701 668.04 84.0301 656.96C82.0401 645.04 92.5901 622.41 92.5901 622.41C92.5901 622.41 98.6401 625.11 107.06 625.69C103.08 634.47 98.1201 654.07 124.99 666.39C125.04 666.41 125.1 666.44 125.15 666.46Z" fill="#FFC84E"/>
</g>
<g style="mix-blend-mode:multiply" opacity="0.54">
<path d="M70.7299 666.592C70.7299 666.592 57.1699 666.062 39.6699 661.142C51.0299 655.052 49.7099 641.932 47.1799 633.082C50.7799 637.742 55.2499 642.502 60.6399 646.412C77.4499 658.642 70.7299 666.592 70.7299 666.592Z" fill="#FFC84E"/>
</g>
<g style="mix-blend-mode:screen" opacity="0.28">
<path d="M132.699 657.201C118.219 648.141 115.879 632.861 115.649 625.471C118.179 625.151 120.789 624.571 123.409 623.641C123.409 623.641 135.359 644.231 132.709 657.201H132.699Z" fill="#FFC84E"/>
</g>
<g style="mix-blend-mode:screen" opacity="0.28">
<path d="M20.6398 654.342C13.7198 651.292 6.72976 647.492 0.0997647 642.752C0.0997647 642.752 -1.75024 618.902 10.1798 604.992H10.1898C10.1898 604.992 10.2298 605.032 10.2698 605.072C11.7598 606.442 31.6798 625.462 20.6398 654.342Z" fill="#FFC84E"/>
</g>
<g style="mix-blend-mode:multiply" opacity="0.54">
<path d="M227.719 679.872C214.479 689.612 185.779 684.202 183.569 672.372C229.039 673.202 223.099 639.872 222.929 638.922C223.429 639.792 240.829 670.222 227.719 679.872Z" fill="#FFC84E"/>
</g>
<g style="mix-blend-mode:multiply" opacity="0.54">
<path d="M335.79 681.771C334.37 681.741 332.9 681.67 331.36 681.57C305.38 679.89 288.1 688.151 281.38 675.461C281.38 675.461 278.93 659.56 282.91 647.79C282.91 647.79 289.81 648.22 298.42 647.23C298.42 647.23 290.55 662.211 308.28 666.391C322.26 669.691 333.58 674.611 335.79 681.771Z" fill="#FFC84E"/>
</g>
<g style="mix-blend-mode:multiply" opacity="0.58">
<path d="M265.02 429.503V382.953C265.02 382.953 271.29 394.503 265.02 429.503Z" fill="#562A3B"/>
</g>
<g style="mix-blend-mode:multiply" opacity="0.2">
<path d="M250.53 526.582C241.89 573.992 232.6 620.272 232.6 620.272C204.77 630.822 183.29 609.272 183.29 609.272C216.36 603.262 240.5 551.962 250.53 526.582Z" fill="#562A3B"/>
</g>
<g style="mix-blend-mode:multiply" opacity="0.2">
<path d="M326.01 622.412C314.55 638.772 276.94 628.732 276.94 628.732C276.94 628.732 277.86 557.902 276.94 540.482C276.86 538.932 276.7 536.782 276.47 534.152C286.78 604.012 326.01 622.412 326.01 622.412Z" fill="#562A3B"/>
</g>
<path d="M154.359 58.4994C151.269 57.9594 148.649 57.3694 145.989 57.1294C144.669 56.9894 143.349 56.9594 141.999 57.0094C140.619 56.9994 139.269 57.2594 137.649 57.3594C138.649 56.1494 139.999 55.1894 141.529 54.6894C143.039 54.1594 144.689 53.9594 146.279 54.1294C147.869 54.2894 149.419 54.7494 150.809 55.4694C152.189 56.2094 153.469 57.1694 154.369 58.4994H154.359Z" fill="#222733"/>
<path d="M149.712 71.2175C151.513 71.0799 152.842 69.2497 152.68 67.1295C152.518 65.0094 150.926 63.4023 149.126 63.5399C147.325 63.6775 145.997 65.5078 146.159 67.6279C146.321 69.748 147.912 71.3551 149.712 71.2175Z" fill="#414042"/>
<path d="M151.17 64.2408C149.53 63.2808 148.04 63.1808 146.59 63.2808C145.15 63.4608 143.75 63.8608 142.5 65.1008C144.14 66.0608 145.63 66.1608 147.08 66.0608C148.52 65.8708 149.92 65.4808 151.17 64.2408Z" fill="#414042"/>
<path d="M207.43 60.3392C203.86 60.6592 200.87 61.0892 198.67 62.6292C197.59 63.3992 196.56 64.3392 195.7 65.6092C195.22 66.1992 194.86 66.9192 194.37 67.5992C193.95 68.3192 193.57 69.0792 193.01 69.8492C192.82 68.9592 192.77 68.0492 192.75 67.1192C192.9 66.2292 192.93 65.2692 193.28 64.3792C193.84 62.5592 195.11 60.8592 196.78 59.7092C198.47 58.5592 200.53 58.1192 202.4 58.2892C204.27 58.4792 206.05 59.1092 207.43 60.3292V60.3392Z" fill="#261B1C"/>
<path d="M232.42 44.7298C228.85 45.0498 225.86 45.4798 223.66 47.0198C222.58 47.7898 221.55 48.7298 220.69 49.9998C220.21 50.5898 219.85 51.3098 219.36 51.9898C218.94 52.7098 218.56 53.4698 217.99 54.2398C217.8 53.3498 217.75 52.4398 217.73 51.5098C217.88 50.6198 217.91 49.6598 218.26 48.7698C218.82 46.9498 220.09 45.2498 221.76 44.0998C223.45 42.9498 225.51 42.5098 227.38 42.6798C229.25 42.8698 231.03 43.4998 232.41 44.7198L232.42 44.7298Z" fill="#261B1C"/>
<g style="mix-blend-mode:multiply" opacity="0.7">
<path d="M218.32 70.3711C219.77 72.1111 220.84 74.0011 221.9 75.7811C222.16 76.2111 222.43 76.6711 222.68 77.0211C222.88 77.3011 223.25 77.7111 223.5 78.0011C223.76 78.3011 224 78.5311 224.4 78.8011C224.8 79.0611 225.29 79.3111 225.83 79.6511C225.32 80.0411 224.75 80.2611 224.11 80.3211C223.47 80.3911 222.71 80.1811 222.15 79.7911C221.58 79.4011 221.19 79.0311 220.77 78.4311C220.4 77.9011 220.16 77.3911 219.91 76.8811C219.44 75.8411 219.08 74.7911 218.81 73.7111C218.55 72.6311 218.34 71.5311 218.31 70.3711H218.32Z" fill="#F9CBC1"/>
</g>
<path d="M230.897 64.156C232.193 63.2534 232.174 60.9859 230.855 59.0914C229.536 57.1969 227.416 56.3928 226.12 57.2954C224.823 58.198 224.842 60.4655 226.161 62.36C227.48 64.2545 229.6 65.0586 230.897 64.156Z" fill="#414042"/>
<path d="M210.416 76.4371C211.741 75.4336 211.662 73.096 210.238 71.2158C208.815 69.3357 206.586 68.6249 205.261 69.6284C203.936 70.6319 204.015 72.9695 205.439 74.8497C206.862 76.7298 209.091 77.4405 210.416 76.4371Z" fill="#414042"/>
<path d="M236.05 86.9206C235.93 88.2906 234.12 88.8906 231.88 90.1806C229.55 91.5206 227.44 93.2206 225.85 92.6406C225.37 92.4706 224.95 92.1006 224.58 91.4606C222.97 88.6606 224.1 84.9606 227.13 83.2206C230.15 81.4706 233.91 82.3406 235.53 85.1406C235.94 85.8606 236.11 86.4306 236.06 86.9106L236.05 86.9206Z" fill="#DD6680"/>
<g style="mix-blend-mode:multiply">
<path d="M236.05 86.9205C235.93 88.2905 234.12 88.8905 231.88 90.1805C229.55 91.5205 227.44 93.2205 225.85 92.6405C225.91 88.9505 228.92 85.9805 232.63 85.9805C233.88 85.9805 235.05 86.3205 236.06 86.9205H236.05Z" fill="#DD6680"/>
</g>
<g style="mix-blend-mode:screen" opacity="0.44">
<path d="M254.489 32.9812C254.489 32.9812 246.859 9.6512 230.949 12.8612C229.519 13.1512 228.229 13.4512 227.059 13.7412C218.709 15.8812 216.279 18.1812 212.489 18.5112C210.869 18.6512 208.999 18.4312 206.309 17.6812C196.459 14.9212 187.059 12.9512 183.159 24.8312C179.259 36.7112 176.969 37.0912 176.969 37.0912C176.969 37.0912 179.259 43.5312 176.369 44.3012C176.369 40.3312 176.899 37.4712 176.959 37.1212C174.199 42.0512 169.149 39.1112 169.149 39.1112C169.149 39.1112 172.609 37.6212 178.349 22.4912C184.079 7.3612 206.319 5.5212 206.319 5.5212C206.319 5.5212 217.779 -4.5688 234.749 2.5412C251.719 9.6512 255.889 23.5212 254.489 32.9812Z" fill="#343A4C"/>
</g>
<g style="mix-blend-mode:screen" opacity="0.44">
<path d="M155.1 37.0796C154.27 36.7696 104.55 17.7796 92.6599 51.4096C80.6599 85.3196 93.6599 104.04 93.6599 104.04C93.6599 104.04 76.0799 102.75 74.0099 73.1696C71.9499 43.5896 95.2599 20.8096 120.71 21.4996C146.15 22.1896 152.12 31.7196 155.1 37.0796Z" fill="#343A4C"/>
</g>
</g>
<defs>
<clipPath id="clip0_1352_573">
<rect width="364.63" height="691.18" fill="white"/>
</clipPath>
</defs>
</svg>
