<svg width="389" height="570" viewBox="0 0 389 570" fill="none" xmlns="http://www.w3.org/2000/svg">
<g clip-path="url(#clip0_1354_1195)">
<path d="M321.3 440.211L312.1 456.551L295.93 449.891L294.18 423.281L321.3 440.211Z" fill="#FBCDC3"/>
<path d="M298.999 445.922C298.999 445.922 304.739 453.092 313.719 453.652C317.179 455.912 314.499 463.452 318.169 471.522C322.169 480.292 332.389 489.522 332.769 490.292C340.529 505.092 316.339 500.472 300.949 485.182C298.609 478.642 298.109 454.672 297.739 447.512L298.999 445.922Z" fill="#1B3234"/>
<path d="M276.329 493.192L279.549 511.512L297.749 509.252L295.609 488.672L276.329 493.192Z" fill="#FBCDC3"/>
<path d="M382 224.922C382 224.922 380 256.802 377.92 270.332C377.679 273.455 377.797 276.595 378.27 279.692C378.27 279.692 384.22 302.592 378.54 315.162C378.505 315.242 378.458 315.316 378.4 315.382C378.041 315.83 377.594 316.2 377.087 316.468C376.579 316.737 376.022 316.898 375.45 316.942C375.45 316.942 373.31 319.342 370.66 318.552C369.824 319.137 368.849 319.492 367.833 319.581C366.817 319.671 365.795 319.492 364.87 319.062C364.192 319.732 363.367 320.235 362.461 320.532C361.555 320.829 360.593 320.911 359.65 320.772C359.345 320.708 359.063 320.562 358.835 320.349C358.607 320.136 358.443 319.864 358.359 319.563C358.275 319.263 358.276 318.945 358.361 318.645C358.446 318.345 358.611 318.074 358.84 317.862C359.264 317.477 359.731 317.142 360.23 316.862C361.274 316.197 362.156 315.309 362.813 314.26C363.471 313.212 363.886 312.031 364.03 310.802C364.64 306.622 363.72 305.862 364.3 301.742C364.375 301.174 364.375 300.599 364.3 300.032L364.13 298.602C363.438 299.298 362.909 300.139 362.58 301.064C362.252 301.989 362.132 302.975 362.23 303.952C362.55 307.332 361.67 311.772 359.53 312.282C357.39 312.792 357.27 303.522 357.27 303.522C357.064 301.546 356.73 299.585 356.27 297.652C355.77 295.892 356.58 292.942 357.73 291.162C358.384 290.115 358.756 288.916 358.81 287.682L359.13 281.152C359.13 281.152 356.96 238.622 358.08 227.982C359.2 217.342 382 224.922 382 224.922Z" fill="#FBCDC3"/>
<path d="M364.85 319.064C365.51 316.804 366.35 314.844 367.11 312.844C367.52 311.844 367.87 310.844 368.25 309.844C368.63 308.844 368.95 307.844 369.41 306.684C369.801 307.803 369.947 308.993 369.84 310.174C369.738 311.344 369.465 312.493 369.03 313.584C368.6 314.651 368.036 315.66 367.35 316.584C366.673 317.554 365.826 318.395 364.85 319.064Z" fill="#E0A4AB"/>
<path d="M370.64 318.552C370.862 316.691 371.237 314.851 371.76 313.052C371.99 312.182 372.26 311.322 372.55 310.442C372.846 309.521 373.213 308.625 373.65 307.762C374.283 309.652 374.315 311.693 373.74 313.602C373.479 314.548 373.096 315.455 372.6 316.302C372.106 317.177 371.439 317.943 370.64 318.552Z" fill="#E0A4AB"/>
<path d="M375.429 316.941C375.377 316.163 375.407 315.382 375.519 314.611C375.616 313.899 375.756 313.195 375.939 312.501C376.119 311.821 376.319 311.151 376.569 310.501C376.818 309.778 377.115 309.073 377.459 308.391C377.891 309.09 378.135 309.889 378.169 310.711C378.216 311.498 378.135 312.289 377.929 313.051C377.73 313.802 377.427 314.522 377.029 315.191C376.624 315.879 376.079 316.475 375.429 316.941Z" fill="#E0A4AB"/>
<path d="M367 303.003C367.591 302.877 368.199 302.847 368.8 302.913C369.456 302.954 370.084 303.195 370.6 303.603L370.35 303.493C371.005 303.505 371.654 303.61 372.28 303.803C372.943 303.992 373.553 304.335 374.06 304.803L373.63 304.653C374.354 304.558 375.086 304.558 375.81 304.653C376.185 304.706 376.551 304.807 376.9 304.953C377.306 305.098 377.656 305.367 377.9 305.723L377.6 305.583C377.844 305.594 378.086 305.634 378.32 305.703C378.544 305.765 378.762 305.849 378.97 305.953C379.359 306.167 379.7 306.46 379.97 306.813C379.607 306.591 379.212 306.426 378.8 306.323C378.599 306.278 378.395 306.248 378.19 306.233C378.001 306.212 377.809 306.212 377.62 306.233H377.48L377.32 306.073C376.859 305.71 376.286 305.519 375.7 305.533C375.056 305.497 374.41 305.518 373.77 305.593H373.52L373.34 305.413C372.478 304.719 371.439 304.282 370.34 304.153H370.16L370.08 304.073C369.707 303.698 369.241 303.429 368.73 303.293C368.163 303.146 367.584 303.049 367 303.003Z" fill="#E0A4AB"/>
<path d="M188.84 298.152C188.84 298.152 193.68 298.652 195.59 300.022L196.14 308.452L188.84 298.152Z" fill="#E0A4AB"/>
<path d="M61.9993 507.684C61.9993 507.684 66.0793 526.544 64.2593 540.304C61.9993 557.434 66.5293 576.004 83.6893 567.754C104.829 557.534 80.8393 531.174 85.4393 512.674L81.8293 509.504L61.5293 504.594L61.9993 507.684Z" fill="#223A3E"/>
<path d="M102.569 501.171C102.569 501.171 100.509 510.991 99.6592 518.491C98.1192 532.001 106.779 535.201 115.999 529.941C115.999 529.941 129.759 521.321 124.469 500.481L121.359 498.891L102.569 501.171Z" fill="#223A3E"/>
<path d="M26.5093 300.11C22.4693 395 10.1993 486.87 8.78925 494.78C8.75249 494.987 8.78937 495.201 8.89349 495.383C8.99761 495.566 9.1624 495.707 9.35925 495.78C12.7193 497.03 27.4093 502.23 38.7093 501.48C38.8405 501.472 38.9719 501.493 39.0943 501.541C39.2166 501.589 39.327 501.664 39.4175 501.759C39.5081 501.854 39.5766 501.968 39.6184 502.093C39.6602 502.218 39.6741 502.35 39.6593 502.48L39.3993 504.22C39.3716 504.446 39.4291 504.673 39.5605 504.858C39.6918 505.043 39.8875 505.172 40.1093 505.22C44.6993 506.17 66.7493 510.57 72.3193 508.5C72.4392 508.458 72.5669 508.441 72.6938 508.451C72.8207 508.461 72.944 508.499 73.0555 508.56C73.167 508.621 73.2642 508.706 73.3407 508.808C73.4172 508.909 73.4713 509.026 73.4993 509.15L74.1292 511.82C74.1671 511.979 74.2463 512.124 74.3587 512.242C74.4712 512.36 74.6128 512.445 74.7692 512.49C78.2092 513.49 98.1293 518.31 109.889 506.11C110.015 505.982 110.177 505.893 110.353 505.857C110.53 505.82 110.713 505.836 110.88 505.904C111.047 505.971 111.19 506.087 111.292 506.236C111.393 506.385 111.448 506.56 111.449 506.74C111.451 506.956 111.527 507.164 111.666 507.328C111.805 507.492 111.997 507.603 112.209 507.64C115.749 508.2 130.859 509.94 140.999 500.16C141.094 500.07 141.206 500.001 141.33 499.959C141.453 499.916 141.584 499.9 141.714 499.912C141.844 499.925 141.97 499.965 142.083 500.03C142.196 500.095 142.294 500.184 142.369 500.29L142.769 500.85C142.866 500.992 143.001 501.102 143.159 501.168C143.317 501.234 143.491 501.252 143.659 501.22C146.659 500.71 161.229 497.75 168.659 487.78C168.928 487.416 169.086 486.981 169.114 486.529C169.143 486.077 169.04 485.626 168.819 485.23C164.429 477.28 141.819 410.08 145.279 296.61L143.539 293.73L26.5093 300.11Z" fill="#F58E81"/>
<path d="M45.7799 341.152C46.6999 352.842 47.1199 364.552 47.3099 376.252C47.4399 382.112 47.4199 387.962 47.4199 393.822C47.4199 399.682 47.2499 405.522 47.1399 411.382C46.7499 423.082 46.2599 455.382 45.1399 467.042C44.5999 472.892 43.9899 478.722 43.1399 484.532C42.8999 485.992 42.7299 487.442 42.4499 488.892L41.5999 493.222C41.0213 496.102 40.2801 498.947 39.3799 501.742L39.9999 497.392C40.2599 495.962 40.3599 494.502 40.4799 493.042L40.8699 488.692C40.9999 487.242 41.0399 485.772 41.1299 484.322C41.3099 481.412 41.5199 478.512 41.5899 475.582C41.6599 472.652 41.8999 469.762 41.9699 466.842C42.0399 463.922 42.1399 440.442 42.2699 437.532L42.5099 428.772C42.7199 422.942 42.8599 417.102 43.0099 411.262L43.5099 393.752C43.7399 387.912 43.8399 382.072 44.0899 376.222C44.5299 364.542 44.9999 352.852 45.7799 341.152Z" fill="#DB786E"/>
<path d="M73.0794 508.651C72.526 496.145 72.0794 483.655 71.7394 471.181L70.7394 413.181L69.7394 375.761C69.4194 363.281 69.1194 350.761 69.1094 338.281C70.8294 350.681 72.0194 363.131 72.9494 375.601C73.4594 381.831 73.7594 388.081 74.1394 394.321C74.5194 400.561 74.6794 406.811 74.8694 413.071C75.0594 419.331 75.0994 425.581 75.1194 431.831C75.1394 438.081 75.1194 464.901 74.9494 471.151C74.6894 483.671 74.2294 496.181 73.0794 508.651Z" fill="#DB786E"/>
<path d="M110.929 506.001C109.119 499.971 107.63 493.85 106.469 487.661C105.259 481.481 104.249 475.261 103.399 469.021L102.769 464.341C102.559 462.781 102.409 440.651 102.229 439.081C101.859 435.961 101.549 432.831 101.229 429.691C100.909 426.551 100.709 423.421 100.469 420.281C100.229 417.141 100.039 414.001 99.8494 410.861C99.6594 407.721 99.5494 404.581 99.4394 401.441C99.3294 398.301 99.1894 395.151 99.1194 392.021L98.6894 373.211L98.2694 354.401C98.2094 351.271 98.1094 348.131 97.9994 345.001C97.9394 343.431 97.8694 341.871 97.7694 340.311C97.7194 339.531 97.6794 338.741 97.5894 337.961C97.5894 337.571 97.5094 337.191 97.4494 336.801C97.4315 336.606 97.3981 336.412 97.3494 336.221C97.3352 336.029 97.2658 335.845 97.1494 335.691C97.3094 335.801 97.3594 336.021 97.4394 336.201C97.5099 336.385 97.57 336.572 97.6194 336.761C97.7294 337.141 97.8294 337.531 97.9094 337.911C98.0994 338.681 98.2294 339.461 98.3894 340.231C98.6594 341.781 98.9094 343.341 99.1294 344.901C99.5894 348.021 99.9294 351.141 100.289 354.271C100.919 360.531 101.479 366.791 101.899 373.061C102.319 379.331 102.669 385.601 103.009 391.871C103.349 398.141 103.549 404.391 103.949 410.641C104.349 416.891 104.659 423.141 105.099 429.381C105.539 435.621 106.039 462.381 106.559 468.661C107.079 474.941 107.699 481.131 108.429 487.351C109.159 493.571 109.929 499.781 110.929 506.001Z" fill="#DB786E"/>
<path d="M123.82 328.543C124.82 341.273 125.48 353.983 126.18 366.693L127.26 385.743C127.62 392.083 127.97 398.433 128.43 404.743C128.89 411.053 129.31 417.403 129.93 423.743C130.55 430.083 131.32 456.863 132.46 463.023C133.76 469.243 135.1 475.453 136.59 481.623C137.3 484.723 138.1 487.793 138.91 490.863C139.72 493.933 140.6 496.993 141.66 500.003C140.216 497.149 138.937 494.214 137.83 491.213C136.68 488.213 135.65 485.213 134.65 482.213C132.65 476.126 130.88 469.986 129.34 463.793C126.34 451.173 125.34 417.793 124.34 405.103C123.96 398.723 123.62 392.353 123.34 385.973C123.06 379.593 122.96 373.223 122.95 366.853C122.89 354.003 123.08 341.283 123.82 328.543Z" fill="#DB786E"/>
<path d="M18.1398 334.703C19.4235 337.714 21.4753 340.334 24.0898 342.303C24.8527 342.824 25.3917 343.613 25.5998 344.513C25.8798 345.823 25.5198 347.513 22.1998 347.893C22.1998 347.893 18.1998 347.123 17.0698 341.303C15.9398 335.483 18.1398 334.703 18.1398 334.703Z" fill="#FBCDC3"/>
<path d="M19.4495 331.003C19.4495 331.003 23.3795 337.003 25.6795 338.203C27.9795 339.403 26.5595 343.443 25.2095 343.473C23.8595 343.503 17.4295 337.953 17.5395 333.553C17.6495 329.153 19.4495 331.003 19.4495 331.003Z" fill="#FBCDC3"/>
<path d="M30.7097 303.08C29.5256 308.666 29.232 314.403 29.8397 320.08C30.3862 324.16 30.4935 328.287 30.1597 332.39C30.0294 333.933 29.569 335.431 28.8097 336.78C27.0197 339.92 25.6197 338.58 24.8097 337.05C24.2603 335.982 24.0443 334.773 24.1897 333.58C25.0497 325.82 21.3697 322.78 21.3697 322.78C21.4497 327.86 19.2297 330.55 17.7197 336.26C16.5997 340.54 19.6397 344.59 21.2497 346.36C21.947 347.126 22.3966 348.085 22.5397 349.11C22.6655 349.925 22.6655 350.755 22.5397 351.57C22.4734 351.957 22.3033 352.319 22.0474 352.617C21.7916 352.915 21.4597 353.138 21.0871 353.262C20.7145 353.387 20.3152 353.407 19.9317 353.323C19.5483 353.238 19.1951 353.05 18.9097 352.78C14.7497 348.78 4.47973 337.58 8.78973 326.59C12.0401 318.077 13.6812 309.033 13.6297 299.92L14.4997 299.07L30.7097 303.08Z" fill="#FBCDC3"/>
<path d="M25.2099 343.502C24.2222 343.436 23.262 343.149 22.3999 342.662C21.5439 342.194 20.7676 341.593 20.0999 340.882C19.3974 340.19 18.8394 339.364 18.4583 338.455C18.0773 337.545 17.8806 336.568 17.8799 335.582C18.6399 336.262 19.1899 336.952 19.8199 337.582L21.5899 339.472C22.7699 340.742 23.9999 341.932 25.2099 343.502Z" fill="#E0A4AB"/>
<path d="M114.769 58.0023C115.472 62.5044 115.883 67.0472 115.999 71.6023C116.039 74.1571 116.399 76.6968 117.069 79.1623C117.626 81.4125 118.648 83.5211 120.069 85.3523C120.396 85.7447 120.639 86.2003 120.782 86.6907C120.925 87.1811 120.965 87.6957 120.899 88.2023C120.435 90.7583 119.232 93.1222 117.439 95.0023C117.175 95.3026 116.956 95.6394 116.789 96.0023C116.632 96.3846 116.537 96.7898 116.509 97.2023C116.281 100.11 116.321 103.032 116.629 105.932C116.702 106.47 116.666 107.016 116.525 107.54C116.383 108.063 116.139 108.553 115.805 108.981C115.472 109.408 115.056 109.765 114.583 110.03C114.11 110.294 113.588 110.462 113.049 110.522C110.748 110.718 108.436 110.755 106.129 110.632L105.859 111.012C101.859 112.442 88.3692 107.602 88.3692 107.602C88.3692 107.602 85.0392 100.862 90.3692 85.6023C95.6992 70.3423 108.059 58.6023 108.059 58.6023L114.789 57.9023" fill="#FBCDC3"/>
<path d="M115.55 56.2503C111.12 53.2503 98.0595 45.7203 82.4195 49.4103C75.5566 51.0996 69.3081 54.6876 64.3898 59.7634C59.4714 64.8392 56.0819 71.1975 54.6095 78.1103C52.7631 86.5724 52.6406 95.3198 54.2495 103.83C55.174 108.543 55.0588 113.4 53.9119 118.064C52.7651 122.727 50.6142 127.084 47.6095 130.83C46.2105 132.505 44.668 134.054 42.9995 135.46C26.8495 149.25 16.7095 158.66 12.8995 190.7L0.109517 283.29C-0.168765 285.294 0.0670326 287.336 0.794744 289.223C1.52246 291.111 2.71818 292.782 4.26952 294.08C10.2695 299.08 22.7095 305.85 47.4395 307.6C87.6495 310.46 167.84 301.73 187.35 270.52L183.46 258C183.46 258 166.72 243.4 152.23 167.47L152.08 166.56C151.57 163.01 146.93 136.24 122.51 126.03C122.51 126.03 109.64 121.44 107.13 111.78C107.047 111.431 106.847 111.12 106.564 110.899C106.28 110.679 105.929 110.563 105.57 110.57C101.64 110.67 89.9995 110.27 88.6895 102.08C86.6895 89.7403 99.5295 62.0103 115.29 57.7803C115.443 57.7326 115.58 57.6434 115.686 57.5224C115.792 57.4015 115.862 57.2536 115.889 57.0951C115.916 56.9366 115.899 56.7738 115.839 56.6247C115.779 56.4755 115.679 56.3459 115.55 56.2503Z" fill="#F9B4B0"/>
<path d="M106.21 74.1924C106.584 73.2641 107.174 72.438 107.93 71.7824C108.69 71.0908 109.596 70.5782 110.58 70.2824C111.621 69.9527 112.739 69.9527 113.78 70.2824C114.271 70.4722 114.72 70.7572 115.101 71.121C115.482 71.4848 115.788 71.9203 116 72.4024C115.163 72.1196 114.292 71.9514 113.41 71.9024C112.638 71.9194 111.871 72.037 111.13 72.2524C109.61 72.6924 108.09 73.5024 106.21 74.1924Z" fill="#131F21"/>
<path d="M112.702 82.1639C113.851 82.072 114.688 80.82 114.572 79.3675C114.455 77.915 113.43 76.812 112.281 76.9039C111.132 76.9958 110.295 78.2478 110.412 79.7003C110.528 81.1528 111.553 82.2558 112.702 82.1639Z" fill="#424143"/>
<path d="M112.929 77.6811C112.209 77.2672 111.373 77.0987 110.549 77.2011C109.718 77.2752 108.936 77.6275 108.329 78.2011C109.056 78.6006 109.889 78.7643 110.714 78.6693C111.538 78.5744 112.312 78.2255 112.929 77.6711V77.6811Z" fill="#424143"/>
<path d="M116.379 102.371C115.101 102.879 113.703 103.01 112.352 102.747C111.002 102.485 109.755 101.841 108.759 100.891C108.209 100.341 108.579 99.5208 109.449 99.3508C110.262 99.1872 111.059 98.9495 111.829 98.6408C115.369 97.2508 116.439 98.4608 116.439 98.4608C116.319 99.8908 116.379 102.371 116.379 102.371Z" fill="#E87085"/>
<path d="M54.5791 114.344C57.2283 120.432 60.1957 126.377 63.4691 132.154C65.0991 135.004 66.7991 137.794 68.6191 140.494L69.2891 141.494L69.9891 142.644C70.4291 143.414 70.9891 144.154 71.3291 144.964L72.4791 147.384L73.4791 149.854C75.8491 156.524 76.5491 163.394 77.0491 170.044C77.3091 173.384 77.4591 176.684 77.8191 179.964C78.0851 183.273 78.6882 186.547 79.6191 189.734C77.69 186.903 76.2468 183.77 75.3491 180.464C74.3491 177.184 73.6591 173.864 73.0391 170.574C71.7991 164.014 70.7491 157.574 68.6391 151.574L67.8191 149.364L66.8191 147.244C66.4937 146.538 66.1298 145.85 65.7291 145.184L65.1691 144.184L64.5191 143.074C62.7669 140.136 61.2166 137.082 59.8791 133.934C57.141 127.706 55.3544 121.102 54.5791 114.344Z" fill="#F3A7A5"/>
<path d="M105.739 129.543C107.333 133.499 108.102 137.739 107.999 142.003C107.988 144.132 107.821 146.258 107.499 148.363C107.199 150.443 106.639 152.613 106.209 154.483C105.279 158.343 104.489 162.263 103.659 166.213C102.829 170.163 102.039 174.213 101.009 178.273C99.9817 174.192 99.5208 169.989 99.6393 165.783C99.7132 161.572 100.24 157.381 101.209 153.283L101.979 150.283C102.259 149.343 102.479 148.373 102.719 147.423C103.189 145.503 103.619 143.573 103.989 141.613C104.719 137.693 105.319 133.733 105.739 129.543Z" fill="#F3A7A5"/>
<path d="M123.659 187.531C125.959 192.951 127.849 198.441 129.659 203.941C131.469 209.441 133.149 214.941 134.759 220.491L139.589 237.001C140.019 238.361 140.429 239.731 140.829 241.121C141.229 242.511 141.719 243.831 142.139 245.221C142.559 246.611 143.139 247.901 143.559 249.291C143.777 249.978 144.047 250.647 144.369 251.291C144.649 251.961 144.959 252.631 145.229 253.291C144.175 252.255 143.199 251.142 142.309 249.961C141.869 249.361 141.459 248.741 141.039 248.131C140.619 247.521 140.199 246.891 139.839 246.251C139.119 244.971 138.359 243.691 137.699 242.371C137.039 241.051 136.419 239.721 135.799 238.371C133.458 233.001 131.454 227.491 129.799 221.871C128.169 216.271 126.799 210.601 125.729 204.871C124.621 199.149 123.929 193.354 123.659 187.531Z" fill="#F3A7A5"/>
<path d="M51.649 205C52.5258 210.319 52.8609 215.713 52.649 221.1C52.4746 226.503 51.8051 231.879 50.649 237.16C50.369 238.49 49.999 239.81 49.649 241.16C49.299 242.51 48.809 243.79 48.379 245.08C47.489 247.52 46.619 249.97 45.799 252.43C44.979 254.89 44.239 257.43 43.569 259.93C42.8537 262.476 42.319 265.069 41.969 267.69C41.2647 265.05 40.9613 262.32 41.069 259.59C41.1283 256.863 41.3991 254.145 41.879 251.46C42.3615 248.789 42.9857 246.145 43.749 243.54C44.439 241.07 45.099 238.61 45.629 236.07C46.749 231.07 47.699 225.89 48.629 220.7C49.559 215.51 50.469 210.25 51.649 205Z" fill="#F3A7A5"/>
<path d="M20.3695 328.562C20.3695 328.562 27.4695 333.133 26.1095 338.562C26.1095 338.562 21.6595 338.133 19.2295 330.562L20.3695 328.562Z" fill="#FBCDC3"/>
<path d="M26.1095 338.532C25.1562 338.489 24.224 338.236 23.3795 337.792C22.5351 337.36 21.7654 336.796 21.0995 336.122C20.428 335.427 19.8922 334.613 19.5195 333.722C19.143 332.814 19.0421 331.816 19.2295 330.852C19.8695 331.612 20.3595 332.272 20.9195 332.852C21.4795 333.432 22.0095 334.062 22.5795 334.652C23.8252 335.88 25.0036 337.176 26.1095 338.532Z" fill="#E0A4AB"/>
<path d="M20.3692 328.562C19.8192 330.273 19.2992 331.952 18.9292 333.622C18.5362 335.235 18.3845 336.896 18.4792 338.552C18.5576 339.346 18.7254 340.127 18.9792 340.883C19.2112 341.666 19.5159 342.426 19.8892 343.152C20.2691 343.909 20.6967 344.64 21.1692 345.342C21.7543 346.071 22.1032 346.961 22.1692 347.893C21.6693 347.178 21.0422 346.561 20.3192 346.073C19.5873 345.494 18.935 344.822 18.3792 344.073C17.822 343.293 17.3713 342.442 17.0392 341.543C16.8756 341.094 16.7387 340.637 16.6292 340.173C16.5202 339.689 16.4499 339.197 16.4192 338.703C16.3722 337.743 16.4529 336.781 16.6592 335.842C16.8398 334.93 17.1146 334.038 17.4792 333.182C18.1713 331.489 19.1488 329.926 20.3692 328.562Z" fill="#E0A4AB"/>
<path d="M24.2793 332.152C24.3475 333.31 24.508 334.46 24.7593 335.592C24.8894 336.123 25.0807 336.636 25.3293 337.122C25.6226 337.642 25.957 338.136 26.3293 338.602C25.7035 338.434 25.1405 338.086 24.7093 337.602C24.2783 337.104 23.9701 336.511 23.8093 335.872C23.6536 335.245 23.6163 334.594 23.6993 333.952C23.7586 333.317 23.9566 332.703 24.2793 332.152Z" fill="#E0A4AB"/>
<path d="M200.28 212.594C200.28 212.594 186.28 262.964 171.73 275.594C170.732 276.436 169.851 277.408 169.11 278.484C167.34 281.154 165.04 285.874 168.43 288.784C167.964 290.29 167.969 291.902 168.445 293.405C168.92 294.908 169.843 296.23 171.09 297.194L169.86 301.304C169.553 302.293 169.589 303.357 169.963 304.323C170.337 305.289 171.027 306.099 171.92 306.624C172.372 306.892 172.86 307.094 173.37 307.224C173.37 307.224 173.47 311.984 177.99 311.754L192.2 294.584C192.2 294.584 194.72 297.524 194.47 300.464C194.37 301.243 194.35 302.03 194.41 302.814C194.71 305.204 195.67 309.814 198.77 310.434C199.167 310.515 199.58 310.461 199.943 310.28C200.305 310.098 200.597 309.8 200.77 309.434C201.393 308.037 201.475 306.458 201 305.004C200.781 304.29 200.63 303.556 200.55 302.814C200.235 299.624 200.178 296.413 200.38 293.214C200.949 285.658 200.815 278.065 199.98 270.534C199.764 268.635 200.145 266.716 201.07 265.044C205.07 257.884 216.59 237.834 226.63 226.634L200.28 212.594Z" fill="#FBCDC3"/>
<path d="M168.429 288.811C168.412 288.022 168.572 287.24 168.899 286.521C169.204 285.828 169.616 285.187 170.119 284.621C171.121 283.405 172.554 282.624 174.119 282.441C173.805 283.125 173.423 283.775 172.979 284.381C172.569 284.941 172.149 285.471 171.699 285.981C171.249 286.491 170.779 286.981 170.259 287.451C169.688 287.956 169.076 288.411 168.429 288.811Z" fill="#E0A4AB"/>
<path d="M171.089 297.22C171.042 296.25 171.16 295.28 171.439 294.35C171.695 293.448 172.047 292.577 172.489 291.75C172.927 290.921 173.45 290.141 174.049 289.42C174.66 288.667 175.389 288.018 176.209 287.5C176.05 288.438 175.792 289.357 175.439 290.24C175.113 291.086 174.736 291.911 174.309 292.71C173.883 293.499 173.412 294.264 172.899 295C172.371 295.798 171.764 296.542 171.089 297.22Z" fill="#E0A4AB"/>
<path d="M173.64 307.251C173.668 305.823 173.866 304.403 174.23 303.021C174.567 301.654 175.015 300.316 175.57 299.021C176.128 297.716 176.797 296.462 177.57 295.271C178.317 294.051 179.218 292.932 180.25 291.941C179.92 293.299 179.506 294.635 179.01 295.941C178.53 297.241 178.01 298.521 177.5 299.781C176.99 301.041 176.39 302.291 175.77 303.541C175.15 304.828 174.438 306.068 173.64 307.251Z" fill="#E0A4AB"/>
<path d="M179.73 304.361C176.73 299.191 181.4 295.791 181.4 295.791C181.252 295.105 181.313 294.391 181.575 293.74C181.837 293.09 182.288 292.532 182.87 292.141C184.97 290.391 186.52 294.141 186.52 294.141C187.68 290.251 190.52 290.811 191.41 292.141C191.903 292.883 192.177 293.75 192.2 294.641C192.392 299.502 193.743 304.247 196.14 308.481C195.823 309.104 195.335 309.623 194.732 309.978C194.13 310.332 193.438 310.507 192.74 310.481C191.993 311.085 191.126 311.524 190.197 311.771C189.269 312.017 188.298 312.065 187.35 311.911C186.97 312.554 186.394 313.058 185.707 313.35C185.019 313.642 184.256 313.705 183.53 313.531C183.352 314.023 183.025 314.448 182.595 314.747C182.166 315.046 181.654 315.205 181.13 315.201C179.8 315.331 177.94 313.201 176.92 308.341C175.9 303.481 179.73 304.401 179.73 304.401" fill="#FBCDC3"/>
<path d="M186.499 293.863C186.945 294.739 187.303 295.657 187.569 296.603C187.829 297.513 188.049 298.413 188.229 299.313C188.409 300.213 188.559 301.113 188.699 302.013C188.839 302.913 188.939 303.813 189.189 304.813C188.309 304.272 187.612 303.477 187.189 302.533C186.744 301.642 186.424 300.693 186.239 299.713C186.05 298.755 185.969 297.779 185.999 296.803C186.005 295.803 186.174 294.81 186.499 293.863Z" fill="#E0A4AB"/>
<path d="M181.4 295.793C181.995 296.633 182.498 297.535 182.9 298.483C183.284 299.387 183.618 300.312 183.9 301.253C184.19 302.183 184.45 303.123 184.66 304.083C184.87 305.043 185.05 305.973 185.32 307.013C184.407 306.44 183.662 305.637 183.16 304.683C182.649 303.795 182.24 302.852 181.94 301.873C181.634 300.896 181.423 299.891 181.31 298.873C181.193 297.847 181.223 296.81 181.4 295.793Z" fill="#E0A4AB"/>
<path d="M192.199 294.501C192.163 293.754 191.909 293.035 191.469 292.431C191.263 292.142 190.995 291.903 190.686 291.731C190.376 291.558 190.033 291.455 189.679 291.431C189.342 291.419 189.007 291.482 188.698 291.615C188.388 291.748 188.112 291.948 187.889 292.201C187.405 292.713 187.025 293.314 186.769 293.971L186.479 294.711L186.039 294.011C185.7 293.441 185.239 292.952 184.689 292.581C184.459 292.42 184.185 292.333 183.904 292.333C183.623 292.333 183.349 292.42 183.119 292.581C182.595 292.937 182.193 293.447 181.969 294.041C181.748 294.644 181.676 295.293 181.759 295.931L181.809 296.251L181.579 296.431C180.459 297.287 179.716 298.546 179.509 299.941C179.414 300.651 179.414 301.37 179.509 302.081C179.569 302.806 179.717 303.521 179.949 304.211L180.099 304.671H179.629C179.319 304.703 179.02 304.8 178.751 304.957C178.482 305.114 178.25 305.327 178.069 305.581C177.696 306.145 177.472 306.796 177.419 307.471C177.343 308.9 177.501 310.332 177.889 311.711C177.32 310.361 177.011 308.915 176.979 307.451C176.966 306.672 177.174 305.905 177.579 305.241C177.798 304.892 178.09 304.596 178.436 304.373C178.781 304.15 179.172 304.006 179.579 303.951L179.269 304.451C178.968 303.715 178.753 302.946 178.629 302.161C178.519 301.368 178.519 300.563 178.629 299.771C178.729 298.952 178.99 298.161 179.396 297.444C179.803 296.726 180.348 296.096 180.999 295.591L180.809 296.091C180.683 295.265 180.773 294.421 181.069 293.641C181.378 292.849 181.932 292.176 182.649 291.721C183.041 291.474 183.497 291.349 183.959 291.36C184.413 291.383 184.852 291.528 185.229 291.781C185.896 292.247 186.435 292.873 186.799 293.601H186.069C186.403 292.862 186.882 292.199 187.479 291.651C187.781 291.358 188.144 291.134 188.541 290.994C188.938 290.854 189.36 290.802 189.779 290.841C190.19 290.898 190.582 291.047 190.928 291.275C191.274 291.503 191.565 291.806 191.779 292.161C192.179 292.871 192.327 293.695 192.199 294.501Z" fill="#E0A4AB"/>
<path d="M196.14 308.451C194.961 307.167 194.062 305.652 193.5 304.001C193.211 303.181 192.99 302.338 192.84 301.481C192.673 300.622 192.616 299.745 192.67 298.871C193.36 300.481 193.9 302.071 194.47 303.651L195.31 306.041C195.59 306.811 195.9 307.601 196.14 308.451Z" fill="#E0A4AB"/>
<path d="M179.52 303.82C179.963 304.418 180.374 305.038 180.75 305.68C181.099 306.282 181.413 306.903 181.69 307.54C181.97 308.191 182.208 308.859 182.4 309.54C182.615 310.275 182.732 311.035 182.75 311.8C182.062 311.425 181.456 310.915 180.97 310.3C180.494 309.717 180.1 309.071 179.8 308.38C179.501 307.682 179.305 306.945 179.22 306.19C179.102 305.388 179.206 304.568 179.52 303.82Z" fill="#E0A4AB"/>
<path d="M204.65 190.683C204.435 190.477 204.178 190.321 203.896 190.227C203.614 190.133 203.314 190.104 203.019 190.14C202.724 190.176 202.441 190.278 202.19 190.438C201.94 190.597 201.728 190.811 201.57 191.063C199.44 194.293 195.49 201.063 195.01 207.723C194.986 207.996 195.017 208.271 195.101 208.532C195.185 208.793 195.321 209.035 195.5 209.243C198.5 212.623 213.66 228.363 240.24 229.543L242.93 228.253L244.45 208.003L206.94 192.123C206.1 191.776 205.326 191.289 204.65 190.683Z" fill="#9B6B43"/>
<path d="M382.69 198.393L384.37 198.103C384.932 198.003 385.512 198.115 385.996 198.418C386.481 198.721 386.835 199.193 386.99 199.743C387.93 203.123 389.38 210.743 387.73 221.953C387.672 222.344 387.516 222.713 387.277 223.026C387.037 223.339 386.721 223.586 386.36 223.743C382.36 225.463 369.07 230.653 358.05 227.983L354.93 221.313L356.2 202.773L381.34 197.773L382.69 198.393Z" fill="#9B6B43"/>
<path d="M327.66 83.7617C327.66 83.7617 348.6 91.8717 362.94 98.9417C379.84 107.262 378.25 175.792 382.69 198.392C382.69 198.392 365.69 202.902 357.47 202.772C357.47 202.772 358.95 265.272 359.12 282.912C359.128 283.676 358.864 284.417 358.375 285.004C357.885 285.59 357.203 285.983 356.45 286.112C347.85 287.622 320.32 291.972 299.89 289.942C299.89 289.942 265.31 294.752 235.03 283.522C234.375 283.24 233.836 282.741 233.505 282.109C233.173 281.478 233.069 280.751 233.21 280.052C234.92 270.052 241.09 230.452 241.92 208.602C241.92 208.602 219.23 205.052 205.67 191.602C205.67 191.602 213.76 168.162 220.26 130.412C226.76 92.6617 272.92 88.0617 272.92 88.0617L327.66 83.7617Z" fill="#BC7749"/>
<path d="M306.999 57.7025C306.999 57.7025 307.839 69.5125 311.729 75.2225C315.619 80.9325 315.999 89.4225 315.999 89.4225L299.809 114.003L291.319 102.002L278.239 95.0025L274.189 80.0925C274.189 80.0925 278.039 77.1625 276.629 70.8925L286.629 56.8925L295.049 47.0625L306.999 57.7025Z" fill="#E0A4AB"/>
<path d="M253.529 27.0018C253.529 27.0018 247.529 13.2418 267.529 3.25184C287.529 -6.73816 314.879 7.00184 314.399 32.2018C314.399 32.2018 315.149 46.4518 307.399 57.3618C307.312 57.4797 307.198 57.5755 307.067 57.6415C306.936 57.7075 306.791 57.7419 306.644 57.7419C306.498 57.7419 306.353 57.7075 306.222 57.6415C306.091 57.5755 305.977 57.4797 305.889 57.3618C302.882 53.5417 298.858 50.6475 294.279 49.0118L282.909 44.8118L277.829 32.5918L273.479 20.9018L253.529 27.0018Z" fill="#223A3E"/>
<path d="M272.759 19.7821C266.159 19.0821 258.049 23.4521 254.609 25.5421C254.153 25.8268 253.806 26.2571 253.624 26.7634C253.443 27.2697 253.438 27.8224 253.609 28.3321C254.879 32.1421 257.139 41.6821 251.939 50.4521C251.681 50.8759 251.57 51.3728 251.622 51.8662C251.674 52.3596 251.888 52.822 252.229 53.1821C253.878 54.8136 256.011 55.8662 258.309 56.1821C258.758 56.2635 259.182 56.4511 259.543 56.7295C259.905 57.0079 260.195 57.3688 260.389 57.7821C261.44 60.1004 262.148 62.5596 262.489 65.0821C262.791 67.4193 263.997 69.5448 265.849 71.0021C268.169 72.7521 271.789 73.9221 276.629 70.9121C276.629 70.9121 287.529 63.4421 292.269 55.2621C293.101 53.818 293.536 52.179 293.529 50.5121C293.527 50.2323 293.596 49.9564 293.729 49.7101C293.862 49.4637 294.054 49.2546 294.289 49.1021C296.129 47.9221 300.649 44.5421 300.839 39.6221C301.059 34.0221 294.729 32.9521 290.079 36.9721C289.333 37.6404 288.677 38.4036 288.129 39.2421L284.579 44.1021C284.579 44.1021 284.579 38.7121 282.639 36.7121C280.269 34.3221 278.419 32.6021 277.519 28.2021C277.021 25.8746 276.221 23.6222 275.139 21.5021C274.923 21.0355 274.591 20.6322 274.174 20.331C273.757 20.0298 273.27 19.8408 272.759 19.7821Z" fill="#FBCDC3"/>
<path d="M290.069 44.6301C290.076 44.8859 290.14 45.1371 290.256 45.3653C290.372 45.5936 290.537 45.7933 290.739 45.9501C290.967 46.0864 291.22 46.1761 291.482 46.2138C291.745 46.2516 292.012 46.2367 292.269 46.1701C293.247 45.8955 294.163 45.4373 294.969 44.8201C295.807 44.2003 296.492 43.3963 296.969 42.4701C297.469 41.5044 297.655 40.4064 297.499 39.3301C297.407 38.7656 297.169 38.2349 296.809 37.7901C296.617 37.5487 296.369 37.3572 296.087 37.2319C295.805 37.1066 295.497 37.051 295.189 37.0701C294.62 37.1318 294.083 37.3655 293.649 37.7401C293.248 38.0679 292.888 38.4441 292.579 38.8601C291.947 39.6762 291.503 40.6222 291.279 41.6301C291.206 41.89 291.188 42.1625 291.228 42.4297C291.268 42.6969 291.364 42.9526 291.509 43.1801C291.614 43.2733 291.744 43.3336 291.883 43.3531C292.021 43.3727 292.163 43.3508 292.289 43.2901C292.515 43.1876 292.727 43.0565 292.919 42.9001C292.708 43.0142 292.483 43.1015 292.249 43.1601C292.153 43.1946 292.048 43.1998 291.948 43.1749C291.848 43.15 291.758 43.0961 291.689 43.0201C291.603 42.8161 291.558 42.5967 291.558 42.3751C291.558 42.1534 291.603 41.9341 291.689 41.7301C291.978 40.8327 292.455 40.0075 293.089 39.3101C293.607 38.6165 294.355 38.1306 295.199 37.9401C295.919 37.9401 296.459 38.6501 296.589 39.5001C296.668 40.4036 296.518 41.3124 296.152 42.1426C295.787 42.9727 295.219 43.6975 294.499 44.2501C293.81 44.8812 293.01 45.3796 292.139 45.7201C291.935 45.8067 291.716 45.8513 291.494 45.8513C291.273 45.8513 291.053 45.8067 290.849 45.7201C290.654 45.599 290.484 45.4403 290.35 45.2532C290.216 45.0661 290.121 44.8543 290.069 44.6301Z" fill="#E0A4AB"/>
<path d="M291.559 41.1821C291.999 40.7121 292.689 40.1821 293.019 40.5921C293.195 40.7974 293.307 41.0501 293.341 41.3185C293.375 41.587 293.329 41.8595 293.209 42.1021C292.955 42.6502 292.562 43.1225 292.069 43.4721C291.591 43.8942 290.966 44.1131 290.329 44.0821C290.626 44.2712 290.982 44.3425 291.329 44.2821C291.68 44.2301 292.019 44.1149 292.329 43.9421C292.998 43.6048 293.526 43.0415 293.819 42.3521C293.984 41.9811 294.021 41.5662 293.925 41.172C293.829 40.7777 293.605 40.4262 293.289 40.1721C293.102 40.0544 292.878 40.0082 292.659 40.0421C292.462 40.0809 292.28 40.1785 292.139 40.3221C291.885 40.5631 291.687 40.8566 291.559 41.1821Z" fill="#E0A4AB"/>
<path d="M256.76 36.482C257.149 35.5876 257.779 34.819 258.58 34.262C259.398 33.6695 260.356 33.2976 261.36 33.182C262.395 33.0546 263.444 33.2539 264.36 33.752C265.245 34.2192 265.949 34.9689 266.36 35.882C265.529 35.6283 264.685 35.4246 263.83 35.272C263.096 35.1459 262.348 35.1291 261.61 35.222C259.958 35.4913 258.334 35.9131 256.76 36.482Z" fill="#131F21"/>
<path d="M262.835 44.3435C263.78 44.1373 264.301 42.8504 263.999 41.4691C263.697 40.0878 262.687 39.1352 261.743 39.3414C260.799 39.5477 260.278 40.8346 260.579 42.2159C260.881 43.5972 261.891 44.5498 262.835 44.3435Z" fill="#131F21"/>
<path d="M261.369 60.3422C263.911 59.8264 266.413 59.1348 268.859 58.2722C269.068 58.1913 269.295 58.1652 269.517 58.1963C269.739 58.2274 269.95 58.3146 270.129 58.4497C270.308 58.5848 270.45 58.7634 270.541 58.9686C270.632 59.1737 270.669 59.3986 270.649 59.6221C270.339 63.1821 269.279 68.3622 263.309 67.8222C262.723 66.5906 262.367 65.262 262.259 63.9022L261.369 60.3422Z" fill="#E87085"/>
<path d="M298.539 60.0703C299.364 61.218 299.983 62.5004 300.369 63.8603C300.79 65.1924 301.058 66.5678 301.169 67.9603C301.286 69.354 301.242 70.7565 301.039 72.1403C300.862 73.5246 300.475 74.8736 299.889 76.1403C299.639 74.7403 299.559 73.4003 299.439 72.0603L299.119 68.0603C298.929 65.4803 298.659 62.8903 298.539 60.0703Z" fill="#C48D95"/>
<path d="M308.229 66C308.229 66 316.699 73.64 321.229 76.81C326.319 80.38 333.659 91.62 335.499 100.13C335.539 100.289 335.533 100.457 335.482 100.613C335.43 100.768 335.336 100.907 335.209 101.011C335.083 101.116 334.929 101.183 334.767 101.204C334.604 101.225 334.438 101.199 334.289 101.13C330.689 99.53 320.419 97.85 299.819 114.04C299.819 114.04 300.379 105.87 304.539 101.41C308.624 97.008 311.426 91.5714 312.639 85.69C313.344 81.5422 312.681 77.2777 310.749 73.54C309.545 71.1634 308.696 68.623 308.229 66Z" fill="#9B6B43"/>
<path d="M276.84 75C268.512 84.5534 262.648 95.9996 259.76 108.34C259.76 108.34 278.16 89.14 299.81 114.05C299.81 114.05 297.72 102.29 289.1 97.55C278 91.4 276.32 83.9 276.84 75Z" fill="#9B6B43"/>
<path d="M299.889 289.941C299.659 282.611 299.549 275.281 299.379 267.941L299.079 245.941C298.909 231.281 298.919 216.621 298.819 201.941C298.899 187.281 298.879 172.621 299.039 157.941L299.319 135.941C299.479 128.611 299.579 121.281 299.809 113.941C300.049 121.271 300.149 128.601 300.319 135.941L300.619 157.941C300.789 172.601 300.789 187.261 300.879 201.941C300.799 216.601 300.819 231.271 300.659 245.941L300.379 267.941C300.219 275.281 300.119 282.611 299.889 289.941Z" fill="#91643A"/>
<path d="M242.309 122.25C242.509 129.47 242.779 136.67 243.079 143.86C243.259 147.45 243.409 151.04 243.669 154.62C243.929 158.2 244.219 161.76 244.499 165.39C244.998 172.617 245.021 179.87 244.569 187.1C244.207 194.321 243.322 201.507 241.919 208.6C242.273 205.007 242.509 201.413 242.629 197.82C242.789 194.23 242.879 190.63 242.969 187.04C243.109 179.86 242.969 172.68 242.449 165.53C242.219 161.97 241.889 158.34 241.729 154.73C241.569 151.12 241.469 147.51 241.479 143.89C241.453 136.67 241.729 129.457 242.309 122.25Z" fill="#91643A"/>
<path d="M354.929 121.062C355.719 127.852 356.249 134.653 356.579 141.463C356.909 148.273 357.119 155.103 357.199 161.923C357.199 165.333 357.199 168.742 357.199 172.152C357.199 175.562 357.109 178.953 357.099 182.353C357.089 185.753 357.099 189.152 357.169 192.562C357.239 195.973 357.319 199.363 357.489 202.773C356.388 196.029 355.72 189.222 355.489 182.393C355.179 175.553 355.269 168.743 355.159 161.943L354.999 141.512C354.919 134.702 354.919 127.892 354.929 121.062Z" fill="#91643A"/>
<path d="M292.69 134.092C294.004 134.092 295.07 133.026 295.07 131.712C295.07 130.398 294.004 129.332 292.69 129.332C291.375 129.332 290.31 130.398 290.31 131.712C290.31 133.026 291.375 134.092 292.69 134.092Z" fill="#91643A"/>
<path d="M291.8 173.393C293.114 173.393 294.18 172.327 294.18 171.013C294.18 169.698 293.114 168.633 291.8 168.633C290.485 168.633 289.42 169.698 289.42 171.013C289.42 172.327 290.485 173.393 291.8 173.393Z" fill="#91643A"/>
<path d="M293.23 207.533C294.544 207.533 295.61 206.468 295.61 205.153C295.61 203.839 294.544 202.773 293.23 202.773C291.915 202.773 290.85 203.839 290.85 205.153C290.85 206.468 291.915 207.533 293.23 207.533Z" fill="#91643A"/>
<path d="M292.39 241.49C293.704 241.49 294.77 240.425 294.77 239.11C294.77 237.796 293.704 236.73 292.39 236.73C291.075 236.73 290.01 237.796 290.01 239.11C290.01 240.425 291.075 241.49 292.39 241.49Z" fill="#91643A"/>
<path d="M291.8 273.791C293.114 273.791 294.18 272.726 294.18 271.411C294.18 270.097 293.114 269.031 291.8 269.031C290.485 269.031 289.42 270.097 289.42 271.411C289.42 272.726 290.485 273.791 291.8 273.791Z" fill="#91643A"/>
<path d="M374.559 261.801L374.319 265.801C374.259 267.111 374.179 268.411 374.169 269.721C374.159 271.031 374.169 272.321 374.249 273.631C374.347 274.939 374.517 276.241 374.759 277.531C374.128 276.34 373.686 275.058 373.449 273.731C373.228 272.409 373.124 271.071 373.139 269.731C373.166 267.027 373.646 264.346 374.559 261.801Z" fill="#E0A4AB"/>
<path d="M239.479 285.051C239.479 285.051 251.21 405.271 261.48 488.361C261.578 489.177 261.897 489.951 262.4 490.601C262.904 491.25 263.574 491.751 264.339 492.051C270.659 494.481 287.439 499.361 299.489 488.341C300.007 487.865 300.407 487.277 300.658 486.621C300.91 485.965 301.006 485.26 300.939 484.561C297.639 449.911 298.649 388.011 299.799 325.211C299.799 325.211 308.919 351.541 314.469 366.611C314.469 366.611 311.779 395.161 296.549 421.331L297.859 428.331C297.859 428.331 311.73 441.141 326.13 443.331C326.823 443.436 327.533 443.323 328.159 443.008C328.786 442.692 329.3 442.19 329.63 441.571L356.369 391.501C362.736 379.61 365.023 365.958 362.88 352.641C362.88 352.501 362.879 352.361 362.809 352.231C360.069 335.521 354.33 312.081 349.13 285.631L239.479 285.051Z" fill="#223A3E"/>
<path d="M299.81 325.211C299.304 323.423 298.969 321.592 298.81 319.741C298.62 317.904 298.54 316.057 298.57 314.211C298.608 312.362 298.772 310.518 299.06 308.691C299.326 306.845 299.806 305.036 300.49 303.301C300.62 305.171 300.65 306.991 300.66 308.811C300.67 310.631 300.66 312.441 300.66 314.251C300.66 316.061 300.55 317.881 300.43 319.711C300.321 321.554 300.114 323.39 299.81 325.211Z" fill="#131E20"/>
<path d="M298.71 417.473C299.098 418.402 299.37 419.376 299.52 420.373C299.813 422.302 299.813 424.264 299.52 426.193C299.376 427.193 299.104 428.172 298.71 429.103C298.32 428.17 298.048 427.192 297.9 426.193C297.752 425.23 297.678 424.257 297.68 423.283C297.677 422.308 297.754 421.335 297.91 420.373C298.051 419.376 298.32 418.401 298.71 417.473Z" fill="#131E20"/>
<path d="M278.309 509.622C281.869 509.882 291.529 510.162 298.049 506.362C298.191 506.288 298.349 506.25 298.509 506.25C298.668 506.25 298.826 506.288 298.968 506.362C299.11 506.435 299.232 506.542 299.325 506.672C299.417 506.803 299.477 506.953 299.499 507.112C299.729 509.172 300.069 513.422 300.129 520.552C300.142 522.681 300.545 524.789 301.319 526.772C302.949 530.942 305.539 539.992 304.899 547.402C303.489 563.672 277.259 570.152 279.349 535.302C279.349 535.302 281.299 526.382 277.289 510.832C277.257 510.682 277.259 510.528 277.296 510.379C277.333 510.231 277.404 510.093 277.502 509.976C277.601 509.86 277.724 509.767 277.864 509.705C278.004 509.644 278.156 509.615 278.309 509.622Z" fill="#223A3E"/>
</g>
<defs>
<clipPath id="clip0_1354_1195">
<rect width="388.48" height="569.79" fill="white"/>
</clipPath>
</defs>
</svg>
