<svg width="526" height="524" viewBox="0 0 526 524" fill="none" xmlns="http://www.w3.org/2000/svg">
<g clip-path="url(#clip0_1354_1586)">
<path d="M510.28 521.889H484.8L321.56 206.059H347.04L510.28 521.889Z" fill="#223A3E"/>
<path d="M306.79 521.889H332.27L495.5 206.059H470.02L306.79 521.889Z" fill="#223A3E"/>
<path d="M202.71 366.598L405 358.168C405.647 358.136 406.276 357.947 406.833 357.617C407.39 357.288 407.86 356.829 408.2 356.278C411.51 350.968 411.77 345.668 408.31 340.358C407.938 339.79 407.424 339.328 406.819 339.02C406.214 338.711 405.539 338.566 404.86 338.598L202.33 346.998C201.454 347.03 200.597 347.264 199.826 347.68C199.054 348.096 198.388 348.684 197.88 349.398C194.39 354.398 194.53 359.238 197.71 364.048C198.253 364.868 198.998 365.534 199.875 365.981C200.751 366.428 201.728 366.641 202.71 366.598Z" fill="#425355"/>
<path d="M302.199 521.889H276.719L113.479 206.059H138.959L302.199 521.889Z" fill="#223A3E"/>
<path d="M98.71 521.889H124.19L287.42 206.059H261.94L98.71 521.889Z" fill="#223A3E"/>
<path d="M285.179 261.55L121.319 267.05C119.943 267.096 118.638 267.676 117.681 268.667C116.723 269.658 116.189 270.982 116.189 272.36V282C116.189 282.711 116.332 283.416 116.609 284.072C116.887 284.727 117.293 285.32 117.804 285.816C118.316 286.311 118.921 286.699 119.585 286.955C120.249 287.212 120.958 287.332 121.669 287.31L285.539 281.81C286.916 281.763 288.221 281.183 289.178 280.192C290.136 279.201 290.67 277.877 290.669 276.5V266.9C290.674 266.184 290.534 265.475 290.258 264.814C289.982 264.154 289.575 263.556 289.062 263.057C288.55 262.557 287.942 262.166 287.275 261.907C286.607 261.648 285.895 261.527 285.179 261.55Z" fill="#425355"/>
<path d="M218.85 0L461.57 14.27C477.05 14.58 488.92 22.19 497.32 35.19C526.07 79.62 538.72 153.54 504.8 212.85C498.15 224.48 488.73 234.23 475.45 235.97L231 264.5L218.85 0Z" fill="#8A8875"/>
<path d="M218.85 265.38C276.795 265.38 323.77 205.973 323.77 132.69C323.77 59.4073 276.795 0 218.85 0C160.904 0 113.93 59.4073 113.93 132.69C113.93 205.973 160.904 265.38 218.85 265.38Z" fill="#CDCAB3"/>
<path d="M247.23 260.04C249.859 260.04 251.99 258.012 251.99 255.51C251.99 253.009 249.859 250.98 247.23 250.98C244.601 250.98 242.47 253.009 242.47 255.51C242.47 258.012 244.601 260.04 247.23 260.04Z" fill="#8A8875"/>
<path d="M234.05 10.9886C236.585 10.9886 238.64 8.93358 238.64 6.39859C238.64 3.86361 236.585 1.80859 234.05 1.80859C231.515 1.80859 229.46 3.86361 229.46 6.39859C229.46 8.93358 231.515 10.9886 234.05 10.9886Z" fill="#8A8875"/>
<path d="M203.429 265.369C260.513 265.369 306.789 206.848 306.789 134.659C306.789 62.4701 260.513 3.94922 203.429 3.94922C146.345 3.94922 100.069 62.4701 100.069 134.659C100.069 206.848 146.345 265.369 203.429 265.369Z" fill="#E5E1CA"/>
<path d="M109.5 116.859L112.37 144.519L118.18 142.819L115.29 115.949L109.5 116.859Z" fill="#8A8875"/>
<path d="M98.71 151.132C98.71 151.132 110.64 139.362 115.64 143.012C115.64 143.012 118.49 139.532 120.87 140.622C123.25 141.712 121.23 144.812 121.23 144.812C121.23 144.812 124.75 146.032 123.67 148.552C123.67 148.552 126.44 148.792 125.99 153.172L126.04 155.252C126.04 155.252 108.34 165.042 104.81 163.172C101.28 161.302 98.71 151.132 98.71 151.132Z" fill="#FBCDC3"/>
<path d="M115.64 143C117.025 144.754 118.24 146.636 119.27 148.62C119.538 149.126 119.753 149.659 119.91 150.21C120.016 150.535 120.016 150.885 119.91 151.21C119.785 151.544 119.538 151.819 119.22 151.98C118.661 152.228 118.049 152.331 117.44 152.28C116.855 152.241 116.277 152.13 115.72 151.95C115.164 151.77 114.635 151.515 114.15 151.19C113.902 151.022 113.671 150.831 113.46 150.62L113.31 150.45L113.19 150.34C113.109 150.269 113.018 150.212 112.92 150.17C112.719 150.08 112.494 150.059 112.28 150.11C112.05 150.161 111.838 150.276 111.67 150.44C111.256 150.773 110.89 151.16 110.58 151.59C110.292 152.015 110.095 152.495 110 153C109.933 153.544 109.913 154.093 109.94 154.64C109.918 155.206 109.81 155.766 109.62 156.3C109.449 156.85 109.068 157.31 108.56 157.58C109.014 157.263 109.334 156.789 109.46 156.25C109.601 155.722 109.659 155.176 109.63 154.63C109.63 154.36 109.63 154.09 109.58 153.81C109.555 153.521 109.555 153.229 109.58 152.94C109.665 152.356 109.873 151.798 110.19 151.3C110.495 150.804 110.88 150.361 111.33 149.99C111.558 149.761 111.845 149.598 112.16 149.52C112.492 149.436 112.842 149.46 113.16 149.59C113.32 149.651 113.469 149.739 113.6 149.85C113.664 149.901 113.725 149.958 113.78 150.02L113.91 150.16C114.095 150.34 114.296 150.504 114.51 150.65C114.954 150.938 115.435 151.167 115.94 151.33C116.442 151.495 116.962 151.596 117.49 151.63C117.993 151.686 118.502 151.614 118.97 151.42C119.4 151.21 119.52 150.87 119.35 150.34C119.21 149.817 119.029 149.305 118.81 148.81C118.37 147.81 117.81 146.81 117.3 145.87C116.79 144.93 116.21 144 115.64 143Z" fill="#E0A4AB"/>
<path d="M121.229 144.809C121.079 145.104 120.884 145.374 120.649 145.609C120.418 145.845 120.16 146.053 119.879 146.229C119.599 146.402 119.296 146.537 118.979 146.629C118.656 146.73 118.312 146.747 117.979 146.679C118.559 146.329 119.039 146.019 119.559 145.679C120.089 145.34 120.648 145.049 121.229 144.809Z" fill="#E0A4AB"/>
<path d="M123.67 148.551C123.487 148.898 123.243 149.21 122.95 149.471C122.646 149.738 122.311 149.967 121.95 150.151C121.26 150.557 120.449 150.706 119.66 150.571L120.66 150.091C120.98 149.931 121.31 149.781 121.66 149.601C122.34 149.261 123 148.891 123.67 148.551Z" fill="#E0A4AB"/>
<path d="M117.68 152.001C117.36 152.477 117.102 152.991 116.91 153.531C116.793 153.759 116.731 154.011 116.731 154.266C116.731 154.522 116.793 154.774 116.91 155.001C117.08 155.174 117.292 155.301 117.525 155.367C117.758 155.434 118.004 155.439 118.24 155.381C118.793 155.326 119.338 155.202 119.86 155.011C120.935 154.639 121.981 154.187 122.99 153.661C123.99 153.131 124.99 152.561 125.99 151.941C125.148 152.754 124.219 153.472 123.22 154.081C122.224 154.715 121.157 155.228 120.04 155.611C119.467 155.804 118.873 155.925 118.27 155.971C118.114 155.991 117.956 155.991 117.8 155.971H117.56L117.32 155.901C117.149 155.855 116.987 155.781 116.84 155.681C116.701 155.574 116.582 155.441 116.49 155.291C116.299 154.996 116.23 154.637 116.3 154.291C116.343 153.984 116.438 153.687 116.58 153.411C116.867 152.885 117.239 152.408 117.68 152.001Z" fill="#E0A4AB"/>
<path d="M145.189 95.2188L155.079 127.269L150.329 130.819L140.279 97.3288L145.189 95.2188Z" fill="#8A8875"/>
<path d="M84.3098 510.18C84.3098 510.18 84.0098 520.26 88.5498 521.34C93.0898 522.42 106.55 521.62 113.45 521.34C120.9 521.03 133.51 519.75 135.93 516.34C135.93 516.34 137.39 514.14 136.12 512.2L96.8698 514.2C96.8698 514.2 85.2098 511.92 84.3098 510.18Z" fill="#6E6C5C"/>
<path d="M129.929 512.722C131.929 512.722 133.539 513.272 134.929 512.892C137.289 512.272 135.849 510.012 135.849 510.012C137.049 509.012 135.849 507.612 135.849 507.612C137.189 506.562 135.849 505.022 135.849 505.022C136.038 504.818 136.177 504.574 136.257 504.309C136.336 504.043 136.353 503.762 136.307 503.489C136.26 503.215 136.152 502.956 135.989 502.731C135.827 502.506 135.615 502.322 135.369 502.192C135.369 502.192 137.049 502.342 136.369 499.892C135.369 496.582 132.489 498.692 130.569 497.542C129.43 497.006 128.222 496.63 126.979 496.422L128.409 501.592L129.679 509.222L129.789 512.392L129.929 512.722Z" fill="#FBCDC3"/>
<path d="M119 513.729C113.92 513.989 106.65 514.579 101.75 515.259C101.75 515.259 94.1601 515.999 87.7501 514.109C86.8172 513.824 85.9879 513.273 85.3643 512.523C84.7406 511.774 84.3499 510.858 84.2401 509.889C83.7564 505.031 83.7564 500.137 84.2401 495.279C84.2401 495.279 85.0001 488.099 80.8701 471.649L90.0001 466.559L104.61 465.559C104.61 465.559 103.61 475.449 104.8 482.809C105.112 484.732 105.843 486.563 106.94 488.174C108.037 489.784 109.474 491.134 111.15 492.129C112.388 492.852 113.675 493.491 115 494.039H115.05L116.34 494.879L119.94 501.679V511.899L118.94 513.689" fill="#FBCDC3"/>
<path d="M119 513.728C121.06 499.998 115 494.078 115 494.078C117.875 495.207 120.915 495.855 124 495.998C124 495.998 125.43 496.118 127 496.418C132.59 503.808 129.91 512.718 129.91 512.718C128.833 512.763 127.762 512.904 126.71 513.138C125.417 513.41 124.101 513.557 122.78 513.578C121.78 513.598 120.46 513.648 119 513.728Z" fill="#8A8875"/>
<path d="M131.25 501C132 501.21 132.67 501.47 133.35 501.68C133.68 501.8 134.03 501.89 134.35 501.99L135.43 502.24C134.69 502.525 133.87 502.525 133.13 502.24C132.779 502.111 132.444 501.944 132.13 501.74C131.794 501.549 131.496 501.298 131.25 501Z" fill="#E0A4AB"/>
<path d="M135.93 505.001C135.219 505.238 134.461 505.303 133.72 505.191C133.344 505.141 132.974 505.047 132.62 504.911C132.252 504.776 131.934 504.532 131.71 504.211C132.035 504.318 132.37 504.392 132.71 504.431L133.71 504.571C134.462 504.643 135.205 504.787 135.93 505.001Z" fill="#E0A4AB"/>
<path d="M135.89 507.61C135.164 507.9 134.376 508 133.6 507.9C133.208 507.857 132.826 507.749 132.47 507.58C132.28 507.506 132.106 507.395 131.96 507.252C131.814 507.109 131.698 506.939 131.62 506.75C131.927 506.936 132.266 507.062 132.62 507.12C132.96 507.18 133.31 507.24 133.67 507.28C134.416 507.349 135.157 507.459 135.89 507.61Z" fill="#E0A4AB"/>
<path d="M135.89 509.998C135.59 510.229 135.252 510.406 134.89 510.518C134.538 510.636 134.171 510.7 133.8 510.708C133.416 510.721 133.033 510.663 132.67 510.538C132.305 510.407 131.995 510.157 131.79 509.828C132.433 510.047 133.113 510.135 133.79 510.088C134.47 510.088 135.14 509.998 135.89 509.998Z" fill="#E0A4AB"/>
<path d="M79.4602 509.828C79.4602 509.828 83.0602 514.618 79.4602 519.198C76.8002 522.578 69.1102 523.148 65.2302 523.198C63.6858 523.232 62.1491 522.974 60.7002 522.438C54.2072 519.887 47.9302 516.817 41.9302 513.258C38.2291 511.17 34.7684 508.682 31.6102 505.838C30.5682 504.879 29.8106 503.651 29.4208 502.289C29.0309 500.927 29.0238 499.484 29.4002 498.118C29.9905 496.098 30.866 494.172 32.0002 492.398L66.4202 517.198L78.4202 510.868L79.4602 509.828Z" fill="#6E6C5C"/>
<path d="M71.9998 503.488C73.2098 504.405 74.3527 505.408 75.4198 506.488C76.1094 507.195 76.8976 507.798 77.7598 508.278C78.446 508.649 79.0406 509.168 79.4998 509.798C79.7149 510.139 79.8223 510.536 79.8079 510.938C79.7936 511.34 79.6582 511.729 79.4194 512.053C79.1807 512.377 78.8497 512.622 78.4697 512.755C78.0897 512.888 77.6785 512.903 77.2898 512.798L77.1798 512.748C77.0564 513.231 76.7513 513.647 76.3283 513.91C75.9052 514.172 75.397 514.262 74.9098 514.158C74.9098 514.158 74.4098 516.278 72.5398 515.808C72.5398 515.808 71.9998 518.148 69.8698 517.178C69.8965 517.49 69.8451 517.803 69.7203 518.09C69.5955 518.376 69.4012 518.627 69.155 518.82C68.9088 519.012 68.6184 519.14 68.3102 519.193C68.002 519.245 67.6856 519.219 67.3898 519.118C64.7998 518.648 59.7598 515.378 59.7598 515.378L66.7598 507.998L71.9998 503.488Z" fill="#FBCDC3"/>
<path d="M77.1397 512.769C76.2768 512.296 75.5129 511.661 74.8897 510.899C74.2371 510.16 73.7405 509.296 73.4297 508.359C74.1397 509.049 74.7397 509.769 75.3697 510.489C75.9997 511.209 76.5897 511.999 77.1397 512.769Z" fill="#E0A4AB"/>
<path d="M74.87 514.18C74.4445 514.012 74.0441 513.786 73.68 513.51C73.321 513.236 72.9864 512.931 72.68 512.6C72.0316 511.939 71.6051 511.094 71.46 510.18L72.29 511.18C72.57 511.51 72.85 511.83 73.14 512.18C73.72 512.83 74.31 513.45 74.87 514.18Z" fill="#E0A4AB"/>
<path d="M72.4997 515.83C72.0813 515.685 71.6895 515.472 71.3397 515.2C70.9734 514.943 70.6379 514.644 70.3397 514.31C69.7425 513.665 69.3403 512.864 69.1797 512C69.4897 512.33 69.7397 512.66 70.0197 513C70.2997 513.34 70.5497 513.63 70.8397 513.94C71.3797 514.53 71.9997 515.13 72.4997 515.83Z" fill="#E0A4AB"/>
<path d="M69.8296 517.2C69.4242 517.104 69.0385 516.938 68.6896 516.71C68.3305 516.497 67.9952 516.245 67.6896 515.96C67.0799 515.399 66.6194 514.694 66.3496 513.91C66.6684 514.155 66.9722 514.419 67.2596 514.7L68.1196 515.51C68.7096 516.05 69.2696 516.58 69.8296 517.2Z" fill="#E0A4AB"/>
<path d="M55.9401 469.802C55.9401 469.802 55.6301 475.802 55.1301 483.132C55.0535 484.243 55.2066 485.358 55.58 486.408C55.9533 487.457 56.5388 488.418 57.3001 489.232C60.5501 492.712 61.0801 493.712 64.7901 496.792L64.2501 500.182C64.2501 500.182 56.7001 509.602 52.6301 510.362L49.9801 510.872C49.9801 510.872 38.4301 504.562 33.6001 498.322C32.9318 497.44 32.452 496.43 32.1905 495.355C31.929 494.279 31.8914 493.162 32.0801 492.072C32.2539 491.008 32.5388 489.966 32.9301 488.962C33.5408 487.485 33.9576 485.935 34.1701 484.352C34.6401 480.462 35.2701 473.532 34.5901 468.352L55.9401 469.802Z" fill="#FBCDC3"/>
<path d="M50.23 511C53.1553 512.924 56.3548 514.394 59.72 515.36C65.26 513.36 71.96 503.45 71.96 503.45C69.7545 501.027 67.3567 498.786 64.79 496.75C64.79 496.75 58.3 506.56 50 510.87L50.23 511Z" fill="#8A8875"/>
<path d="M99.4398 279.859C99.4398 279.859 106.04 296.759 112.08 340.519C117.89 382.569 131.14 423.519 128.08 458.879C127.976 460.14 127.481 461.336 126.663 462.301C125.845 463.266 124.746 463.951 123.52 464.259C108.23 468.129 53.7998 480.259 23.0198 465.169C21.9518 464.652 21.0562 463.836 20.4406 462.822C19.825 461.807 19.5156 460.636 19.5498 459.449C19.8198 450.089 26.4898 422.449 19.0298 366.609C9.51977 295.489 11.8798 284.409 11.8798 284.409L99.4398 279.859Z" fill="#8A8875"/>
<path d="M133.85 147.8C133.85 147.8 137.35 144.38 138.65 144.52C139.95 144.66 150.85 158.13 153.71 162.23C153.898 162.504 154.006 162.826 154.02 163.158C154.034 163.491 153.954 163.821 153.79 164.11C153.084 165.267 152.131 166.254 151 167C148.36 168.78 133.85 147.8 133.85 147.8Z" fill="#D4B668"/>
<path d="M85.88 132.069C85.88 132.069 99.51 151.909 105.1 161.139C105.322 161.512 105.66 161.803 106.063 161.967C106.465 162.131 106.91 162.16 107.33 162.049C116.733 159.408 125.369 154.56 132.52 147.909C132.716 147.725 132.976 147.622 133.245 147.622C133.514 147.622 133.774 147.725 133.97 147.909C136.71 150.469 146.44 159.809 151.17 167.189C151.262 167.348 151.297 167.533 151.27 167.715C151.243 167.897 151.155 168.064 151.02 168.189C147.27 171.559 123.63 192.429 107.87 198.019L91.64 247.669C91.64 247.669 98.7 267.099 100.57 276.999C102.39 286.659 45.08 302.509 13.76 286.499C13.0175 286.116 12.4166 285.506 12.0443 284.758C11.6721 284.009 11.548 283.162 11.69 282.339C13.07 274.289 12.97 252.919 18.69 230.069C18.9827 228.925 19.027 227.731 18.82 226.569C18.5796 225.543 18.5796 224.475 18.82 223.449C19.39 221.719 20.82 222.359 18.91 215.449C16.71 207.549 13.44 162.019 12.91 127.519C12.91 127.519 38.6 114.869 81.21 127.059L85.88 132.069Z" fill="#E6CB80"/>
<path d="M15.1795 100.7C15.1795 100.7 18.3395 104.09 21.9995 105C21.9995 105 35.4295 109.46 47.9995 106.39L40.2795 100.3L40.6595 94.11C40.6595 94.11 44.2095 92.28 41.3295 88.3C38.4495 84.32 36.3295 90.6 31.2595 72.3L29.4495 70C29.4495 70 17.1695 84.5 14.7695 99.9L15.1795 100.7Z" fill="#131F21"/>
<path d="M41.5995 58.7188C41.5995 58.7188 48.7895 64.1187 50.9495 68.0587C52.8795 71.5687 56.4395 73.1287 61.2095 72.7787C61.4486 72.7625 61.6886 72.7936 61.9156 72.8703C62.1427 72.947 62.3524 73.0678 62.5326 73.2257C62.7129 73.3837 62.8602 73.5757 62.966 73.7907C63.0719 74.0057 63.1342 74.2396 63.1495 74.4788C63.3732 77.0535 63.3229 79.6447 62.9995 82.2087C62.9345 82.6157 62.9562 83.0318 63.063 83.4299C63.1699 83.8279 63.3595 84.199 63.6195 84.5187C65.2854 86.6922 67.2247 88.6416 69.3895 90.3187C69.7455 90.574 70.0262 90.9204 70.2021 91.3216C70.3781 91.7228 70.4428 92.1639 70.3895 92.5987C70.1195 94.9887 68.7295 99.5088 62.5095 103.159C59.1502 105.1 55.3828 106.227 51.5095 106.449C50.3126 106.542 49.1093 106.508 47.9195 106.349C44.8458 105.748 41.9615 104.417 39.5095 102.469C39.286 102.283 39.0223 102.152 38.7393 102.086C38.4564 102.02 38.162 102.021 37.8795 102.089C36.1395 102.479 32.2495 103.089 29.1595 101.089C28.2078 100.528 27.4581 99.68 27.018 98.6668C26.5779 97.6537 26.4699 96.5271 26.7095 95.4487C26.8884 94.7172 27.2434 94.0405 27.7436 93.4776C28.2438 92.9146 28.874 92.4825 29.5795 92.2188C30.9362 91.6733 32.4376 91.6028 33.8395 92.0187C35.7179 92.5753 37.6999 92.6882 39.6295 92.3487C40.0458 92.2915 40.423 92.0726 40.6793 91.7396C40.9357 91.4065 41.0507 90.9859 40.9995 90.5687C40.9573 90.3424 40.8567 90.131 40.7075 89.9556C40.5584 89.7802 40.366 89.6468 40.1495 89.5687C37.0556 88.1037 34.5468 85.6373 33.0295 82.5687C31.3917 78.8381 30.3005 74.8908 29.7895 70.8487L40.3895 59.2987L41.5995 58.7188Z" fill="#FBCDC3"/>
<path d="M41.3098 58.0003C37.5598 53.1103 31.1098 49.0003 27.9998 47.1203C27.4739 46.811 26.8591 46.6881 26.2548 46.7716C25.6505 46.8551 25.092 47.14 24.6698 47.5803C4.30976 68.6303 0.659761 85.0003 -0.000239398 89.3703C-0.0493078 89.7175 -0.00893143 90.0715 0.117066 90.3988C0.243063 90.726 0.45051 91.0157 0.719761 91.2403C2.99976 93.1603 9.46976 98.4403 14.5498 100.72C14.6438 100.771 14.7482 100.799 14.8548 100.802C14.9614 100.805 15.0673 100.784 15.1642 100.739C15.2611 100.695 15.3463 100.628 15.4132 100.545C15.4801 100.462 15.5269 100.364 15.5498 100.26C19.9319 84.6096 28.8124 70.5899 41.0898 59.9403C41.2438 59.8026 41.3694 59.6361 41.4598 59.4503C41.565 59.2169 41.6066 58.9598 41.5802 58.7051C41.5539 58.4504 41.4606 58.2072 41.3098 58.0003Z" fill="#223A3E"/>
<path d="M38.4496 97.7816C38.4642 97.9828 38.431 98.1846 38.3528 98.3705C38.2746 98.5565 38.1536 98.7213 37.9996 98.8516C37.671 99.1118 37.2761 99.2747 36.8596 99.3216C35.9662 99.4113 35.0649 99.3811 34.1796 99.2316C33.3325 99.1167 32.5167 98.8346 31.7796 98.4016C31.4568 98.2261 31.1733 97.9866 30.9463 97.6977C30.7194 97.4088 30.5537 97.0767 30.4596 96.7216C30.3757 96.4148 30.4054 96.0881 30.5432 95.8015C30.681 95.5149 30.9176 95.2877 31.2096 95.1616C31.9885 94.9449 32.8148 94.9693 33.5796 95.2316C34.408 95.4474 35.1771 95.8473 35.8296 96.4016C36.1196 96.6616 36.3996 97.0216 36.2496 97.3016C36.0996 97.5816 35.5296 97.6516 35.0796 97.6716C35.3176 97.7484 35.5704 97.7675 35.8173 97.7276C36.0641 97.6876 36.298 97.5896 36.4996 97.4416C36.5777 97.3408 36.628 97.2212 36.6456 97.0949C36.6631 96.9686 36.6472 96.8399 36.5996 96.7216C36.5224 96.497 36.4075 96.2873 36.2596 96.1016C35.614 95.3759 34.7902 94.8313 33.8696 94.5216C33.3981 94.3487 32.9081 94.2313 32.4096 94.1716C31.8515 94.0867 31.2811 94.1417 30.7496 94.3316C30.2258 94.5336 29.795 94.9217 29.5396 95.4216C29.3262 95.877 29.2665 96.3894 29.3696 96.8816C29.5028 97.3652 29.7339 97.8162 30.0488 98.2067C30.3636 98.5972 30.7553 98.9188 31.1996 99.1516C32.0898 99.628 33.0719 99.9076 34.0796 99.9716C35.0573 100.065 36.0437 99.9971 36.9996 99.7716C37.4924 99.6525 37.9361 99.3835 38.2696 99.0016C38.4043 98.8321 38.4919 98.63 38.5235 98.4158C38.5551 98.2016 38.5296 97.9828 38.4496 97.7816Z" fill="#E0A4AB"/>
<path d="M36.2194 95.9313C35.9892 95.733 35.7149 95.5924 35.4194 95.5213C35.2413 95.4744 35.0536 95.4775 34.8772 95.5305C34.7007 95.5834 34.5423 95.6841 34.4194 95.8213C34.2994 95.9665 34.2101 96.1346 34.157 96.3153C34.1039 96.4961 34.088 96.6857 34.1105 96.8728C34.1329 97.0598 34.1932 97.2404 34.2875 97.4034C34.3819 97.5665 34.5084 97.7087 34.6594 97.8213C35.1774 98.2201 35.8297 98.4028 36.4794 98.3313C36.7849 98.3306 37.0861 98.2599 37.36 98.1247C37.6339 97.9895 37.8731 97.7934 38.0594 97.5513C37.5636 97.7706 37.0143 97.8402 36.4794 97.7513C35.9889 97.7127 35.5168 97.5473 35.1094 97.2713C34.9453 97.1512 34.8284 96.9775 34.7791 96.7802C34.7298 96.5829 34.7511 96.3745 34.8394 96.1913C34.9994 95.7613 35.6694 95.7813 36.2194 95.9313Z" fill="#E0A4AB"/>
<path d="M46.4802 82.6116C46.2614 81.821 46.2069 80.994 46.3202 80.1816C46.4176 79.3633 46.6473 78.5662 47.0002 77.8216C47.3532 77.0669 47.849 76.3877 48.4602 75.8216C49.0607 75.2428 49.7963 74.8234 50.6002 74.6016C50.1102 75.2616 49.6002 75.8116 49.2202 76.4516C48.8159 77.0621 48.455 77.7004 48.1402 78.3616C47.5126 79.7481 46.9585 81.1667 46.4802 82.6116Z" fill="#131F21"/>
<path d="M41.0602 81.1095C40.763 80.0155 40.6882 78.873 40.8402 77.7495C40.9976 76.6133 41.3352 75.5095 41.8402 74.4795C42.3206 73.4321 42.9999 72.488 43.8402 71.6995C44.6832 70.8964 45.715 70.3186 46.8402 70.0195C46.1502 70.9495 45.4602 71.6995 44.9202 72.5895C44.3658 73.4356 43.868 74.3176 43.4302 75.2295C42.4802 77.0595 41.8302 78.9995 41.0602 81.1095Z" fill="#131F21"/>
<path d="M63.2695 83.8906C62.2556 86.1194 60.9067 88.1799 59.2695 90.0006C59.1334 90.138 59.0356 90.3086 58.9858 90.4954C58.9359 90.6823 58.9357 90.8789 58.9852 91.0658C59.0348 91.2527 59.1322 91.4235 59.268 91.5611C59.4038 91.6988 59.5732 91.7986 59.7595 91.8506C61.4395 92.3406 64.3195 92.3606 67.9495 89.1806C66.1967 87.5977 64.6269 85.8233 63.2695 83.8906Z" fill="#DE6681"/>
<path d="M12.7099 108.002C12.7312 107.574 12.8895 107.164 13.1613 106.832C13.4332 106.501 13.8043 106.266 14.2199 106.162C21.7899 104.462 56.6599 97.8715 76.0899 116.642C76.0899 116.642 83.8699 124.032 85.8799 132.092C85.8799 132.092 71.9699 120.292 36.1199 124.602C36.1199 124.602 23.5699 126.182 14.7899 128.112C14.4796 128.18 14.1578 128.177 13.8489 128.102C13.54 128.028 13.2522 127.884 13.0073 127.682C12.7624 127.479 12.5669 127.223 12.4356 126.934C12.3044 126.645 12.2409 126.329 12.2499 126.012L12.7099 108.002Z" fill="#223A3E"/>
<path d="M106.3 162C107.175 162.685 107.964 163.475 108.65 164.35C109.351 165.217 109.964 166.151 110.48 167.14C111.012 168.131 111.415 169.187 111.68 170.28C111.969 171.377 112.01 172.525 111.8 173.64C111.542 172.597 111.207 171.574 110.8 170.58C110.4 169.58 109.9 168.67 109.42 167.72C108.39 165.87 107.29 164 106.3 162Z" fill="#D4B668"/>
<path d="M107.869 198.06C107.869 198.06 107.029 214.85 105.369 220.65C103.299 227.88 102.939 241.49 102.879 245.96C102.873 246.388 102.713 246.799 102.429 247.119C102.144 247.438 101.754 247.645 101.329 247.7C97.9794 248.16 89.2194 248.7 75.8694 244.78C75.6289 244.712 75.4041 244.597 75.2081 244.442C75.012 244.287 74.8484 244.095 74.7268 243.877C74.6051 243.658 74.5277 243.418 74.4989 243.17C74.4702 242.922 74.4907 242.67 74.5593 242.43C76.6448 234.472 77.852 226.31 78.1594 218.09C79.0494 201.09 78.7093 182.09 78.7093 182.09C78.7093 182.09 91.9994 205.25 107.869 198.06Z" fill="#223A3E"/>
<path d="M107.87 198.059C106.41 198.569 104.94 199.059 103.44 199.399C102.678 199.606 101.898 199.74 101.11 199.799H99.9302C99.7302 199.799 99.5302 199.799 99.3302 199.799L98.7502 199.709C98.3502 199.649 97.9602 199.599 97.5702 199.519L96.4202 199.199C96.0384 199.095 95.6642 198.964 95.3002 198.809C94.9302 198.659 94.5602 198.519 94.2002 198.359C92.7899 197.671 91.4502 196.847 90.2002 195.899C85.2002 192.099 81.3302 187.109 77.6502 182.199C75.8402 179.709 74.0702 177.199 72.2902 174.699C70.5102 172.199 68.7302 169.699 66.8702 167.309C65.0316 164.892 63.0268 162.607 60.8702 160.469C58.704 158.321 56.1794 156.568 53.4102 155.289C56.3761 156.225 59.1214 157.752 61.4802 159.779C63.8477 161.788 66.039 163.996 68.0302 166.379C72.0302 171.089 75.5502 176.169 79.1802 181.079C80.9802 183.559 82.8302 185.989 84.7802 188.309C86.6875 190.646 88.8102 192.799 91.1202 194.739C92.2701 195.691 93.5053 196.534 94.8102 197.259L95.8102 197.749C96.1328 197.916 96.467 198.06 96.8102 198.179L97.8102 198.549C98.1702 198.649 98.5302 198.719 98.8902 198.809L99.4402 198.929C99.622 198.963 99.8056 198.986 99.9902 198.999L101.1 199.119C101.847 199.109 102.592 199.045 103.33 198.929C104.85 198.659 106.36 198.369 107.87 198.059Z" fill="#D4B668"/>
<path d="M151.63 159.429C151.63 159.429 155.1 159.179 158.48 154.179C159.18 153.174 159.981 152.243 160.87 151.399L164.16 148.259C165.745 146.787 166.734 144.783 166.94 142.629C167.073 141.927 166.989 141.201 166.697 140.549C166.406 139.896 165.922 139.349 165.31 138.979C165.31 138.979 166.26 135.309 162.95 133.979C162.95 133.979 165.3 131.849 165.69 130.169C166.08 128.489 164.53 126.279 162.95 126.909C162.95 126.909 165.01 123.499 162.71 122.159C162.179 121.892 161.588 121.769 160.994 121.802C160.401 121.836 159.827 122.024 159.33 122.349C158.501 122.802 157.779 123.426 157.21 124.179C155.305 126.588 152.868 128.522 150.09 129.829L148.4 124.379C148.4 124.379 146.23 125.299 142.88 130.429C141.565 132.626 140.873 135.139 140.88 137.699C140.88 137.839 140.88 137.979 140.88 138.119C140.882 139.467 140.724 140.809 140.41 142.119C140.196 143.117 139.821 144.073 139.3 144.949" fill="#FBCDC3"/>
<path d="M146.49 132.309C147.028 131.813 147.61 131.368 148.23 130.979C148.84 130.599 149.42 130.239 150.09 129.859C149.943 130.213 149.726 130.533 149.45 130.799C149.183 131.066 148.888 131.304 148.57 131.509C147.945 131.927 147.234 132.2 146.49 132.309Z" fill="#E0A4AB"/>
<path d="M162.999 126.941C162.715 127.553 162.352 128.124 161.919 128.641C161.496 129.161 161.035 129.649 160.539 130.101C159.549 131.014 158.418 131.76 157.189 132.311C157.669 131.831 158.189 131.401 158.659 130.951L160.119 129.641C160.999 128.761 161.999 127.871 162.999 126.941Z" fill="#E0A4AB"/>
<path d="M162.999 134C162.713 134.446 162.377 134.858 161.999 135.23C161.621 135.592 161.216 135.926 160.789 136.23C160.359 136.546 159.905 136.827 159.429 137.07C158.948 137.312 158.432 137.478 157.899 137.56C158.769 136.95 159.579 136.34 160.419 135.73C161.249 135.11 162.111 134.532 162.999 134Z" fill="#E0A4AB"/>
<path d="M165.31 139C165.012 139.581 164.657 140.13 164.25 140.64C163.851 141.15 163.417 141.631 162.95 142.08C162.474 142.533 161.954 142.938 161.4 143.29C160.852 143.666 160.22 143.9 159.56 143.97C160.117 143.672 160.637 143.309 161.11 142.89C161.59 142.49 162.06 142.07 162.51 141.63C163.44 140.74 164.32 139.83 165.31 139Z" fill="#E0A4AB"/>
<path d="M144.244 99.3958C148.825 97.9643 150.985 91.831 149.068 85.6966C147.151 79.5623 141.883 75.7499 137.302 77.1814C132.721 78.613 130.562 84.7463 132.479 90.8806C134.396 97.015 139.663 100.827 144.244 99.3958Z" fill="#8A8875"/>
<path d="M112.664 119.396C117.065 119.009 120.214 113.919 119.696 108.027C119.179 102.134 115.191 97.6712 110.79 98.0578C106.388 98.4444 103.24 103.534 103.757 109.427C104.275 115.319 108.263 119.782 112.664 119.396Z" fill="#8A8875"/>
<path d="M264.84 26.7888C268.126 26.7888 270.79 24.2547 270.79 21.1287C270.79 18.0028 268.126 15.4688 264.84 15.4688C261.554 15.4688 258.89 18.0028 258.89 21.1287C258.89 24.2547 261.554 26.7888 264.84 26.7888Z" fill="#8A8875"/>
<path d="M292.179 57.0114C295.466 57.0114 298.129 54.4773 298.129 51.3514C298.129 48.2255 295.466 45.6914 292.179 45.6914C288.893 45.6914 286.229 48.2255 286.229 51.3514C286.229 54.4773 288.893 57.0114 292.179 57.0114Z" fill="#8A8875"/>
<path d="M310.96 103.34C314.246 103.34 316.91 100.805 316.91 97.6795C316.91 94.5536 314.246 92.0195 310.96 92.0195C307.674 92.0195 305.01 94.5536 305.01 97.6795C305.01 100.805 307.674 103.34 310.96 103.34Z" fill="#8A8875"/>
<path d="M315.179 149.98C318.466 149.98 321.129 147.446 321.129 144.32C321.129 141.194 318.466 138.66 315.179 138.66C311.893 138.66 309.229 141.194 309.229 144.32C309.229 147.446 311.893 149.98 315.179 149.98Z" fill="#8A8875"/>
<path d="M300.84 206.058C304.126 206.058 306.79 203.524 306.79 200.398C306.79 197.272 304.126 194.738 300.84 194.738C297.554 194.738 294.89 197.272 294.89 200.398C294.89 203.524 297.554 206.058 300.84 206.058Z" fill="#8A8875"/>
<path d="M274.979 242.488C277.923 242.488 280.309 240.214 280.309 237.408C280.309 234.603 277.923 232.328 274.979 232.328C272.036 232.328 269.649 234.603 269.649 237.408C269.649 240.214 272.036 242.488 274.979 242.488Z" fill="#8A8875"/>
<path d="M482.22 234L338.87 244.64C337.015 244.779 335.282 245.614 334.017 246.977C332.752 248.34 332.05 250.131 332.05 251.99V257.45C332.05 258.463 332.259 259.465 332.664 260.394C333.069 261.322 333.661 262.157 334.404 262.846C335.146 263.535 336.023 264.063 336.979 264.398C337.935 264.732 338.95 264.866 339.96 264.79L483.3 254.17C485.154 254.036 486.889 253.204 488.154 251.842C489.42 250.48 490.122 248.689 490.12 246.83V241.37C490.124 240.356 489.918 239.351 489.516 238.42C489.113 237.489 488.522 236.651 487.781 235.959C487.039 235.267 486.162 234.735 485.205 234.398C484.248 234.061 483.232 233.926 482.22 234Z" fill="#425355"/>
</g>
<defs>
<clipPath id="clip0_1354_1586">
<rect width="525.15" height="523.23" fill="white"/>
</clipPath>
</defs>
</svg>
